<?xml version="1.0" encoding="UTF-8" standalone="no"?>
<svg viewBox="0 0 15 16" version="1.1" xmlns="http://www.w3.org/2000/svg" xmlns:xlink="http://www.w3.org/1999/xlink">
    <title>Calendar</title>
    <path d="M0.9996,6 L14.0006,6 L14.0006,15.0006 L0.9996,15.0006 L0.9996,6 Z M14.0006,5 L0.9996,5 L0.9996,3.0006 L1.9996,3.0006 L1.9996,1.9996 L-0.0004,1.9996 L-0.0004,15.9996 L15.0006,15.9996 L15.0006,1.9996 L12.9996,1.9996 L12.9996,3.0006 L14.0006,3.0006 L14.0006,5 Z M4,8 L5.001,8 L5.001,7 L4,7 L4,8 Z M6,8 L7,8 L7,7 L6,7 L6,8 Z M8,8 L9,8 L9,7 L8,7 L8,8 Z M10,8 L11,8 L11,7 L10,7 L10,8 Z M12,8 L13,8 L13,7 L12,7 L12,8 Z M2,10 L3,10 L3,9 L2,9 L2,10 Z M4,10 L5.001,10 L5.001,9 L4,9 L4,10 Z M6,10 L7,10 L7,9 L6,9 L6,10 Z M8,10 L9,10 L9,9 L8,9 L8,10 Z M10,10 L11,10 L11,9 L10,9 L10,10 Z M12,10 L13,10 L13,9 L12,9 L12,10 Z M2,12 L3,12 L3,10.999 L2,10.999 L2,12 Z M4,12 L5.001,12 L5.001,10.999 L4,10.999 L4,12 Z M6,12 L7,12 L7,10.999 L6,10.999 L6,12 Z M8,12 L9,12 L9,10.999 L8,10.999 L8,12 Z M10,12 L11,12 L11,10.999 L10,10.999 L10,12 Z M12,12 L13,12 L13,10.999 L12,10.999 L12,12 Z M2,14 L3,14 L3,13 L2,13 L2,14 Z M4,14 L5.001,14 L5.001,13 L4,13 L4,14 Z M6,14 L7,14 L7,13 L6,13 L6,14 Z M8,14 L9,14 L9,13 L8,13 L8,14 Z M10,14 L11,14 L11,13 L10,13 L10,14 Z M5,3 L9.999,3 L9.999,1.999 L5,1.999 L5,3 Z M3,4 L4,4 L4,-0.001 L3,-0.001 L3,4 Z M11,4 L12,4 L12,-0.001 L11,-0.001 L11,4 Z"></path>
</svg>
