<?xml version="1.0" encoding="UTF-8" standalone="no"?>
<svg viewBox="0 0 16 16" version="1.1" xmlns="http://www.w3.org/2000/svg" xmlns:xlink="http://www.w3.org/1999/xlink">
    <title>Pie Chart</title>
    <path d="M7.5029,0.994 C3.3589,0.994 -0.0001,4.353 -0.0001,8.497 C-0.0001,12.641 3.3589,16 7.5029,16 C11.6469,16 15.0059,12.641 15.0059,8.497 C15.0059,8.329 14.9919,8.165 14.9809,8 L7.9999,8 L7.9999,1.019 C7.8349,1.008 7.6709,0.994 7.5029,0.994 M6.9999,2.013 L6.9999,8 L6.9999,9 L7.9999,9 L13.9869,9 C13.7289,12.352 10.9199,15 7.5029,15 C3.9169,15 0.9999,12.083 0.9999,8.497 C0.9999,5.08 3.6479,2.271 6.9999,2.013 Z M9,0 L9,7 L16,7 C16,3.134 12.866,0 9,0 Z M10,1.083 C12.509,1.506 14.494,3.491 14.917,6 L10,6 L10,1.083 Z"></path>
</svg>
