<?xml version="1.0" encoding="UTF-8" standalone="no"?>
<svg viewBox="0 0 16 16" version="1.1" xmlns="http://www.w3.org/2000/svg" xmlns:xlink="http://www.w3.org/1999/xlink">
    <title>Refresh</title>
    <path d="M14.5291478,10.5291478 C13.5151009,13.1451588 10.9741611,15 8,15 C4.47352809,15 1.55611852,12.3922941 1.07088886,9 L2.08295844,9 C2.55903653,11.8377133 5.02700371,14 8,14 C10.7075358,14 12.9962046,12.2066174 13.7429294,9.74292939 L12,8 L16,8 L16,12 L14.5291478,10.5291478 Z M1.47085216,5.47085216 C2.4848991,2.8548412 5.02583886,1 8,1 C11.5264719,1 14.4438815,3.60770586 14.9291111,7 L13.9170416,7 C13.4409635,4.16228666 10.9729963,2 8,2 C5.29246421,2 3.00379536,3.79338258 2.25707061,6.25707061 L4,8 L2.22044605e-16,8 L2.22044605e-16,4 L1.47085216,5.47085216 Z"></path>
</svg>
