<?xml version="1.0" encoding="UTF-8" standalone="no"?>
<svg viewBox="0 0 16 16" version="1.1" xmlns="http://www.w3.org/2000/svg" xmlns:xlink="http://www.w3.org/1999/xlink">
    <title></title>
    <path d="M8.0001,-0.0002 L6.6661,0.9998 L1.0001,0.9998 L1.0001,5.2508 L0.0001,5.9998 L0.0001,15.9998 L16.0001,15.9998 L16.0001,5.9998 L15.0001,5.2508 L15.0001,0.9998 L9.3331,0.9998 L8.0001,-0.0002 Z M2.0001,6.0488 L2.0001,5.7498 L2.0001,4.4998 L2.0001,1.9998 L5.3331,1.9998 L7.0001,1.9998 L9.0001,1.9998 L10.6671,1.9998 L14.0001,1.9998 L14.0001,4.4998 L14.0001,5.7498 L14.0001,6.0488 L8.0001,9.9048 L2.0001,6.0488 Z M8.9241,10.4998 L15.0001,6.5938 L15.0001,14.4048 L8.9241,10.4998 Z M1.0001,6.5938 L7.0751,10.4998 L1.0001,14.4048 L1.0001,6.5938 Z M8.0001,11.0938 L14.0751,14.9998 L1.9251,14.9998 L8.0001,11.0938 Z M3,4 L6.001,4 L6.001,3 L3,3 L3,4 Z M3,6 L13,6 L13,5 L3,5 L3,6 Z"></path>
</svg>
