<?xml version="1.0" encoding="UTF-8" standalone="no"?>
<svg viewBox="0 0 12 16" version="1.1" xmlns="http://www.w3.org/2000/svg" xmlns:xlink="http://www.w3.org/1999/xlink">
    <title>Receipt</title>
    <path d="M0,-0.0002 L0,14.9998 L2,15.9998 L4,14.9998 L5.99,15.9998 L7.99,14.9998 L10,15.9998 L12,14.9998 L12,-0.0002 L0,-0.0002 Z M1,14.3798 L1,0.9998 L11,0.9998 L11,14.3798 L10,14.8808 L7.99,13.8798 L5.99,14.8808 L4,13.8798 L2,14.8808 L1,14.3798 Z M2,5 L10,5 L10,4 L2,4 L2,5 Z M2,8 L10,8 L10,7 L2,7 L2,8 Z M2,11 L10,11 L10,10 L2,10 L2,11 Z"></path>
</svg>
