<?xml version="1.0" encoding="UTF-8" standalone="no"?>
<svg viewBox="0 0 16 16" version="1.1" xmlns="http://www.w3.org/2000/svg" xmlns:xlink="http://www.w3.org/1999/xlink">
    <title>Clock</title>
    <path d="M8,0 C3.582,0 0,3.582 0,8 C0,12.418 3.582,16 8,16 C12.418,16 16,12.418 16,8 C16,3.582 12.418,0 8,0 M8,1 C11.86,1 15,4.14 15,8 C15,11.86 11.86,15 8,15 C4.14,15 1,11.86 1,8 C1,4.14 4.14,1 8,1 Z M11.276,11.4473 L7,9.3083 L7,2.0003 L8,2.0003 L8,8.6913 L11.723,10.5523 L11.276,11.4473 Z"></path>
</svg>
