<?xml version="1.0" encoding="UTF-8" standalone="no"?>
<svg viewBox="0 0 16 16" version="1.1" xmlns="http://www.w3.org/2000/svg" xmlns:xlink="http://www.w3.org/1999/xlink">
    <title>Discussion</title>
    <path d="M4,0 L4,8 L10,8 L13.574,11.574 C13.625,11.625 13.687,11.647 13.749,11.647 C13.877,11.647 14,11.548 14,11.397 L14,8 L16,8 L16,0 L4,0 Z M5,1 L15,1 L15,7 L14,7 L13,7 L13,8 L13,9.586 L10.707,7.293 L10.414,7 L10,7 L5,7 L5,1 Z M9,9 L9,11.353 L6,11.353 L5.586,11.353 L5.293,11.645 L3,13.938 L3,12.353 L3,11.353 L2,11.353 L1,11.353 L1,5.353 L3,5.353 L3,4.353 L0,4.353 L0,12.353 L2,12.353 L2,15.75 C2,15.9 2.123,16 2.251,16 C2.313,16 2.375,15.977 2.426,15.926 L6,12.353 L10,12.353 L10,9 L9,9 Z"></path>
</svg>
