<?xml version="1.0" encoding="UTF-8" standalone="no"?>
<svg viewBox="0 0 15 16" version="1.1" xmlns="http://www.w3.org/2000/svg" xmlns:xlink="http://www.w3.org/1999/xlink">
    <title>Activity</title>
    <path d="M2,0 C0.895,0 0,0.895 0,2 C0,3.105 0.895,4 2,4 C3.105,4 4,3.105 4,2 C4,0.895 3.105,0 2,0 L2,0 Z M2,1 C2.551,1 3,1.449 3,2 C3,2.551 2.551,3 2,3 C1.449,3 1,2.551 1,2 C1,1.449 1.449,1 2,1 Z M2,6 C0.895,6 0,6.895 0,8 C0,9.105 0.895,10 2,10 C3.105,10 4,9.105 4,8 C4,6.895 3.105,6 2,6 Z M2,7 C2.551,7 3,7.449 3,8 C3,8.551 2.551,9 2,9 C1.449,9 1,8.551 1,8 C1,7.449 1.449,7 2,7 Z M2,12 C0.895,12 0,12.895 0,14 C0,15.105 0.895,16 2,16 C3.105,16 4,15.105 4,14 C4,12.895 3.105,12 2,12 Z M2,13 C2.551,13 3,13.449 3,14 C3,14.551 2.551,15 2,15 C1.449,15 1,14.551 1,14 C1,13.449 1.449,13 2,13 Z M6,3 L15,3 L15,1 L6,1 L6,3 Z M6,9 L15,9 L15,7 L6,7 L6,9 Z M6,15 L15,15 L15,13 L6,13 L6,15 Z"></path>
</svg>
