<?xml version="1.0" encoding="UTF-8" standalone="no"?>
<svg viewBox="0 0 16 16" version="1.1" xmlns="http://www.w3.org/2000/svg" xmlns:xlink="http://www.w3.org/1999/xlink">
    <title>Mail Out</title>
    <path d="M8.0001,-0.0002 L5.0001,4.0008 L7.0001,4.0008 L7.0001,7.9998 L9.0001,7.9998 L9.0001,4.0008 L11.0001,4.0008 L8.0001,-0.0002 Z M11.9997,4.2496 L14.2137,5.9096 L7.9997,9.9056 L1.7857,5.9096 L3.9997,4.2496 L3.9997,3.0006 L-0.0003,6.0006 L-0.0003,15.9996 L16.0007,15.9996 L16.0007,6.0006 L11.9997,3.0006 L11.9997,4.2496 Z M8.9257,10.5006 L15.0007,6.5946 L15.0007,14.4056 L8.9257,10.5006 Z M0.9997,6.5946 L7.0747,10.5006 L0.9997,14.4056 L0.9997,6.5946 Z M7.9997,11.0946 L14.0747,15.0006 L1.9247,15.0006 L7.9997,11.0946 Z"></path>
</svg>
