<?xml version="1.0" encoding="UTF-8" standalone="no"?>
<svg viewBox="0 0 16 16" version="1.1" xmlns="http://www.w3.org/2000/svg" xmlns:xlink="http://www.w3.org/1999/xlink">
    <title>User Group</title>
    <path d="M5,15 L1.103,15 C1.483,13.362 2.903,13 5,13 C7.097,13 8.517,13.362 8.897,15 L5,15 Z M3,10 L3,8 C3,6.897 3.897,6 5,6 C6.103,6 7,6.897 7,8 L7,10 C7,11.103 6.103,12 5,12 C3.897,12 3,11.103 3,10 L3,10 Z M7.06,12.172 C7.636,11.626 8,10.857 8,10 L8,8 C8,6.343 6.657,5 5,5 C3.343,5 2,6.343 2,8 L2,10 C2,10.857 2.364,11.626 2.94,12.172 C1.476,12.488 0,13.392 0,16 L5,16 L10,16 C10,13.392 8.524,12.488 7.06,12.172 Z M13.06,7.172 C13.636,6.626 14,5.857 14,5 L14,3 C14,1.343 12.657,0 11,0 C9.343,0 8,1.343 8,3 L8,5 C8,6.657 9.343,8 11,8 C13.097,8 14.517,8.362 14.897,10 L11,10 L9,10 L9,11 L11,11 L16,11 C16,8.392 14.524,7.488 13.06,7.172 Z M9,5 L9,3 C9,1.897 9.897,1 11,1 C12.103,1 13,1.897 13,3 L13,5 C13,6.103 12.103,7 11,7 C9.897,7 9,6.103 9,5 Z"></path>
</svg>
