<?xml version="1.0" encoding="UTF-8" standalone="no"?>
<svg viewBox="0 0 12 16" version="1.1" xmlns="http://www.w3.org/2000/svg" xmlns:xlink="http://www.w3.org/1999/xlink">
    <title>Sand Clock</title>
    <path d="M9.50263208,10.999 C9.08353182,10.2770942 8.43962707,9.68790706 7.6407,9.338 L7.0417,9.076 L7.0417,8.422 L7.0417,7.578 L7.0417,6.924 L7.6407,6.662 C9.0997,6.023 10.0417,4.586 10.0417,3 L10.0417,1 L2.0417,1 L2.0417,3 C2.0417,4.586 2.9837,6.023 4.4427,6.662 L5.0417,6.924 L5.0417,7.578 L5.0417,8.422 L5.0417,9.076 L4.4427,9.338 C3.64377293,9.68790706 2.99986818,10.2770942 2.58076792,10.999 L9.50263208,10.999 Z M9.91421942,12 C9.99778027,12.3220306 10.0417,12.6575418 10.0417,13 L10.0417,15 L2.0417,15 L2.0417,13 C2.0417,12.6575418 2.08561973,12.3220306 2.16918058,12 L9.91421942,12 Z M12.0417,0 L11.0417,0 L1.0417,0 L-0.0003,0 C-0.0003,0.55228475 0.44764902,1 0.996926562,1 L1.0417,1 L1.0417,3 C1.0417,5.049 2.2777,6.806 4.0417,7.578 L4.0417,8.422 C2.2777,9.194 1.0417,10.951 1.0417,13 L1.0417,15 C0.48941525,15 0.0417,15.453186 0.0417,16 L1.0417,16 L11.0417,16 L12.0417,16 C12.0417,15.4477153 11.588514,15 11.0417,15 L11.0417,13 C11.0417,10.951 9.8057,9.194 8.0417,8.422 L8.0417,7.578 C9.8057,6.806 11.0417,5.049 11.0417,3 L11.0417,1 C11.5939847,1 12.0417,0.546813965 12.0417,0 Z"></path>
</svg>
