<?xml version="1.0" encoding="UTF-8" standalone="no"?>
<svg viewBox="0 0 16 16" version="1.1" xmlns="http://www.w3.org/2000/svg" xmlns:xlink="http://www.w3.org/1999/xlink">
    <title>Mail In</title>
    <path d="M7.0002,-0.0002 L7.0002,4.9998 L5.0002,4.9998 L8.0002,8.9998 L11.0002,4.9998 L9.0002,4.9998 L9.0002,-0.0002 L7.0002,-0.0002 Z M9.9999,2.7502 L14.2139,5.9102 L7.9999,9.9052 L1.7859,5.9102 L5.9999,2.7502 L5.9999,1.5002 L-0.0001,6.0002 L-0.0001,16.0002 L15.9999,16.0002 L15.9999,6.0002 L9.9999,1.5002 L9.9999,2.7502 Z M8.9249,10.5002 L14.9999,6.5952 L14.9999,14.4052 L8.9249,10.5002 Z M0.9999,6.5952 L7.0749,10.5002 L0.9999,14.4052 L0.9999,6.5952 Z M7.9999,11.0952 L14.0749,15.0002 L1.9249,15.0002 L7.9999,11.0952 Z"></path>
</svg>
