<?xml version="1.0" encoding="UTF-8" standalone="no"?>
<svg viewBox="0 0 16 16" version="1.1" xmlns="http://www.w3.org/2000/svg" xmlns:xlink="http://www.w3.org/1999/xlink">
    <title>Archive (solid)</title>
    <path d="M15,6 L15,15 L1,15 L1,6 L0,6 L0,1 L16,1 L16,6 L15,6 Z M5.50473881,7 L10.4952612,7 C11.3263055,7 12,7.66579723 12,8.5 C12,9.32842712 11.3316845,10 10.4952612,10 L5.50473881,10 C4.67369451,10 4,9.33420277 4,8.5 C4,7.67157288 4.66831553,7 5.50473881,7 Z M5.50473881,9 L10.4952612,9 C10.7776946,9 11,8.77784613 11,8.5 C11,8.22138318 10.7773252,8 10.4952612,8 L5.50473881,8 C5.22230542,8 5,8.22215387 5,8.5 C5,8.77861682 5.22267481,9 5.50473881,9 Z"></path>
</svg>
