<?xml version="1.0" encoding="UTF-8" standalone="no"?>
<svg viewBox="0 0 16 16" version="1.1" xmlns="http://www.w3.org/2000/svg" xmlns:xlink="http://www.w3.org/1999/xlink">
    <title>Eye (solid)</title>
    <path d="M8,3 C3.045,3 0,8 0,8 C0,8 3.045,13 8,13 C12.955,13 16,8 16,8 C16,8 12.955,3 8,3 Z M8,5 C6.343,5 5,6.343 5,8 C5,9.657 6.343,11 8,11 C9.657,11 11,9.657 11,8 C11,6.343 9.657,5 8,5 Z M8,6 C9.103,6 10,6.897 10,8 C10,9.103 9.103,10 8,10 C6.897,10 6,9.103 6,8 C6,6.897 6.897,6 8,6 Z"></path>
</svg>
