<?xml version="1.0" encoding="UTF-8" standalone="no"?>
<svg viewBox="0 0 16 16" version="1.1" xmlns="http://www.w3.org/2000/svg" xmlns:xlink="http://www.w3.org/1999/xlink">
    <title>Folder</title>
    <path d="M15,13.5 C15,13.78 14.78,14 14.5,14 L2.91,14 C2.97,13.84 3,13.68 3,13.5 L3,5 L15,5 L15,13.5 Z M2,13.5 C2,13.78 1.78,14 1.5,14 C1.22,14 1,13.78 1,13.5 L1,1 L4,1 L4,3 L14,3 L14,4 L2,4 L2,13.5 Z M15,4 L15,2 L5,2 L5,0 L0,0 L0,13.5 C0,14.33 0.67,15 1.5,15 L14.5,15 C15.33,15 16,14.33 16,13.5 L16,4 L15,4 Z"></path>
</svg>
