<?xml version="1.0" encoding="UTF-8" standalone="no"?>
<svg viewBox="0 0 16 16" version="1.1" xmlns="http://www.w3.org/2000/svg" xmlns:xlink="http://www.w3.org/1999/xlink">
    <title>Cloud</title>
    <path d="M6,3 C3.791,3 2,4.791 2,7 C2,7.061 2.015,7.118 2.018,7.178 C0.846,7.586 0,8.689 0,10 C0,11.657 1.343,13 3,13 L13,13 C14.657,13 16,11.657 16,10 C16,8.513 14.915,7.287 13.495,7.05 C13.495,7.033 13.5,7.017 13.5,7 C13.5,5.619 12.381,4.5 11,4.5 C10.419,4.5 9.891,4.706 9.466,5.039 C8.779,3.827 7.493,3 6,3 M6,4 C7.065,4 8.06,4.587 8.597,5.532 L9.169,6.542 L10.083,5.826 C10.273,5.677 10.586,5.5 11,5.5 C11.81,5.5 12.471,6.145 12.499,6.947 L12.497,6.966 L12.495,7.029 L12.477,7.894 L13.33,8.036 C14.298,8.198 15,9.024 15,10 C15,11.103 14.103,12 13,12 L3,12 C1.897,12 1,11.103 1,10 C1,9.158 1.541,8.403 2.347,8.122 L3.05,7.878 L3.017,7.134 C3.015,7.08 3.009,7.028 3,6.964 C3.019,5.326 4.358,4 6,4"></path>
</svg>
