<?xml version="1.0" encoding="UTF-8" standalone="no"?>
<svg viewBox="0 0 16 16" version="1.1" xmlns="http://www.w3.org/2000/svg" xmlns:xlink="http://www.w3.org/1999/xlink">
    <title>Edit</title>
    <path d="M13.146,5.024 L10.56,2.438 L11.998,1 L12,1 L12.001,1 L14.584,3.586 L13.146,5.024 Z M1.898,11.19 L4.394,13.686 L1.274,14.31 L1.898,11.19 Z M2.56,10.438 L9.853,3.145 L12.439,5.731 L5.146,13.024 L2.56,10.438 Z M15.291,2.876 L12.708,0.293 C12.512,0.097 12.256,0 12,0 C11.743,0 11.487,0.097 11.291,0.293 L1,10.585 L0,15.585 L5,14.585 L15.291,4.293 C15.682,3.902 15.682,3.267 15.291,2.876 L15.291,2.876 Z"></path>
</svg>
