<?xml version="1.0" encoding="UTF-8" standalone="no"?>
<svg viewBox="0 0 16 16" version="1.1" xmlns="http://www.w3.org/2000/svg" xmlns:xlink="http://www.w3.org/1999/xlink">
    <title>Share (solid)</title>
    <path d="M10,2 L10,5 C3.78,5 2.396,10.397 2.088,12.833 C2.075,12.935 2.153,12.996 2.233,12.996 C2.289,12.996 2.345,12.967 2.374,12.902 C3.96,9.305 8.089,8.985 9.511,8.985 C9.819,8.985 10,9 10,9 L10,12 L16,7 L10,2 Z M15,9 L15,15 L1,15 L1,8 L2,8 L2,7 L1,7 L8.8817842e-16,7 L8.8817842e-16,8 L8.8817842e-16,15 L8.8817842e-16,16 L1,16 L15,16 L16,16 L16,15 L16,9 L15,9 Z"></path>
</svg>
