<?xml version="1.0" encoding="UTF-8" standalone="no"?>
<svg viewBox="0 0 16 16" version="1.1" xmlns="http://www.w3.org/2000/svg" xmlns:xlink="http://www.w3.org/1999/xlink">
    <title>Archive</title>
    <defs></defs>
    <path d="M15,5 L15,14 L1,14 L1,5 L0,5 L0,0 L16,0 L16,5 L15,5 Z M1,1 L15,1 L15,4 L1,4 L1,1 Z M2,5 L14,5 L14,13 L2,13 L2,5 Z M5.50473881,6 L10.4952612,6 C11.3263055,6 12,6.66579723 12,7.5 C12,8.32842712 11.3316845,9 10.4952612,9 L5.50473881,9 C4.67369451,9 4,8.33420277 4,7.5 C4,6.67157288 4.66831553,6 5.50473881,6 Z M5.50473881,8 L10.4952612,8 C10.7776946,8 11,7.77784613 11,7.5 C11,7.22138318 10.7773252,7 10.4952612,7 L5.50473881,7 C5.22230542,7 5,7.22215387 5,7.5 C5,7.77861682 5.22267481,8 5.50473881,8 Z"></path>
</svg>
