<?xml version="1.0" encoding="UTF-8"?>
<svg viewBox="0 0 16 16" version="1.1" xmlns="http://www.w3.org/2000/svg" xmlns:xlink="http://www.w3.org/1999/xlink">
    <title>Zoom Out</title>
    <path d="M16,15.293 L10.579,9.872 C11.464,8.827 12,7.477 12,6 C12,2.686 9.314,0 6,0 C2.686,0 0,2.686 0,6 C0,9.314 2.686,12 6,12 C7.477,12 8.827,11.464 9.872,10.579 L15.293,16 L16,15.293 Z M1.091,6 C1.091,3.293 3.293,1.091 6,1.091 C8.707,1.091 10.909,3.293 10.909,6 C10.909,8.707 8.707,10.909 6,10.909 C3.293,10.909 1.091,8.707 1.091,6 Z M3,5 L9,5 L9,7 L3,7 L3,5 Z"></path>
</svg>
