<?xml version="1.0" encoding="UTF-8" standalone="no"?>
<svg viewBox="0 0 13 16" version="1.1" xmlns="http://www.w3.org/2000/svg" xmlns:xlink="http://www.w3.org/1999/xlink">
    <title>Flag</title>
    <path d="M12,7.3242 C11.451,7.1362 10.784,7.0002 10,7.0002 C9.066,7.0002 8.301,7.3032 7.626,7.5712 C7.046,7.8012 6.546,8.0002 6,8.0002 C5.01,8.0002 4.348,7.7102 4,7.5022 L4,1.6862 C4.542,1.8682 5.208,2.0002 6,2.0002 C6.926,2.0002 7.683,1.6982 8.35,1.4322 C8.933,1.2002 9.436,1.0002 10,1.0002 C10.977,1.0002 11.645,1.2922 12,1.5032 L12,7.3242 Z M10,0.0002 C8.495,0.0002 7.476,1.0002 6,1.0002 C4.703,1.0002 3.83,0.5832 3.375,0.2872 C3.333,0.2612 3.289,0.2482 3.245,0.2482 C3.118,0.2482 3,0.3532 3,0.4982 L3,1.0002 L3,8.0002 L3,14.0002 L4,14.0002 L4,8.6102 C4.488,8.8182 5.147,9.0002 6,9.0002 C7.476,9.0002 8.517,8.0002 10,8.0002 C11.268,8.0002 12.161,8.4282 12.627,8.7242 C12.668,8.7502 12.711,8.7622 12.754,8.7622 C12.882,8.7622 13,8.6572 13,8.5122 L13,1.0002 C13,1.0002 11.98,0.0002 10,0.0002 Z M5,12.1998 L5,13.2388 C5.656,13.4718 6,13.8178 6,13.9998 C6,14.2898 5.124,14.9998 3.5,14.9998 C1.876,14.9998 1,14.2898 1,13.9998 C1,13.8178 1.344,13.4718 2,13.2388 L2,12.1998 C0.821,12.5218 0,13.2038 0,13.9998 C0,15.1048 1.567,15.9998 3.5,15.9998 C5.433,15.9998 7,15.1048 7,13.9998 C7,13.2038 6.179,12.5218 5,12.1998 Z"></path>
</svg>
