<?xml version="1.0" encoding="UTF-8" standalone="no"?>
<svg viewBox="0 0 12 16" version="1.1" xmlns="http://www.w3.org/2000/svg" xmlns:xlink="http://www.w3.org/1999/xlink">
    <title>Sand Clock (solid)</title>
    <path d="M7.6407,9.3382 C8.4377,9.6872 9.0727,10.2802 9.4917,11.0002 L2.5917,11.0002 C3.0107,10.2802 3.6457,9.6872 4.4427,9.3382 L5.0417,9.0762 L5.0417,8.4222 L5.0417,7.5782 L5.0417,6.9242 L4.4427,6.6622 C2.9837,6.0232 2.0417,4.5862 2.0417,3.0002 L2.0417,1.0002 L10.0417,1.0002 L10.0417,3.0002 C10.0417,4.5862 9.0997,6.0232 7.6407,6.6622 L7.0417,6.9242 L7.0417,7.5782 L7.0417,8.4222 L7.0417,9.0762 L7.6407,9.3382 Z M11.0417,1.0002 L11.0417,1.0002 C11.5939847,1.0002 12.0417,0.547013965 12.0417,0.0002 L12.0417,0.0002 L11.0417,0.0002 L1.0417,0.0002 L-0.0003,0.0002 L-0.0003,0.0002 C-0.0003,0.55248475 0.44764902,1.0002 0.996926562,1.0002 L1.0417,1.0002 L1.0417,3.0002 C1.0417,5.0492 2.2777,6.8052 4.0417,7.5782 L4.0417,8.4222 C2.2777,9.1942 1.0417,10.9512 1.0417,13.0002 L1.0417,15.0002 L1.0417,15.0002 C0.48941525,15.0002 0.0417,15.453386 0.0417,16.0002 L0.0417,16.0002 L1.0417,16.0002 L11.0417,16.0002 L12.0417,16.0002 L12.0417,16.0002 C12.0417,15.4479153 11.588514,15.0002 11.0417,15.0002 L11.0417,15.0002 L11.0417,13.0002 C11.0417,10.9512 9.8057,9.1942 8.0417,8.4222 L8.0417,7.5782 C9.8057,6.8052 11.0417,5.0492 11.0417,3.0002 L11.0417,1.0002 Z"></path>
</svg>
