<?xml version="1.0" encoding="UTF-8" standalone="no"?>
<svg viewBox="0 0 16 16" version="1.1" xmlns="http://www.w3.org/2000/svg" xmlns:xlink="http://www.w3.org/1999/xlink">
    <title>Search</title>
    <path d="M1.0909,6 C1.0909,3.293 3.2929,1.091 5.9999,1.091 C8.7069,1.091 10.9089,3.293 10.9089,6 C10.9089,8.707 8.7069,10.909 5.9999,10.909 C3.2929,10.909 1.0909,8.707 1.0909,6 L1.0909,6 Z M15.9999,15.293 L10.5789,9.872 C11.4639,8.827 11.9999,7.477 11.9999,6 C11.9999,2.686 9.3139,0 5.9999,0 C2.6859,0 -0.0001,2.686 -0.0001,6 C-0.0001,9.314 2.6859,12 5.9999,12 C7.4769,12 8.8269,11.464 9.8719,10.579 L15.2929,16 L15.9999,15.293 Z"></path>
</svg>
