<svg xmlns="http://www.w3.org/2000/svg"><symbol viewBox="0 0 16 16" id="icon-activity-solid"><title>Activity (solid)</title>  <path d="M2,0 C0.895,0 0,0.895 0,2 C0,3.105 0.895,4 2,4 C3.105,4 4,3.105 4,2 C4,0.895 3.105,0 2,0 Z M2,6 C0.895,6 0,6.895 0,8 C0,9.105 0.895,10 2,10 C3.105,10 4,9.105 4,8 C4,6.895 3.105,6 2,6 Z M2,12 C0.895,12 0,12.895 0,14 C0,15.105 0.895,16 2,16 C3.105,16 4,15.105 4,14 C4,12.895 3.105,12 2,12 Z M6,3 L15,3 L15,1 L6,1 L6,3 Z M6,9 L15,9 L15,7 L6,7 L6,9 Z M6,15 L15,15 L15,13 L6,13 L6,15 Z"/> </symbol><symbol viewBox="0 0 15 16" id="icon-activity"><title>Activity</title>  <path d="M2,0 C0.895,0 0,0.895 0,2 C0,3.105 0.895,4 2,4 C3.105,4 4,3.105 4,2 C4,0.895 3.105,0 2,0 L2,0 Z M2,1 C2.551,1 3,1.449 3,2 C3,2.551 2.551,3 2,3 C1.449,3 1,2.551 1,2 C1,1.449 1.449,1 2,1 Z M2,6 C0.895,6 0,6.895 0,8 C0,9.105 0.895,10 2,10 C3.105,10 4,9.105 4,8 C4,6.895 3.105,6 2,6 Z M2,7 C2.551,7 3,7.449 3,8 C3,8.551 2.551,9 2,9 C1.449,9 1,8.551 1,8 C1,7.449 1.449,7 2,7 Z M2,12 C0.895,12 0,12.895 0,14 C0,15.105 0.895,16 2,16 C3.105,16 4,15.105 4,14 C4,12.895 3.105,12 2,12 Z M2,13 C2.551,13 3,13.449 3,14 C3,14.551 2.551,15 2,15 C1.449,15 1,14.551 1,14 C1,13.449 1.449,13 2,13 Z M6,3 L15,3 L15,1 L6,1 L6,3 Z M6,9 L15,9 L15,7 L6,7 L6,9 Z M6,15 L15,15 L15,13 L6,13 L6,15 Z"/> </symbol><symbol viewBox="0 0 16 16" id="icon-add-solid"><title>Add (solid)</title>  <path d="M9,7 L9,3 L7,3 L7,7 L3,7 L3,9 L7,9 L7,13 L9,13 L9,9 L13,9 L13,7 L9,7 Z M0,8 C0,3.581722 3.581722,0 8,0 C12.418278,0 16,3.581722 16,8 C16,12.418278 12.418278,16 8,16 C3.581722,16 0,12.418278 0,8 Z"/> </symbol><symbol viewBox="0 0 16 16" id="icon-add"><title>Add</title>  <path d="M15,8 C15,4.13400675 11.8659932,1 8,1 C4.13400675,1 1,4.13400675 1,8 C1,11.8659932 4.13400675,15 8,15 C11.8659932,15 15,11.8659932 15,8 Z M9,7 L9,3 L7,3 L7,7 L3,7 L3,9 L7,9 L7,13 L9,13 L9,9 L13,9 L13,7 L9,7 Z M0,8 C0,3.581722 3.581722,0 8,0 C12.418278,0 16,3.581722 16,8 C16,12.418278 12.418278,16 8,16 C3.581722,16 0,12.418278 0,8 Z"/> </symbol><symbol viewBox="0 0 16 16" id="icon-archive-solid"><title>Archive (solid)</title>  <path d="M15,6 L15,15 L1,15 L1,6 L0,6 L0,1 L16,1 L16,6 L15,6 Z M5.50473881,7 L10.4952612,7 C11.3263055,7 12,7.66579723 12,8.5 C12,9.32842712 11.3316845,10 10.4952612,10 L5.50473881,10 C4.67369451,10 4,9.33420277 4,8.5 C4,7.67157288 4.66831553,7 5.50473881,7 Z M5.50473881,9 L10.4952612,9 C10.7776946,9 11,8.77784613 11,8.5 C11,8.22138318 10.7773252,8 10.4952612,8 L5.50473881,8 C5.22230542,8 5,8.22215387 5,8.5 C5,8.77861682 5.22267481,9 5.50473881,9 Z"/> </symbol><symbol viewBox="0 0 16 16" id="icon-archive"><title>Archive</title>   <path d="M15,5 L15,14 L1,14 L1,5 L0,5 L0,0 L16,0 L16,5 L15,5 Z M1,1 L15,1 L15,4 L1,4 L1,1 Z M2,5 L14,5 L14,13 L2,13 L2,5 Z M5.50473881,6 L10.4952612,6 C11.3263055,6 12,6.66579723 12,7.5 C12,8.32842712 11.3316845,9 10.4952612,9 L5.50473881,9 C4.67369451,9 4,8.33420277 4,7.5 C4,6.67157288 4.66831553,6 5.50473881,6 Z M5.50473881,8 L10.4952612,8 C10.7776946,8 11,7.77784613 11,7.5 C11,7.22138318 10.7773252,7 10.4952612,7 L5.50473881,7 C5.22230542,7 5,7.22215387 5,7.5 C5,7.77861682 5.22267481,8 5.50473881,8 Z"/> </symbol><symbol viewBox="0 0 8 16" id="icon-arrow-down"><title>Arrow Down</title>  <path d="M3,6 L0,6 L4,2 L8,6 L5,6 L5,14 L3,14 L3,6 Z" transform="translate(4.000000, 8.000000) scale(1, -1) translate(-4.000000, -8.000000) "/> </symbol><symbol viewBox="0 0 14 16" id="icon-arrow-left-right"><title>Arrow Left Right</title>  <path d="M4,1 L0,5 L4,9 L4,1 Z M12,4 L4,4 L4,6 L12,6 L12,4 Z M10,7 L14,11 L10,15 L10,7 Z M2,10 L10,10 L10,12 L2,12 L2,10 Z"/> </symbol><symbol viewBox="0 0 12 16" id="icon-arrow-left"><title>Arrow Left</title>  <path d="M8,4 L12,8 L8,12 L8,4 Z M0,7 L8,7 L8,9 L0,9 L0,7 Z" transform="translate(6.000000, 8.000000) scale(-1, 1) translate(-6.000000, -8.000000) "/> </symbol><symbol viewBox="0 0 12 16" id="icon-arrow-right"><title>Arrow Right</title>  <path d="M8,4 L12,8 L8,12 L8,4 Z M0,7 L8,7 L8,9 L0,9 L0,7 Z"/> </symbol><symbol viewBox="0 0 14 16" id="icon-arrow-up-down"><title>Arrow Up Down</title>  <path d="M14,5 L10,1 L6,5 L14,5 L14,5 Z M11,13 L11,5 L9,5 L9,13 L11,13 L11,13 Z M8,11 L4,15 L0,11 L8,11 L8,11 Z M5,3 L5,11 L3,11 L3,3 L5,3 L5,3 Z"/> </symbol><symbol viewBox="0 0 8 16" id="icon-arrow-up"><title>Arrow Up</title>  <path d="M3,6 L0,6 L4,2 L8,6 L5,6 L5,14 L3,14 L3,6 Z"/> </symbol><symbol viewBox="0 0 16 16" id="icon-attention-solid"><title>Attention (solid)</title>  <path d="M8,0 C3.582,0 0,3.582 0,8 C0,12.418 3.582,16 8,16 C12.418,16 16,12.418 16,8 C16,3.582 12.418,0 8,0 Z M9,12 C9,12.552 8.552,13 8,13 C7.448,13 7,12.552 7,12 C7,11.448 7.448,11 8,11 C8.552,11 9,11.448 9,12 Z M8.5,10 L7.5,10 L7,3 L9,3 L8.5,10 Z"/> </symbol><symbol viewBox="0 0 16 16" id="icon-attention"><title>Attention</title>  <path d="M8,0 C3.582,0 0,3.582 0,8 C0,12.418 3.582,16 8,16 C12.418,16 16,12.418 16,8 C16,3.582 12.418,0 8,0 M8,1 C11.86,1 15,4.14 15,8 C15,11.86 11.86,15 8,15 C4.14,15 1,11.86 1,8 C1,4.14 4.14,1 8,1 Z M9,12 C9,12.552 8.552,13 8,13 C7.448,13 7,12.552 7,12 C7,11.448 7.448,11 8,11 C8.552,11 9,11.448 9,12 Z M8.5,10 L7.5,10 L7,3 L9,3 L8.5,10 Z"/> </symbol><symbol viewBox="0 0 15 16" id="icon-bar-chart"><title>Bar Chart</title>  <path d="M0,-0.0002 L0,14.9998 L0,15.9998 L1,15.9998 L15,15.9998 L15,14.9998 L1,14.9998 L1,-0.0002 L0,-0.0002 Z M3,14 L5,14 L5,5 L3,5 L3,14 Z M7,14 L9,14 L9,3 L7,3 L7,14 Z M11,14 L13,14 L13,1 L11,1 L11,14 Z"/> </symbol><symbol viewBox="0 0 16 16" id="icon-bell-solid"><title>Bell (solid)</title>  <path d="M5.18,14 L0,14 L0,11.98 C0,11.43 0.45,10.98 1,10.98 C2.11,10.98 3,10.09 3,8.98 L3,5 C3,3.14 4.28,1.58 6.01,1.14 L6.34,0.76 C6.76,0.28 7.37,0 8,0 C8.64,0 9.24,0.27 9.66,0.75 L10.01,1.14 C11.73,1.59 13,3.14 13,5 L13,8.98 C13,9.54 13.22,10.04 13.58,10.4 C13.94,10.76 14.44,10.98 15,10.98 C15.55,10.98 16,11.43 16,11.98 L16,14 L10.82,14 C10.42,15.17 9.31,16 8,16 C6.69,16 5.58,15.17 5.18,14 Z M6.27,14 L9.73,14 C9.38,14.6 8.74,15 8,15 C7.26,15 6.62,14.6 6.27,14 Z"/> </symbol><symbol viewBox="0 0 16 16" id="icon-bell"><title>Bell</title>  <path d="M15,13 L1,13 L1,11.98 C2.66,11.98 4,10.64 4,8.98 L4,5 C4,3.64 4.93,2.45 6.26,2.11 L6.56,2.03 L6.76,1.8 L7.1,1.41 C7.32,1.15 7.66,1 8,1 C8.35,1 8.68,1.15 8.91,1.41 L9.26,1.81 L9.46,2.03 L9.75,2.11 C11.08,2.46 12,3.65 12,5 L12,8.98 C12,10.64 13.35,11.98 15,11.98 L15,13 Z M5.18,14 L0,14 L0,11.98 C0,11.43 0.45,10.98 1,10.98 C2.11,10.98 3,10.09 3,8.98 L3,5 C3,3.14 4.28,1.58 6.01,1.14 L6.34,0.76 C6.76,0.28 7.37,0 8,0 C8.64,0 9.24,0.27 9.66,0.75 L10.01,1.14 C11.73,1.59 13,3.14 13,5 L13,8.98 C13,9.54 13.22,10.04 13.58,10.4 C13.94,10.76 14.44,10.98 15,10.98 C15.55,10.98 16,11.43 16,11.98 L16,14 L10.82,14 C10.42,15.17 9.31,16 8,16 C6.69,16 5.58,15.17 5.18,14 Z M6.27,14 L9.73,14 C9.38,14.6 8.74,15 8,15 C7.26,15 6.62,14.6 6.27,14 Z"/> </symbol><symbol viewBox="0 0 12 16" id="icon-bold"><title>Bold</title>  <path d="M0,0 L4.86798965,0 C7.12626956,0 8.75826359,0.321018222 9.76402071,0.963064295 C10.7697778,1.60511037 11.2726488,2.61923611 11.2726488,4.00547196 C11.2726488,4.93935715 11.0258869,5.71636717 10.5323555,6.33652531 C10.0388241,6.95668345 9.3284487,7.34701242 8.40120794,7.50752394 L8.40120794,7.61696306 C9.55278114,7.82854643 10.3996234,8.24623491 10.9417601,8.87004104 C11.4838969,9.49384717 11.7549612,10.338344 11.7549612,11.4035568 C11.7549612,12.8408645 11.2408737,13.9662522 10.2126833,14.7797538 C9.18449299,15.5932553 7.75439513,16 5.92234685,16 L0,16 L0,0 Z M2.68075928,6.61012312 L5.26056946,6.61012312 C6.38223167,6.61012312 7.2010328,6.43684624 7.71699741,6.09028728 C8.23296203,5.74372832 8.49094047,5.15458692 8.49094047,4.32284542 C8.49094047,3.57135967 8.21239853,3.02781746 7.6553063,2.69220246 C7.09821407,2.35658747 6.21398362,2.18878249 5.00258844,2.18878249 L2.68075928,2.18878249 L2.68075928,6.61012312 Z M2.68075928,8.73324213 L2.68075928,13.8002736 L5.52976704,13.8002736 C6.65142925,13.8002736 7.49827151,13.5905174 8.07031924,13.1709986 C8.64236697,12.7514799 8.92838654,12.0893798 8.92838654,11.1846785 C8.92838654,10.352937 8.63675874,9.73643611 8.05349439,9.33515732 C7.47023004,8.93387852 6.58413019,8.73324213 5.39516825,8.73324213 L2.68075928,8.73324213 Z"/> </symbol><symbol viewBox="0 0 16 16" id="icon-briefcase-solid"><title>Briefcase solid</title>  <path d="M4.00004081,4 L1.00087166,4 C0.444630861,4 0,4.44573523 0,4.9955775 L0,14.0044225 C0,14.555163 0.448105505,15 1.00087166,15 L14.9991283,15 C15.5553691,15 16,14.5542648 16,14.0044225 L16,4.9955775 C16,4.44483697 15.5518945,4 14.9991283,4 L11.9999573,4 C11.9999858,3.99688039 12,3.99375741 12,3.9906311 L12,2.0093689 C12,1.44335318 11.5536144,1 11.0029699,1 L4.99703014,1 C4.45303631,1 4,1.45190985 4,2.0093689 L4,3.9906311 C4,3.99375783 4.00001362,3.99688081 4.00004081,4 Z M5.99077797,8 L10.009222,8 C10.5564136,8 11,8.44266033 11,8.99895656 L11,10.0010434 C11,10.5527519 10.5490248,11 10.009222,11 L5.99077797,11 C5.44358641,11 5,10.5573397 5,10.0010434 L5,8.99895656 C5,8.44724809 5.45097518,8 5.99077797,8 Z M6,10.0010434 C6,10.0045963 10.009222,10 10.009222,10 C9.99860066,10 10,8.99895656 10,8.99895656 C10,8.99540369 5.99077797,9 5.99077797,9 C6.00139934,9 6,10.0010434 6,10.0010434 Z M5,3.9906311 C5,4.00284038 4.99717781,4 4.99703014,4 L11.0029699,4 C10.9952443,4 11,3.99520756 11,3.9906311 L11,2.0093689 C11,1.99715962 11.0028222,2 11.0029699,2 L4.99703014,2 C5.00475567,2 5,2.00479244 5,2.0093689 L5,3.9906311 Z M1,9 L5,9 L5,10 L1,10 L1,9 Z M11,9 L15,9 L15,10 L11,10 L11,9 Z"/> </symbol><symbol viewBox="0 0 16 16" id="icon-briefcase"><title>Briefcase</title>  <path d="M4.00004081,4 L1.00087166,4 C0.444630861,4 0,4.44573523 0,4.9955775 L0,14.0044225 C0,14.555163 0.448105505,15 1.00087166,15 L14.9991283,15 C15.5553691,15 16,14.5542648 16,14.0044225 L16,4.9955775 C16,4.44483697 15.5518945,4 14.9991283,4 L11.9999573,4 C11.9999858,3.99688039 12,3.99375741 12,3.9906311 L12,2.0093689 C12,1.44335318 11.5536144,1 11.0029699,1 L4.99703014,1 C4.45303631,1 4,1.45190985 4,2.0093689 L4,3.9906311 C4,3.99375783 4.00001362,3.99688081 4.00004081,4 Z M11.061754,4.99823495 C13.2881873,4.99756713 15,4.99669145 15,4.9955775 C15,4.9955775 15.0025331,14 14.9991283,14 C14.9991283,14 1,14.0012369 1,14.0044225 C1,14.0044225 0.997466906,5 1.00087166,5 C1.00087166,5 2.72618475,4.99984756 4.9654282,4.99951188 C4.97592213,4.99983654 4.98645691,5 4.99703014,5 L11.0029699,5 C11.0226899,5 11.0422903,4.99940615 11.061754,4.99823495 Z M5.99077797,8 L10.009222,8 C10.5564136,8 11,8.44266033 11,8.99895656 L11,10.0010434 C11,10.5527519 10.5490248,11 10.009222,11 L5.99077797,11 C5.44358641,11 5,10.5573397 5,10.0010434 L5,8.99895656 C5,8.44724809 5.45097518,8 5.99077797,8 Z M6,10.0010434 C6,10.0045963 10.009222,10 10.009222,10 C9.99860066,10 10,8.99895656 10,8.99895656 C10,8.99540369 5.99077797,9 5.99077797,9 C6.00139934,9 6,10.0010434 6,10.0010434 Z M5,3.9906311 C5,4.00284038 4.99717781,4 4.99703014,4 L11.0029699,4 C10.9952443,4 11,3.99520756 11,3.9906311 L11,2.0093689 C11,1.99715962 11.0028222,2 11.0029699,2 L4.99703014,2 C5.00475567,2 5,2.00479244 5,2.0093689 L5,3.9906311 Z M1,9 L5,9 L5,10 L1,10 L1,9 Z M11,9 L15,9 L15,10 L11,10 L11,9 Z"/> </symbol><symbol viewBox="0 0 12 16" id="icon-bullet-point"><title>Bullet Point</title>  <path d="M2,13 C2,13.59 2,14 1.41,14 L0.59,14 C0,14 0,13.59 0,13 C0,12.41 0,12 0.59,12 L1.4,12 C1.99,12 1.99,12.41 1.99,13 L2,13 Z M4.59,4 L11.4,4 C11.99,4 11.99,3.59 11.99,3 C11.99,2.41 11.99,2 11.4,2 L4.59,2 C4,2 4,2.41 4,3 C4,3.59 4,4 4.59,4 L4.59,4 Z M1.41,7 L0.59,7 C0,7 0,7.41 0,8 C0,8.59 0,9 0.59,9 L1.4,9 C1.99,9 1.99,8.59 1.99,8 C1.99,7.41 1.99,7 1.4,7 L1.41,7 Z M1.41,2 L0.59,2 C0,2 0,2.41 0,3 C0,3.59 0,4 0.59,4 L1.4,4 C1.99,4 1.99,3.59 1.99,3 C1.99,2.41 1.99,2 1.4,2 L1.41,2 Z M11.41,7 L4.59,7 C4,7 4,7.41 4,8 C4,8.59 4,9 4.59,9 L11.4,9 C11.99,9 11.99,8.59 11.99,8 C11.99,7.41 11.99,7 11.4,7 L11.41,7 Z M11.41,12 L4.59,12 C4,12 4,12.41 4,13 C4,13.59 4,14 4.59,14 L11.4,14 C11.99,14 11.99,13.59 11.99,13 C11.99,12.41 11.99,12 11.4,12 L11.41,12 Z"/> </symbol><symbol viewBox="0 0 15 16" id="icon-calendar-solid"><title>Calendar (solid)</title>  <path d="M14,3.0006 L14.0006,3.0006 L14.0006,5 L0.9996,5 L0.9996,3.0006 L1,3.0006 L1,5 L2,5 L2,3 L1.9996,3 L1.9996,1.9996 L-0.0004,1.9996 L-0.0004,15.9996 L15.0006,15.9996 L15.0006,1.9996 L12.9996,1.9996 L12.9996,3.0006 L13,3.0006 L13,5 L14,5 L14,3.0006 Z M0.9996,6 L14.0006,6 L14.0006,15.0006 L0.9996,15.0006 L0.9996,6 Z M4,8 L5.001,8 L5.001,7 L4,7 L4,8 Z M6,8 L7,8 L7,7 L6,7 L6,8 Z M8,8 L9,8 L9,7 L8,7 L8,8 Z M10,8 L11,8 L11,7 L10,7 L10,8 Z M12,8 L13,8 L13,7 L12,7 L12,8 Z M2,10 L3,10 L3,9 L2,9 L2,10 Z M4,10 L5.001,10 L5.001,9 L4,9 L4,10 Z M6,10 L7,10 L7,9 L6,9 L6,10 Z M8,10 L9,10 L9,9 L8,9 L8,10 Z M10,10 L11,10 L11,9 L10,9 L10,10 Z M12,10 L13,10 L13,9 L12,9 L12,10 Z M2,12 L3,12 L3,10.999 L2,10.999 L2,12 Z M4,12 L5.001,12 L5.001,10.999 L4,10.999 L4,12 Z M6,12 L7,12 L7,10.999 L6,10.999 L6,12 Z M8,12 L9,12 L9,10.999 L8,10.999 L8,12 Z M10,12 L11,12 L11,10.999 L10,10.999 L10,12 Z M12,12 L13,12 L13,10.999 L12,10.999 L12,12 Z M2,14 L3,14 L3,13 L2,13 L2,14 Z M4,14 L5.001,14 L5.001,13 L4,13 L4,14 Z M6,14 L7,14 L7,13 L6,13 L6,14 Z M8,14 L9,14 L9,13 L8,13 L8,14 Z M10,14 L11,14 L11,13 L10,13 L10,14 Z M5,3 L9.999,3 L9.999,1.999 L5,1.999 L5,3 Z M3,2.999 L4,2.999 L4,-0.001 L3,-0.001 L3,2.999 Z M11,2.999 L12,2.999 L12,-0.001 L11,-0.001 L11,2.999 Z M2,4 L5,4 L5,5 L2,5 L2,4 Z M10,4 L13,4 L13,5 L10,5 L10,4 Z M5,3 L10,3 L10,5 L5,5 L5,3 Z"/> </symbol><symbol viewBox="0 0 15 16" id="icon-calendar"><title>Calendar</title>  <path d="M0.9996,6 L14.0006,6 L14.0006,15.0006 L0.9996,15.0006 L0.9996,6 Z M14.0006,5 L0.9996,5 L0.9996,3.0006 L1.9996,3.0006 L1.9996,1.9996 L-0.0004,1.9996 L-0.0004,15.9996 L15.0006,15.9996 L15.0006,1.9996 L12.9996,1.9996 L12.9996,3.0006 L14.0006,3.0006 L14.0006,5 Z M4,8 L5.001,8 L5.001,7 L4,7 L4,8 Z M6,8 L7,8 L7,7 L6,7 L6,8 Z M8,8 L9,8 L9,7 L8,7 L8,8 Z M10,8 L11,8 L11,7 L10,7 L10,8 Z M12,8 L13,8 L13,7 L12,7 L12,8 Z M2,10 L3,10 L3,9 L2,9 L2,10 Z M4,10 L5.001,10 L5.001,9 L4,9 L4,10 Z M6,10 L7,10 L7,9 L6,9 L6,10 Z M8,10 L9,10 L9,9 L8,9 L8,10 Z M10,10 L11,10 L11,9 L10,9 L10,10 Z M12,10 L13,10 L13,9 L12,9 L12,10 Z M2,12 L3,12 L3,10.999 L2,10.999 L2,12 Z M4,12 L5.001,12 L5.001,10.999 L4,10.999 L4,12 Z M6,12 L7,12 L7,10.999 L6,10.999 L6,12 Z M8,12 L9,12 L9,10.999 L8,10.999 L8,12 Z M10,12 L11,12 L11,10.999 L10,10.999 L10,12 Z M12,12 L13,12 L13,10.999 L12,10.999 L12,12 Z M2,14 L3,14 L3,13 L2,13 L2,14 Z M4,14 L5.001,14 L5.001,13 L4,13 L4,14 Z M6,14 L7,14 L7,13 L6,13 L6,14 Z M8,14 L9,14 L9,13 L8,13 L8,14 Z M10,14 L11,14 L11,13 L10,13 L10,14 Z M5,3 L9.999,3 L9.999,1.999 L5,1.999 L5,3 Z M3,4 L4,4 L4,-0.001 L3,-0.001 L3,4 Z M11,4 L12,4 L12,-0.001 L11,-0.001 L11,4 Z"/> </symbol><symbol viewBox="0 0 12 16" id="icon-checkmark"><title>Checkmark</title>  <polygon points="12 5.5 4 13.5 0 9.5 1.5 8 4 10.5 10.5 4"/> </symbol><symbol viewBox="0 0 10 16" id="icon-chevron-down"><title>Chevron Down</title>  <polygon points="5 11.5 0 6.5 1.5 5 5 8.75 8.5 5 10 6.5"/> </symbol><symbol viewBox="0 0 14 16" id="icon-chevron-left-right"><title>Chevron Left Right</title>  <path d="M14,8 L9,13 L7.5,11.5 L11.25,8 L7.5,4.5 L9,3 L14,8 Z M5,3 L6.5,4.5 L2.75,8 L6.5,11.5 L5,13 L0,8 L5,3 Z"/> </symbol><symbol viewBox="0 0 8 16" id="icon-chevron-left"><title>Chevron Left</title>  <polygon points="5.5 3 7 4.5 3.25 8 7 11.5 5.5 13 0.5 8"/> </symbol><symbol viewBox="0 0 8 16" id="icon-chevron-right"><title>Chevron Right</title>  <polygon points="7.5 8 2.5 13 1 11.5 4.75 8 1 4.5 2.5 3"/> </symbol><symbol viewBox="0 0 10 16" id="icon-chevron-up-down"><title>Chevron Up Down</title>  <path d="M10,6 L8.5,7.5 L5,3.75 L1.5,7.5 L0,6 L5,1 L10,6 Z M5,15 L0,10 L1.5,8.5 L5,12.25 L8.5,8.5 L10,10 L5,15 Z"/> </symbol><symbol viewBox="0 0 10 16" id="icon-chevron-up"><title>Chevron Up</title>  <polygon points="10 10 8.5 11.5 5 7.75 1.5 11.5 0 10 5 5"/> </symbol><symbol viewBox="0 0 16 16" id="icon-clipboard-solid"><title>Clipboard (solid)</title>  <path d="M10,4 L6,4 L6,3 L6.008,3 L7.008,3 L7.008,2 L7.013,1 L8.996,1 L9,1.004 L9,2 L9,3 L10,3 L10,4 L10,4 Z M5,3 L5,2 L6.008,2 L6.008,1.004 C6.008,0.45 6.458,0 7.013,0 L8.996,0 C9.55,0 10,0.45 10,1.004 L10,2 L11,2 L11,3 L14,3 L14,16 L2,16 L2,3 L5,3 Z M4,9 L12,9 L12,8 L4,8 L4,9 Z M4,12 L12,12 L12,11 L4,11 L4,12 Z"/> </symbol><symbol viewBox="0 0 16 16" id="icon-clipboard"><title>Clipboard</title>  <path d="M10,4 L6,4 L6,3 L6.008,3 L7.008,3 L7.008,2 L7.013,1 L8.996,1 L9,1.004 L9,2 L9,3 L10,3 L10,4 L10,4 Z M11,2 L10,2 L10,1.004 C10,0.45 9.55,0 8.996,0 L7.013,0 C6.458,0 6.008,0.45 6.008,1.004 L6.008,2 L5,2 L5,5 L11,5 L11,2 Z M12,3 L12,4 L13,4 L13,15 L3,15 L3,4 L4,4 L4,3 L2,3 L2,16 L14,16 L14,3 L12,3 Z M4,9 L12,9 L12,8 L4,8 L4,9 Z M4,12 L12,12 L12,11 L4,11 L4,12 Z"/> </symbol><symbol viewBox="0 0 8 16" id="icon-clippie"><title>Clippie</title>  <path d="M8,3 L8,12 C8,14.21 6.21,16 4,16 C1.79,16 0,14.21 0,12 L0,3 C0,1.34 1.34,0 3,0 C4.66,0 6,1.34 6,3 L6,12 C6,13.1 5.1,14 4,14 C2.9,14 2,13.1 2,12 L2,4 L3,4 L3,12 C3,12.55 3.45,13 4,13 C4.55,13 5,12.55 5,12 L5,3 C5,1.9 4.1,1 3,1 C1.9,1 1,1.9 1,3 L1,12 C1,13.65 2.35,15 4,15 C5.65,15 7,13.65 7,12 L7,3 L8,3 Z"/> </symbol><symbol viewBox="0 0 16 16" id="icon-clock-solid"><title>Clock (solid)</title>  <path d="M8,0 C3.582,0 0,3.582 0,8 C0,12.418 3.582,16 8,16 C12.418,16 16,12.418 16,8 C16,3.582 12.418,0 8,0 Z M11.276,11.4473 L7,9.3083 L7,2.0003 L8,2.0003 L8,8.6913 L11.723,10.5523 L11.276,11.4473 Z"/> </symbol><symbol viewBox="0 0 16 16" id="icon-clock"><title>Clock</title>  <path d="M8,0 C3.582,0 0,3.582 0,8 C0,12.418 3.582,16 8,16 C12.418,16 16,12.418 16,8 C16,3.582 12.418,0 8,0 M8,1 C11.86,1 15,4.14 15,8 C15,11.86 11.86,15 8,15 C4.14,15 1,11.86 1,8 C1,4.14 4.14,1 8,1 Z M11.276,11.4473 L7,9.3083 L7,2.0003 L8,2.0003 L8,8.6913 L11.723,10.5523 L11.276,11.4473 Z"/> </symbol><symbol viewBox="0 0 16 16" id="icon-cloud-solid"><title>Cloud (solid)</title>  <path d="M6,3 C3.791,3 2,4.791 2,7 C2,7.061 2.015,7.118 2.018,7.178 C0.846,7.586 0,8.689 0,10 C0,11.657 1.343,13 3,13 L13,13 C14.657,13 16,11.657 16,10 C16,8.513 14.915,7.287 13.495,7.05 C13.495,7.033 13.5,7.017 13.5,7 C13.5,5.619 12.381,4.5 11,4.5 C10.419,4.5 9.891,4.706 9.466,5.039 C8.779,3.827 7.493,3 6,3 Z"/> </symbol><symbol viewBox="0 0 16 16" id="icon-cloud"><title>Cloud</title>  <path d="M6,3 C3.791,3 2,4.791 2,7 C2,7.061 2.015,7.118 2.018,7.178 C0.846,7.586 0,8.689 0,10 C0,11.657 1.343,13 3,13 L13,13 C14.657,13 16,11.657 16,10 C16,8.513 14.915,7.287 13.495,7.05 C13.495,7.033 13.5,7.017 13.5,7 C13.5,5.619 12.381,4.5 11,4.5 C10.419,4.5 9.891,4.706 9.466,5.039 C8.779,3.827 7.493,3 6,3 M6,4 C7.065,4 8.06,4.587 8.597,5.532 L9.169,6.542 L10.083,5.826 C10.273,5.677 10.586,5.5 11,5.5 C11.81,5.5 12.471,6.145 12.499,6.947 L12.497,6.966 L12.495,7.029 L12.477,7.894 L13.33,8.036 C14.298,8.198 15,9.024 15,10 C15,11.103 14.103,12 13,12 L3,12 C1.897,12 1,11.103 1,10 C1,9.158 1.541,8.403 2.347,8.122 L3.05,7.878 L3.017,7.134 C3.015,7.08 3.009,7.028 3,6.964 C3.019,5.326 4.358,4 6,4"/> </symbol><symbol viewBox="0 0 16 16" id="icon-cog-solid"><title>Cog (solid)</title>  <path d="M9,0 L7,0 C6.448,0 6,0.448 6,1 L6,2.349 C5.719,2.465 5.699,2.474 5.418,2.59 L4.464,1.636 C4.269,1.441 4.013,1.343 3.757,1.343 C3.501,1.343 3.245,1.441 3.05,1.636 L1.636,3.05 C1.245,3.441 1.245,4.074 1.636,4.464 L2.59,5.418 C2.474,5.699 2.465,5.72 2.349,6 L1,6 C0.448,6 0,6.448 0,7 L0,9 C0,9.552 0.448,10 1,10 L2.349,10 C2.465,10.281 2.474,10.301 2.59,10.582 L1.636,11.536 C1.246,11.926 1.245,12.559 1.636,12.95 L3.05,14.364 C3.245,14.559 3.501,14.657 3.757,14.657 C4.013,14.657 4.269,14.559 4.464,14.364 L5.418,13.41 C5.699,13.526 5.72,13.535 6,13.651 L6,15 C6,15.552 6.448,16 7,16 L9,16 C9.552,16 10,15.552 10,15 L10,13.651 C10.281,13.535 10.301,13.526 10.582,13.41 L11.536,14.364 C11.731,14.559 11.987,14.657 12.243,14.657 C12.499,14.657 12.755,14.559 12.95,14.364 L14.364,12.95 C14.755,12.559 14.754,11.926 14.364,11.536 L13.41,10.582 C13.526,10.301 13.535,10.28 13.651,10 L15,10 C15.552,10 16,9.552 16,9 L16,7 C16,6.448 15.552,6 15,6 L13.651,6 C13.535,5.719 13.526,5.699 13.41,5.418 L14.364,4.464 C14.755,4.074 14.755,3.441 14.364,3.05 L12.95,1.636 C12.755,1.441 12.499,1.343 12.243,1.343 C11.987,1.343 11.731,1.441 11.536,1.636 L10.582,2.59 C10.301,2.474 10.281,2.465 10,2.349 L10,1 C10,0.448 9.552,0 9,0 Z M8,6 C9.103,6 10,6.897 10,8 C10,9.103 9.103,10 8,10 C6.897,10 6,9.103 6,8 C6,6.897 6.897,6 8,6 Z"/> </symbol><symbol viewBox="0 0 16 16" id="icon-cog"><title>Cog</title>  <path d="M9,0 L7,0 C6.448,0 6,0.448 6,1 L6,2.349 C5.719,2.465 5.699,2.474 5.418,2.59 L4.464,1.636 C4.269,1.441 4.013,1.343 3.757,1.343 C3.501,1.343 3.245,1.441 3.05,1.636 L1.636,3.05 C1.245,3.441 1.245,4.074 1.636,4.464 L2.59,5.418 C2.474,5.699 2.465,5.72 2.349,6 L1,6 C0.448,6 0,6.448 0,7 L0,9 C0,9.552 0.448,10 1,10 L2.349,10 C2.465,10.281 2.474,10.301 2.59,10.582 L1.636,11.536 C1.246,11.926 1.245,12.559 1.636,12.95 L3.05,14.364 C3.245,14.559 3.501,14.657 3.757,14.657 C4.013,14.657 4.269,14.559 4.464,14.364 L5.418,13.41 C5.699,13.526 5.72,13.535 6,13.651 L6,15 C6,15.552 6.448,16 7,16 L9,16 C9.552,16 10,15.552 10,15 L10,13.651 C10.281,13.535 10.301,13.526 10.582,13.41 L11.536,14.364 C11.731,14.559 11.987,14.657 12.243,14.657 C12.499,14.657 12.755,14.559 12.95,14.364 L14.364,12.95 C14.755,12.559 14.754,11.926 14.364,11.536 L13.41,10.582 C13.526,10.301 13.535,10.28 13.651,10 L15,10 C15.552,10 16,9.552 16,9 L16,7 C16,6.448 15.552,6 15,6 L13.651,6 C13.535,5.719 13.526,5.699 13.41,5.418 L14.364,4.464 C14.755,4.074 14.755,3.441 14.364,3.05 L12.95,1.636 C12.755,1.441 12.499,1.343 12.243,1.343 C11.987,1.343 11.731,1.441 11.536,1.636 L10.582,2.59 C10.301,2.474 10.281,2.465 10,2.349 L10,1 C10,0.448 9.552,0 9,0 Z M9,1 L9,2.349 L9,3.017 L9.617,3.273 L9.908,3.393 L10.199,3.514 L10.816,3.769 L11.289,3.297 L12.243,2.343 L13.657,3.757 L12.703,4.711 L12.231,5.184 L12.486,5.801 L12.603,6.081 L12.727,6.383 L12.983,7 L13.651,7 L15,7 L15,9 L13.651,9 L12.982,9 L12.727,9.617 L12.605,9.911 L12.486,10.199 L12.23,10.816 L12.703,11.289 L13.657,12.243 L12.243,13.657 L11.289,12.703 L10.816,12.231 L10.199,12.486 L9.908,12.607 L9.617,12.727 L9,12.983 L9,13.651 L9,15 L7,15 L7,13.651 L7,12.983 L6.383,12.727 L5.954,12.549 L5.801,12.486 L5.184,12.23 L4.711,12.703 L3.757,13.657 L2.343,12.243 L3.297,11.289 L3.769,10.816 L3.514,10.199 L3.397,9.918 L3.273,9.617 L3.017,9 L2.349,9 L1,9 L1,7 L2.349,7 L3.018,7 L3.273,6.383 L3.394,6.092 L3.514,5.801 L3.77,5.184 L3.297,4.711 L2.343,3.757 L3.757,2.343 L4.711,3.297 L5.184,3.769 L5.801,3.514 L6.092,3.393 L6.383,3.273 L7,3.017 L7,2.349 L7,1 L9,1 Z M8,5 C6.343,5 5,6.343 5,8 C5,9.657 6.343,11 8,11 C9.657,11 11,9.657 11,8 C11,6.343 9.657,5 8,5 Z M8,6 C9.103,6 10,6.897 10,8 C10,9.103 9.103,10 8,10 C6.897,10 6,9.103 6,8 C6,6.897 6.897,6 8,6 Z"/> </symbol><symbol viewBox="0 0 12 16" id="icon-cross"><title>Cross</title>  <polygon points="9.485 3.00049 5.95 6.53549 2.414 3.00049 1 4.41449 4.535 7.94949 1 11.48549 2.414 12.89949 5.95 9.36449 9.485 12.89949 10.899 11.48549 7.364 7.94949 10.899 4.41449"/> </symbol><symbol viewBox="0 0 16 16" id="icon-discussion-solid"><title>Discussion (solid)</title>  <path d="M4,0 L4,8 L10,8 L13.574,11.574 C13.625,11.625 13.687,11.647 13.749,11.647 C13.877,11.647 14,11.548 14,11.397 L14,8 L16,8 L16,0 L4,0 Z M9,9 L9,11.353 L6,11.353 L5.586,11.353 L5.293,11.645 L3,13.938 L3,12.353 L3,11.353 L2,11.353 L1,11.353 L1,5.353 L3,5.353 L3,4.353 L0,4.353 L0,12.353 L2,12.353 L2,15.75 C2,15.9 2.123,16 2.251,16 C2.313,16 2.375,15.977 2.426,15.926 L6,12.353 L10,12.353 L10,9 L9,9 Z"/> </symbol><symbol viewBox="0 0 16 16" id="icon-discussion"><title>Discussion</title>  <path d="M4,0 L4,8 L10,8 L13.574,11.574 C13.625,11.625 13.687,11.647 13.749,11.647 C13.877,11.647 14,11.548 14,11.397 L14,8 L16,8 L16,0 L4,0 Z M5,1 L15,1 L15,7 L14,7 L13,7 L13,8 L13,9.586 L10.707,7.293 L10.414,7 L10,7 L5,7 L5,1 Z M9,9 L9,11.353 L6,11.353 L5.586,11.353 L5.293,11.645 L3,13.938 L3,12.353 L3,11.353 L2,11.353 L1,11.353 L1,5.353 L3,5.353 L3,4.353 L0,4.353 L0,12.353 L2,12.353 L2,15.75 C2,15.9 2.123,16 2.251,16 C2.313,16 2.375,15.977 2.426,15.926 L6,12.353 L10,12.353 L10,9 L9,9 Z"/> </symbol><symbol viewBox="0 0 12 16" id="icon-document-solid"><title>Document sodid</title>  <path d="M8,0 L12,4 L12,16 L0,16 L0,0 L8,0 Z M3,9 L9,9 L9,10 L3,10 L3,9 Z M3,6 L9,6 L9,7 L3,7 L3,6 Z M3,12 L9,12 L9,13 L3,13 L3,12 Z"/> </symbol><symbol viewBox="0 0 12 16" id="icon-document"><title>Document</title>  <path d="M8,0 L12,4 L12,16 L0,16 L0,0 L8,0 Z M1,1 L1,15 L11,15 L11,4.39587402 L7.60083008,1 L1,1 Z M3,12 L9,12 L9,13 L3,13 L3,12 Z M3,9 L9,9 L9,10 L3,10 L3,9 Z M3,6 L9,6 L9,7 L3,7 L3,6 Z"/> </symbol><symbol viewBox="0 0 12 16" id="icon-documents-solid"><title>Documents (solid)</title>  <path d="M1.9998,-0.0002 L1.9998,0.9998 L7.2928,0.9998 L10.9998,4.7068 L10.9998,13.9998 L11.9998,13.9998 L11.9998,4.2928 L7.7068,-0.0002 L1.9998,-0.0002 Z M0,1.9996 L0,15.9996 L10,15.9996 L10,5.0006 L7,1.9996 L0,1.9996 Z M2,13 L8,13 L8,12 L2,12 L2,13 Z M2,10 L8,10 L8,9 L2,9 L2,10 Z"/> </symbol><symbol viewBox="0 0 12 16" id="icon-documents"><title>Documents</title>  <path d="M0,1.9996 L0,15.9996 L10,15.9996 L10,5.0006 L7,1.9996 L0,1.9996 Z M1,3.0006 L6.586,3.0006 L9,5.4146 L9,15.0006 L1,15.0006 L1,3.0006 Z M1.9998,-0.0002 L1.9998,0.9998 L7.2928,0.9998 L10.9998,4.7068 L10.9998,13.9998 L11.9998,13.9998 L11.9998,4.2928 L7.7068,-0.0002 L1.9998,-0.0002 Z M2,13 L8,13 L8,12 L2,12 L2,13 Z M2,10 L8,10 L8,9 L2,9 L2,10 Z"/> </symbol><symbol viewBox="0 0 15 16" id="icon-dot-graph"><title>Dot Graph</title>  <path d="M0,-0.0002 L0,14.9998 L0,15.9998 L1,15.9998 L15,15.9998 L15,14.9998 L1,14.9998 L1,-0.0002 L0,-0.0002 Z M2,13 L3,13 L3,14 L2,14 L2,13 Z M4,12 L5,12 L5,13 L4,13 L4,12 Z M4,10 L5,10 L5,11 L4,11 L4,10 Z M6,11 L7,11 L7,12 L6,12 L6,11 Z M6,8 L7,8 L7,9 L6,9 L6,8 Z M8,8 L9,8 L9,9 L8,9 L8,8 Z M7,6 L8,6 L8,7 L7,7 L7,6 Z M9,5 L10,5 L10,6 L9,6 L9,5 Z M11,3 L12,3 L12,4 L11,4 L11,3 Z M13,2 L14,2 L14,3 L13,3 L13,2 Z"/> </symbol><symbol viewBox="0 0 12 16" id="icon-download-solid"><title>Download (solid)</title>  <path d="M5.0003,4 L5.0003,0 L7.0003,0 L7.0003,4 L12,4 L12,16 L0,16 L0,4 L5.0003,4 Z M5.0003,4 L5.0003,9 L2.9993,9 L6.0003,13.001 L9.0003,9 L7.0003,9 L7.0003,4 L5.0003,4 Z"/> </symbol><symbol viewBox="0 0 12 16" id="icon-download"><title>Download</title>  <path d="M8.0001,4.0003 L8.0001,5.0003 L11.0001,5.0003 L11.0001,15.0003 L1.0001,15.0003 L1.0001,5.0003 L3.9991,5.0003 L3.9991,4.0003 L0.0001,4.0003 L0.0001,16.0003 L12.0001,16.0003 L12.0001,4.0003 L8.0001,4.0003 Z M5.0004,-0.0002 L5.0004,8.9998 L2.9994,8.9998 L6.0004,13.0008 L9.0004,8.9998 L7.0004,8.9998 L7.0004,-0.0002 L5.0004,-0.0002 Z"/> </symbol><symbol viewBox="0 0 16 16" id="icon-edit-solid"><title>Edit (solid)</title>  <path d="M15.291,2.876 L12.708,0.293 C12.512,0.097 12.256,0 12,0 C11.743,0 11.487,0.097 11.291,0.293 L1,10.585 L0,15.585 L5,14.585 L15.291,4.293 C15.682,3.902 15.682,3.267 15.291,2.876 Z M1.898,11.19 L4.394,13.686 L1.274,14.31 L1.898,11.19 Z M13.146,5.024 L10.56,2.438 L11.998,1 L12,1 L12.001,1 L14.584,3.586 L13.146,5.024 Z"/> </symbol><symbol viewBox="0 0 16 16" id="icon-edit"><title>Edit</title>  <path d="M13.146,5.024 L10.56,2.438 L11.998,1 L12,1 L12.001,1 L14.584,3.586 L13.146,5.024 Z M1.898,11.19 L4.394,13.686 L1.274,14.31 L1.898,11.19 Z M2.56,10.438 L9.853,3.145 L12.439,5.731 L5.146,13.024 L2.56,10.438 Z M15.291,2.876 L12.708,0.293 C12.512,0.097 12.256,0 12,0 C11.743,0 11.487,0.097 11.291,0.293 L1,10.585 L0,15.585 L5,14.585 L15.291,4.293 C15.682,3.902 15.682,3.267 15.291,2.876 L15.291,2.876 Z"/> </symbol><symbol viewBox="0 0 16 16" id="icon-expand-solid"><title>Expand (solid)</title>  <path d="M0,0 L16,0 L16,16 L0,16 L0,0 Z M1,0.9998 L1,7.9998 L3.086,5.9138 L9.071,11.8998 L11.899,9.0708 L5.914,3.0858 L8,0.9998 L1,0.9998 Z M10,1 L14,1 L14,2 L10,2 L10,1 Z M14,1 L15,1 L15,15 L14,15 L14,1 Z M2,14 L14,14 L14,15 L2,15 L2,14 Z M1,10 L2,10 L2,15 L1,15 L1,10 Z"/> </symbol><symbol viewBox="0 0 16 16" id="icon-expand"><title>Expand</title>  <path d="M0,-0.0002 L0,6.9998 L2.086,4.9138 L8.071,10.8998 L10.899,8.0708 L4.914,2.0858 L7,-0.0002 L0,-0.0002 Z M9.0001,-0.0002 L9.0001,0.9998 L15.0001,0.9998 L15.0001,14.9998 L1.0001,14.9998 L1.0001,8.9998 L0.0001,8.9998 L0.0001,15.9998 L1.0001,15.9998 L16.0001,15.9998 L16.0001,-0.0002 L9.0001,-0.0002 Z"/> </symbol><symbol viewBox="0 0 16 16" id="icon-eye-solid"><title>Eye (solid)</title>  <path d="M8,3 C3.045,3 0,8 0,8 C0,8 3.045,13 8,13 C12.955,13 16,8 16,8 C16,8 12.955,3 8,3 Z M8,5 C6.343,5 5,6.343 5,8 C5,9.657 6.343,11 8,11 C9.657,11 11,9.657 11,8 C11,6.343 9.657,5 8,5 Z M8,6 C9.103,6 10,6.897 10,8 C10,9.103 9.103,10 8,10 C6.897,10 6,9.103 6,8 C6,6.897 6.897,6 8,6 Z"/> </symbol><symbol viewBox="0 0 16 16" id="icon-eye"><title>Eye</title>  <path d="M8,3 C3.045,3 0,8 0,8 C0,8 3.045,13 8,13 C12.955,13 16,8 16,8 C16,8 12.955,3 8,3 M8,4 C11.423,4 13.892,6.811 14.782,8 C13.891,9.19 11.423,12 8,12 C4.577,12 2.108,9.189 1.218,8 C2.109,6.81 4.577,4 8,4 Z M8,5 C6.343,5 5,6.343 5,8 C5,9.657 6.343,11 8,11 C9.657,11 11,9.657 11,8 C11,6.343 9.657,5 8,5 Z M8,6 C9.103,6 10,6.897 10,8 C10,9.103 9.103,10 8,10 C6.897,10 6,9.103 6,8 C6,6.897 6.897,6 8,6 Z"/> </symbol><symbol viewBox="0 0 16 16" id="icon-filter-solid"><title>Filter solid</title>  <path d="M2.00684547,1 C1.45078007,1 1.25482476,1.35675466 1.58334909,1.81668873 L6,8 L6,13.9970707 C6,14.5509732 6.35497332,14.7338588 6.79984599,14.4003155 L9.76176071,12.1796199 C9.89333664,12.0809709 10,11.8678796 10,11.7002747 L10,8 L14.4166509,1.81668873 C14.7388257,1.365644 14.5500512,1 13.9931545,1 L2.00684547,1 Z"/> </symbol><symbol viewBox="0 0 16 16" id="icon-filter"><title>Filter</title>  <path d="M2.00684547,1 C1.45078007,1 1.25482476,1.35675466 1.58334909,1.81668873 L6,8 L6,13.9970707 C6,14.5509732 6.35497332,14.7338588 6.79984599,14.4003155 L9.76176071,12.1796199 C9.89333664,12.0809709 10,11.8678796 10,11.7002747 L10,8 L14.4166509,1.81668873 C14.7388257,1.365644 14.5500512,1 13.9931545,1 L2.00684547,1 Z M7,8 L7,7.667 L6.8,7.4 L3,2 L13,2 L9.2,7.4 L9,7.667 L9,8 L9,11.5 L7,13.0600004 L7,8 Z"/> </symbol><symbol viewBox="0 0 13 16" id="icon-flag-solid"><title>Flag (solid)</title>  <path d="M10,0.0002 C8.495,0.0002 7.476,1.0002 6,1.0002 C4.703,1.0002 3.83,0.5832 3.375,0.2872 C3.333,0.2612 3.289,0.2482 3.245,0.2482 C3.118,0.2482 3,0.3532 3,0.4982 L3,1.0002 L3,8.0002 L3,14.0002 L4,14.0002 L4,8.6102 C4.488,8.8182 5.147,9.0002 6,9.0002 C7.476,9.0002 8.517,8.0002 10,8.0002 C11.268,8.0002 12.161,8.4282 12.627,8.7242 C12.668,8.7502 12.711,8.7622 12.754,8.7622 C12.882,8.7622 13,8.6572 13,8.5122 L13,1.0002 C13,1.0002 11.98,0.0002 10,0.0002 Z M5,12.1998 L5,13.2388 C5.656,13.4718 6,13.8178 6,13.9998 C6,14.2898 5.124,14.9998 3.5,14.9998 C1.876,14.9998 1,14.2898 1,13.9998 C1,13.8178 1.344,13.4718 2,13.2388 L2,12.1998 C0.821,12.5218 0,13.2038 0,13.9998 C0,15.1048 1.567,15.9998 3.5,15.9998 C5.433,15.9998 7,15.1048 7,13.9998 C7,13.2038 6.179,12.5218 5,12.1998 Z"/> </symbol><symbol viewBox="0 0 13 16" id="icon-flag"><title>Flag</title>  <path d="M12,7.3242 C11.451,7.1362 10.784,7.0002 10,7.0002 C9.066,7.0002 8.301,7.3032 7.626,7.5712 C7.046,7.8012 6.546,8.0002 6,8.0002 C5.01,8.0002 4.348,7.7102 4,7.5022 L4,1.6862 C4.542,1.8682 5.208,2.0002 6,2.0002 C6.926,2.0002 7.683,1.6982 8.35,1.4322 C8.933,1.2002 9.436,1.0002 10,1.0002 C10.977,1.0002 11.645,1.2922 12,1.5032 L12,7.3242 Z M10,0.0002 C8.495,0.0002 7.476,1.0002 6,1.0002 C4.703,1.0002 3.83,0.5832 3.375,0.2872 C3.333,0.2612 3.289,0.2482 3.245,0.2482 C3.118,0.2482 3,0.3532 3,0.4982 L3,1.0002 L3,8.0002 L3,14.0002 L4,14.0002 L4,8.6102 C4.488,8.8182 5.147,9.0002 6,9.0002 C7.476,9.0002 8.517,8.0002 10,8.0002 C11.268,8.0002 12.161,8.4282 12.627,8.7242 C12.668,8.7502 12.711,8.7622 12.754,8.7622 C12.882,8.7622 13,8.6572 13,8.5122 L13,1.0002 C13,1.0002 11.98,0.0002 10,0.0002 Z M5,12.1998 L5,13.2388 C5.656,13.4718 6,13.8178 6,13.9998 C6,14.2898 5.124,14.9998 3.5,14.9998 C1.876,14.9998 1,14.2898 1,13.9998 C1,13.8178 1.344,13.4718 2,13.2388 L2,12.1998 C0.821,12.5218 0,13.2038 0,13.9998 C0,15.1048 1.567,15.9998 3.5,15.9998 C5.433,15.9998 7,15.1048 7,13.9998 C7,13.2038 6.179,12.5218 5,12.1998 Z"/> </symbol><symbol viewBox="0 0 16 16" id="icon-folder-solid"><title>Folder (solid)</title>  <path d="M15,4 L15,2 L5,2 L5,0 L0,0 L0,13.5 C0,14.33 0.67,15 1.5,15 L14.5,15 C15.33,15 16,14.33 16,13.5 L16,4 L15,4 Z M2,13.5 C2,13.78 1.78,14 1.5,14 C1.22,14 1,13.78 1,13.5 L1,1 L4,1 L4,3 L14,3 L14,4 L2,4 L2,13.5 Z"/> </symbol><symbol viewBox="0 0 16 16" id="icon-folder"><title>Folder</title>  <path d="M15,13.5 C15,13.78 14.78,14 14.5,14 L2.91,14 C2.97,13.84 3,13.68 3,13.5 L3,5 L15,5 L15,13.5 Z M2,13.5 C2,13.78 1.78,14 1.5,14 C1.22,14 1,13.78 1,13.5 L1,1 L4,1 L4,3 L14,3 L14,4 L2,4 L2,13.5 Z M15,4 L15,2 L5,2 L5,0 L0,0 L0,13.5 C0,14.33 0.67,15 1.5,15 L14.5,15 C15.33,15 16,14.33 16,13.5 L16,4 L15,4 Z"/> </symbol><symbol viewBox="0 0 16 16" id="icon-folders-solid"><title>Folders solid</title>  <path d="M0,15 L8.8817842e-16,2 L5,2 L6,4 L14,4 L14,15 L0,15 Z M5.69999981,1.0223999 L6.5527864,2.7236068 L6.69098301,3 L7,3 L15,3 L15,13 L16,13 L16,2 L7.29876709,2 L6.4472136,0.276393202 L6.30901699,0 L6,0 L2,0 L2,1 L5.69999981,1.0223999 Z"/> </symbol><symbol viewBox="0 0 16 16" id="icon-folders"><title>Folders</title>  <path d="M0,15 L8.8817842e-16,2 L5,2 L6,4 L14,4 L14,15 L0,15 Z M13,14 L13,5 L6,5 L5.38196601,5 L5.10557281,4.4472136 L4.4000001,3 L1,3 L1,14 L13,14 Z M5.69999981,1.0223999 L6.5527864,2.7236068 L6.69098301,3 L7,3 L15,3 L15,13 L16,13 L16,2 L7.29876709,2 L6.4472136,0.276393202 L6.30901699,0 L6,0 L2,0 L2,1 L5.69999981,1.0223999 Z"/> </symbol><symbol viewBox="0 0 16 16" id="icon-gantt-chart"><title>Gantt Chart</title>  <path d="M0,0.9997 L0,14.9997 L0,15.9997 L1,15.9997 L16,15.9997 L16,14.9997 L1,14.9997 L1,0.9997 L0,0.9997 Z M2,5 L10,5 L10,3 L2,3 L2,5 Z M4,9 L12,9 L12,7 L4,7 L4,9 Z M6,13 L14,13 L14,11 L6,11 L6,13 Z"/> </symbol><symbol viewBox="0 0 15 16" id="icon-grilling-kebab"><title>Grilling Kebab</title>  <path d="M1.5,9 C2.32842712,9 3,8.32842712 3,7.5 C3,6.67157288 2.32842712,6 1.5,6 C0.671572875,6 0,6.67157288 0,7.5 C0,8.32842712 0.671572875,9 1.5,9 Z M7.5,9 C8.32842712,9 9,8.32842712 9,7.5 C9,6.67157288 8.32842712,6 7.5,6 C6.67157288,6 6,6.67157288 6,7.5 C6,8.32842712 6.67157288,9 7.5,9 Z M13.5,9 C14.3284271,9 15,8.32842712 15,7.5 C15,6.67157288 14.3284271,6 13.5,6 C12.6715729,6 12,6.67157288 12,7.5 C12,8.32842712 12.6715729,9 13.5,9 Z"/> </symbol><symbol viewBox="0 0 14 16" id="icon-hamburger"><title>Hamburger</title>  <path d="M0,1 L14,1 L14,3 L0,3 L0,1 Z M0,13 L14,13 L14,15 L0,15 L0,13 Z M0,7 L14,7 L14,9 L0,9 L0,7 Z"/> </symbol><symbol viewBox="0 0 16 16" id="icon-info-solid"><title>Info (solid)</title>  <path d="M8,0 C3.582,0 0,3.582 0,8 C0,12.418 3.582,16 8,16 C12.418,16 16,12.418 16,8 C16,3.582 12.418,0 8,0 Z M9,4 C9,4.552 8.552,5 8,5 C7.448,5 7,4.552 7,4 C7,3.448 7.448,3 8,3 C8.552,3 9,3.448 9,4 Z M9,11 L9,8 L9,7 C9,6.448 8.552,6 8,6 L7,6 L6,6 L6,7 L7,7 L7,11 L5,11 L5,12 L7,12 L9,12 L11,12 L11,11 L9,11 Z"/> </symbol><symbol viewBox="0 0 16 16" id="icon-info"><title>Info</title>  <path d="M8,0 C3.582,0 0,3.582 0,8 C0,12.418 3.582,16 8,16 C12.418,16 16,12.418 16,8 C16,3.582 12.418,0 8,0 M8,1 C11.86,1 15,4.14 15,8 C15,11.86 11.86,15 8,15 C4.14,15 1,11.86 1,8 C1,4.14 4.14,1 8,1 Z M9,4 C9,4.552 8.552,5 8,5 C7.448,5 7,4.552 7,4 C7,3.448 7.448,3 8,3 C8.552,3 9,3.448 9,4 Z M9,11 L9,8 L9,7 C9,6.448 8.552,6 8,6 L7,6 L6,6 L6,7 L7,7 L7,11 L5,11 L5,12 L7,12 L9,12 L11,12 L11,11 L9,11 Z"/> </symbol><symbol viewBox="0 0 16 16" id="icon-invalid-solid"><title>Invalid (solid)</title>  <path d="M8,0 C3.582,0 0,3.582 0,8 C0,12.418 3.582,16 8,16 C12.418,16 16,12.418 16,8 C16,3.582 12.418,0 8,0 Z M11.293,3.293 L8,6.586 L4.707,3.293 L3.293,4.707 L6.586,8 L3.293,11.293 L4.707,12.707 L8,9.414 L11.293,12.707 L12.707,11.293 L9.414,8 L12.707,4.707 L11.293,3.293 Z"/> </symbol><symbol viewBox="0 0 16 16" id="icon-invalid"><title>Invalid</title>  <path d="M8,15 C4.14,15 1,11.86 1,8 C1,4.14 4.14,1 8,1 C11.86,1 15,4.14 15,8 C15,11.86 11.86,15 8,15 M8,0 C3.582,0 0,3.582 0,8 C0,12.418 3.582,16 8,16 C12.418,16 16,12.418 16,8 C16,3.582 12.418,0 8,0 Z M11.293,3.293 L8,6.586 L4.707,3.293 L3.293,4.707 L6.586,8 L3.293,11.293 L4.707,12.707 L8,9.414 L11.293,12.707 L12.707,11.293 L9.414,8 L12.707,4.707 L11.293,3.293 Z"/> </symbol><symbol viewBox="0 0 8 16" id="icon-italic"><title>Italic</title>  <path d="M3.77597403,2.58354756 C3.77597403,2.06169405 3.93019326,1.66731067 4.23863636,1.4003856 C4.54707946,1.13346053 4.98376341,1 5.5487013,1 C6.02272964,1 6.38311565,1.09297251 6.62987013,1.27892031 C6.87662461,1.46486811 7,1.73178918 7,2.07969152 C7,2.55955681 6.85714429,2.94794196 6.57142857,3.24485861 C6.28571286,3.54177526 5.84415883,3.69023136 5.24675325,3.69023136 C4.26622886,3.69023136 3.77597403,3.32134045 3.77597403,2.58354756 L3.77597403,2.58354756 Z M3.93181818,15 L1,15 L3.30844156,4.94087404 L6.24025974,4.94087404 L3.93181818,15 Z"/> </symbol><symbol viewBox="0 0 3 16" id="icon-kebab"><title>Kebab</title>  <path d="M1.5,3 C2.32842712,3 3,2.32842712 3,1.5 C3,0.671572875 2.32842712,0 1.5,0 C0.671572875,0 0,0.671572875 0,1.5 C0,2.32842712 0.671572875,3 1.5,3 Z M1.5,9 C2.32842712,9 3,8.32842712 3,7.5 C3,6.67157288 2.32842712,6 1.5,6 C0.671572875,6 0,6.67157288 0,7.5 C0,8.32842712 0.671572875,9 1.5,9 Z M1.5,15 C2.32842712,15 3,14.3284271 3,13.5 C3,12.6715729 2.32842712,12 1.5,12 C0.671572875,12 0,12.6715729 0,13.5 C0,14.3284271 0.671572875,15 1.5,15 Z"/> </symbol><symbol viewBox="0 0 15 16" id="icon-line-chart"><title>Line Chart</title>  <path d="M13.1360392,7.13616051 L10.2477,8.9136 L6.9937,6.9126 L3.7467,8.9126 L1,7.21984487 L1,-0.0002 L0,-0.0002 L0,14.9998 L0,15.9998 L1,15.9998 L15,15.9998 L15,14.9998 L1,14.9998 L1,8.39584138 L3.7467,10.0866 L6.9937,8.0876 L10.2477,10.0866 L13.8565448,7.85642604 L15.0007,9.0002 L15.0007,6.0002 L11.9997,6.0002 L13.1360392,7.13616051 Z"/> </symbol><symbol viewBox="0 0 14 16" id="icon-lock-solid"><title>Lock (solid)</title>  <path d="M12,7 L12,5 L11.998,5 C11.998,4.995 12,4.99 12,4.984 C12,2.232 9.761,0 7,0 C4.239,0 2,2.232 2,4.984 C2,4.99 2.002,4.995 2.002,5 L2,5 L2,7 L0,7 L0,16 L14,16 L14,7 L12,7 Z M3,5 L3.002,5 C3.002,4.995 3,4.99 3,4.984 C3,2.787 4.794,1 7,1 C9.206,1 11,2.787 11,4.984 C11,4.99 10.998,4.995 10.998,5 L11,5 L11,7 L3,7 L3,5 Z"/> </symbol><symbol viewBox="0 0 14 16" id="icon-lock"><title>Lock</title>  <path d="M12,7 L12,5 L11.998,5 C11.998,4.995 12,4.99 12,4.984 C12,2.232 9.761,0 7,0 C4.239,0 2,2.232 2,4.984 C2,4.99 2.002,4.995 2.002,5 L2,5 L2,7 L0,7 L0,16 L14,16 L14,7 L12,7 Z M1,15 L13,15 L13,8 L1,8 L1,15 Z M3,5 L3.002,5 C3.002,4.995 3,4.99 3,4.984 C3,2.787 4.794,1 7,1 C9.206,1 11,2.787 11,4.984 C11,4.99 10.998,4.995 10.998,5 L11,5 L11,7 L3,7 L3,5 Z"/> </symbol><symbol viewBox="0 0 16 16" id="icon-mail-in-solid"><title>Mail In (solid)</title>  <path d="M8.0001,-0.0002 L0.0001,5.9998 L0.0001,15.9998 L16.0001,15.9998 L16.0001,5.9998 L8.0001,-0.0002 Z M8.9251,10.4998 L15.0001,6.5948 L15.0001,14.4048 L8.9251,10.4998 Z M1.0001,6.5948 L7.0751,10.4998 L1.0001,14.4048 L1.0001,6.5948 Z M8.0001,11.0948 L14.0751,14.9998 L1.9251,14.9998 L8.0001,11.0948 Z M7.0002,1.9998 L7.0002,4.9998 L5.0002,4.9998 L8.0002,8.9998 L11.0002,4.9998 L9.0002,4.9998 L9.0002,1.9998 L7.0002,1.9998 Z"/> </symbol><symbol viewBox="0 0 16 16" id="icon-mail-in"><title>Mail In</title>  <path d="M7.0002,-0.0002 L7.0002,4.9998 L5.0002,4.9998 L8.0002,8.9998 L11.0002,4.9998 L9.0002,4.9998 L9.0002,-0.0002 L7.0002,-0.0002 Z M9.9999,2.7502 L14.2139,5.9102 L7.9999,9.9052 L1.7859,5.9102 L5.9999,2.7502 L5.9999,1.5002 L-0.0001,6.0002 L-0.0001,16.0002 L15.9999,16.0002 L15.9999,6.0002 L9.9999,1.5002 L9.9999,2.7502 Z M8.9249,10.5002 L14.9999,6.5952 L14.9999,14.4052 L8.9249,10.5002 Z M0.9999,6.5952 L7.0749,10.5002 L0.9999,14.4052 L0.9999,6.5952 Z M7.9999,11.0952 L14.0749,15.0002 L1.9249,15.0002 L7.9999,11.0952 Z"/> </symbol><symbol viewBox="0 0 16 16" id="icon-mail-out-solid"><title>Mail Out (solid)</title>  <path d="M8.0001,-0.0002 L0.0001,5.9998 L0.0001,15.9998 L16.0001,15.9998 L16.0001,5.9998 L8.0001,-0.0002 Z M8.9251,10.4998 L15.0001,6.5948 L15.0001,14.4048 L8.9251,10.4998 Z M1.0001,6.5948 L7.0751,10.4998 L1.0001,14.4048 L1.0001,6.5948 Z M8.0001,11.0948 L14.0751,14.9998 L1.9251,14.9998 L8.0001,11.0948 Z M9,5 L9,9 L7,9 L7,5 L5,5 L8,1 L11,5 L9,5 Z"/> </symbol><symbol viewBox="0 0 16 16" id="icon-mail-out"><title>Mail Out</title>  <path d="M8.0001,-0.0002 L5.0001,4.0008 L7.0001,4.0008 L7.0001,7.9998 L9.0001,7.9998 L9.0001,4.0008 L11.0001,4.0008 L8.0001,-0.0002 Z M11.9997,4.2496 L14.2137,5.9096 L7.9997,9.9056 L1.7857,5.9096 L3.9997,4.2496 L3.9997,3.0006 L-0.0003,6.0006 L-0.0003,15.9996 L16.0007,15.9996 L16.0007,6.0006 L11.9997,3.0006 L11.9997,4.2496 Z M8.9257,10.5006 L15.0007,6.5946 L15.0007,14.4056 L8.9257,10.5006 Z M0.9997,6.5946 L7.0747,10.5006 L0.9997,14.4056 L0.9997,6.5946 Z M7.9997,11.0946 L14.0747,15.0006 L1.9247,15.0006 L7.9997,11.0946 Z"/> </symbol><symbol viewBox="0 0 16 16" id="icon-mail-read-solid"><title>Mail Read (solid)</title>  <path d="M8.0001,-0.0002 L6.6661,0.9998 L1.0001,0.9998 L1.0001,5.2508 L0.0001,5.9998 L0.0001,15.9998 L16.0001,15.9998 L16.0001,5.9998 L15.0001,5.2508 L15.0001,0.9998 L9.3331,0.9998 L8.0001,-0.0002 Z M8.9241,10.4998 L15.0001,6.5938 L15.0001,14.4048 L8.9241,10.4998 Z M1.0001,6.5938 L7.0751,10.4998 L1.0001,14.4048 L1.0001,6.5938 Z M8.0001,11.0938 L14.0751,14.9998 L1.9251,14.9998 L8.0001,11.0938 Z M3,4 L6.001,4 L6.001,3 L3,3 L3,4 Z M3,6 L13,6 L13,5 L3,5 L3,6 Z"/> </symbol><symbol viewBox="0 0 16 16" id="icon-mail-read"><title>icon-mail-read</title>  <path d="M8.0001,-0.0002 L6.6661,0.9998 L1.0001,0.9998 L1.0001,5.2508 L0.0001,5.9998 L0.0001,15.9998 L16.0001,15.9998 L16.0001,5.9998 L15.0001,5.2508 L15.0001,0.9998 L9.3331,0.9998 L8.0001,-0.0002 Z M2.0001,6.0488 L2.0001,5.7498 L2.0001,4.4998 L2.0001,1.9998 L5.3331,1.9998 L7.0001,1.9998 L9.0001,1.9998 L10.6671,1.9998 L14.0001,1.9998 L14.0001,4.4998 L14.0001,5.7498 L14.0001,6.0488 L8.0001,9.9048 L2.0001,6.0488 Z M8.9241,10.4998 L15.0001,6.5938 L15.0001,14.4048 L8.9241,10.4998 Z M1.0001,6.5938 L7.0751,10.4998 L1.0001,14.4048 L1.0001,6.5938 Z M8.0001,11.0938 L14.0751,14.9998 L1.9251,14.9998 L8.0001,11.0938 Z M3,4 L6.001,4 L6.001,3 L3,3 L3,4 Z M3,6 L13,6 L13,5 L3,5 L3,6 Z"/> </symbol><symbol viewBox="0 0 16 16" id="icon-mail-solid"><title>Mail (solid)</title>  <path d="M0,13.3448 L5.624,8.5858 L0,3.6638 L0,13.3448 Z M10.3752,8.5856 L16.0002,13.3446 L16.0002,3.6636 L10.3752,8.5856 Z M0.7587,3.0002 L7.9997,9.3362 L15.2417,3.0002 L0.7587,3.0002 Z M8.0001,10.6637 L6.3861,9.2517 L0.7741,13.9997 L15.2251,13.9997 L9.6141,9.2517 L8.0001,10.6637 Z"/> </symbol><symbol viewBox="0 0 16 16" id="icon-mail"><title>Mail</title>  <path d="M0,14 L16,14 L16,3 L0,3 L0,14 Z M1.768,4 L14.233,4 L8,9.342 L1.768,4 Z M10.406,8.596 L15,4.658 L15,12.355 L10.406,8.596 Z M1,4.658 L5.594,8.596 L1,12.355 L1,4.658 Z M9.635,9.256 L14.211,13 L1.789,13 L6.365,9.256 L8,10.658 L9.635,9.256 Z"/> </symbol><symbol viewBox="0 0 16 16" id="icon-minus-solid"><title>Minus (solid)</title>  <path d="M0,8 C0,3.581722 3.581722,0 8,0 C12.418278,0 16,3.581722 16,8 C16,12.418278 12.418278,16 8,16 C3.581722,16 0,12.418278 0,8 Z M3,7 L13,7 L13,9 L3,9 L3,7 Z"/> </symbol><symbol viewBox="0 0 16 16" id="icon-minus"><title>Minus</title>  <path d="M15,8 C15,4.13400675 11.8659932,1 8,1 C4.13400675,1 1,4.13400675 1,8 C1,11.8659932 4.13400675,15 8,15 C11.8659932,15 15,11.8659932 15,8 Z M0,8 C0,3.581722 3.581722,0 8,0 C12.418278,0 16,3.581722 16,8 C16,12.418278 12.418278,16 8,16 C3.581722,16 0,12.418278 0,8 Z M3,7 L13,7 L13,9 L3,9 L3,7 Z"/> </symbol><symbol viewBox="0 0 16 16" id="icon-new-message-solid"><title>New Message solid</title>  <path d="M0,0 L16,0 L16,16 L0,16 L0,0 Z M9,2 L2,2 L2,14 L14,14 L14,7 L15,7 L15,15 L14,15 L1,15 L1,1 L9,1 L9,2 Z M11.8764256,1.29445855 C12.2679158,0.902968381 12.8987793,0.899100928 13.2990129,1.29933448 L14.6999768,2.70029842 C15.0941599,3.0944815 15.0914367,3.73630168 14.7048527,4.12288568 L6.92842703,11.8993114 L4.11251583,11.9118273 L4.0999999,9.07088426 L11.8764256,1.29445855 Z M10.4639609,2.70692323 L13.2923881,5.53535036 L12.5852813,6.24245714 L9.75685415,3.41403001 L10.4639609,2.70692323 Z"/> </symbol><symbol viewBox="0 0 16 16" id="icon-new-message"><title>New Message</title>  <path d="M9,1 L1,1 L1,15 L15,15 L15,7 L16,7 L16,16 L15,16 L0,16 L0,0 L9,0 L9,1 Z M12.8764256,0.294458555 C13.2679158,-0.0970316185 13.8987793,-0.100899072 14.2990129,0.299334482 L15.6999768,1.70029842 C16.0941599,2.0944815 16.0914367,2.73630168 15.7048527,3.12288568 L7.92842703,10.8993114 L5.11251583,10.9118273 L5.0999999,8.07088426 L12.8764256,0.294458555 Z M11.4639609,1.70692323 L14.2923881,4.53535036 L13.5852813,5.24245714 L10.7568542,2.41403001 L11.4639609,1.70692323 Z"/> </symbol><symbol viewBox="0 0 12 16" id="icon-ordered-list"><title>Ordered List</title>  <path d="M12,13 C12,13.59 12,14 11.41,14 L4.59,14 C4,14 4,13.59 4,13 C4,12.41 4,12 4.59,12 L11.4,12 C11.99,12 11.99,12.41 11.99,13 L12,13 Z M4.59,4 L11.4,4 C11.99,4 11.99,3.59 11.99,3 C11.99,2.41 11.99,2 11.4,2 L4.59,2 C4,2 4,2.41 4,3 C4,3.59 4,4 4.59,4 L4.59,4 Z M11.4,7 L4.59,7 C4,7 4,7.41 4,8 C4,8.59 4,9 4.59,9 L11.4,9 C11.99,9 11.99,8.59 11.99,8 C11.99,7.41 11.99,7 11.4,7 L11.4,7 Z M2,1 L1.28,1 C0.98,1.19 0.7,1.25 0.25,1.34 L0.25,2 L1,2 L1,4.14 L0.16,4.14 L0.16,5 L3,5 L3,4.14 L2,4.14 L2,1 L2,1 Z M2.25,9.13 C2.08,9.13 1.8,9.16 1.59,9.19 C2.12,8.63 2.73,7.94 2.73,7.3 C2.71,6.52 2.17,6 1.37,6 C0.78,6 0.4,6.2 -0.01,6.64 L0.57,7.22 C0.76,7.03 0.95,6.84 1.21,6.84 C1.49,6.84 1.69,7 1.69,7.36 C1.69,7.89 0.92,8.56 -0.01,9.42 L-0.01,10 L2.99,10 L2.9,9.12 L2.24,9.12 L2.25,9.13 Z M2.17,12.91 L2.17,12.88 C2.61,12.69 2.81,12.41 2.81,12.02 C2.81,11.32 2.25,10.91 1.37,10.91 C0.89,10.91 0.48,11.1 0.09,11.43 L0.64,12.07 C0.89,11.87 1.08,11.76 1.33,11.76 C1.6,11.76 1.75,11.89 1.75,12.12 C1.75,12.39 1.55,12.56 0.89,12.56 L0.89,13.31 C1.72,13.31 1.87,13.48 1.87,13.78 C1.87,14.03 1.64,14.16 1.29,14.16 C1.01,14.16 0.73,14.02 0.48,13.78 L-2.16937579e-13,14.44 C0.3,14.8 0.77,15 1.41,15 C2.24,15 2.94,14.59 2.94,13.84 C2.94,13.34 2.63,13.03 2.17,12.9 L2.17,12.91 Z"/> </symbol><symbol viewBox="0 0 16 16" id="icon-pause-solid"><title>Pause (solid)</title>  <path d="M0,8 C0,3.581722 3.581722,0 8,0 C12.418278,0 16,3.581722 16,8 C16,12.418278 12.418278,16 8,16 C3.581722,16 0,12.418278 0,8 Z M9,4 L12,4 L12,12 L9,12 L9,4 Z M4,4 L7,4 L7,12 L4,12 L4,4 Z"/> </symbol><symbol viewBox="0 0 16 16" id="icon-pause"><title>Pause</title>  <path d="M0,8 C0,3.581722 3.581722,0 8,0 C12.418278,0 16,3.581722 16,8 C16,12.418278 12.418278,16 8,16 C3.581722,16 0,12.418278 0,8 Z M15,8 C15,4.13400675 11.8659932,1 8,1 C4.13400675,1 1,4.13400675 1,8 C1,11.8659932 4.13400675,15 8,15 C11.8659932,15 15,11.8659932 15,8 Z M9,4 L12,4 L12,12 L9,12 L9,4 Z M4,4 L7,4 L7,12 L4,12 L4,4 Z"/> </symbol><symbol viewBox="0 0 15 16" id="icon-phone-solid"><title>Phone solid</title>  <path d="M2.70667403,1.29317937 C2.31669978,0.903240375 1.68797519,0.899692105 1.28960651,1.29802479 L0,2.58751473 C0,9.76888745 5.82163889,15.5900002 13.0036607,15.5900002 L14.2932673,14.3005102 C14.6859178,13.9078952 14.6902623,13.2756845 14.2981131,12.8835708 L11.7092084,10.2949 C11.3192341,9.90496105 10.6905096,9.90141278 10.2921409,10.2997455 L9.00253436,11.5892354 L4.00112638,6.58827948 L5.29073289,5.29878953 C5.68338342,4.90617449 5.6877279,4.27396381 5.29557874,3.88185009 L2.70667403,1.29317937 Z"/> </symbol><symbol viewBox="0 0 15 16" id="icon-phone"><title>Phone</title>  <path d="M2.70667403,1.29317937 C2.31669978,0.903240375 1.68797519,0.899692105 1.28960651,1.29802479 L0,2.58751473 C0,9.76888745 5.82163889,15.5900002 13.0036607,15.5900002 L14.2932673,14.3005102 C14.6859178,13.9078952 14.6902623,13.2756845 14.2981131,12.8835708 L11.7092084,10.2949 C11.3192341,9.90496105 10.6905096,9.90141278 10.2921409,10.2997455 L9.00253436,11.5892354 L4.00112638,6.58827948 L5.29073289,5.29878953 C5.68338342,4.90617449 5.6877279,4.27396381 5.29557874,3.88185009 L2.70667403,1.29317937 Z M4.5872914,4.5878971 L3.2939273,5.88114431 L3.29189859,5.88317283 C2.90244374,6.27259248 2.90722096,6.90874326 3.29189859,7.29338612 L3.2939273,7.29541465 L8.29533527,12.2963706 L8.29736398,12.2983991 C8.68681883,12.6878187 9.32302711,12.683042 9.70770474,12.2983991 L9.70973345,12.2963706 L11.0030976,11.0031234 L13.5898258,13.5896178 L12.5965461,14.5828076 C6.30077377,14.3717673 1.21834298,9.28979587 1.00728357,2.99459254 L2.00056319,2.0014027 L4.5872914,4.5878971 Z"/> </symbol><symbol viewBox="0 0 16 16" id="icon-pie-chart"><title>Pie Chart</title>  <path d="M7.5029,0.994 C3.3589,0.994 -0.0001,4.353 -0.0001,8.497 C-0.0001,12.641 3.3589,16 7.5029,16 C11.6469,16 15.0059,12.641 15.0059,8.497 C15.0059,8.329 14.9919,8.165 14.9809,8 L7.9999,8 L7.9999,1.019 C7.8349,1.008 7.6709,0.994 7.5029,0.994 M6.9999,2.013 L6.9999,8 L6.9999,9 L7.9999,9 L13.9869,9 C13.7289,12.352 10.9199,15 7.5029,15 C3.9169,15 0.9999,12.083 0.9999,8.497 C0.9999,5.08 3.6479,2.271 6.9999,2.013 Z M9,0 L9,7 L16,7 C16,3.134 12.866,0 9,0 Z M10,1.083 C12.509,1.506 14.494,3.491 14.917,6 L10,6 L10,1.083 Z"/> </symbol><symbol viewBox="0 0 12 16" id="icon-plus"><title>Plus</title>  <polygon points="7 9 7 14 5 14 5 9 0 9 0 7 5 7 5 2 7 2 7 7 12 7 12 9"/> </symbol><symbol viewBox="0 0 12 16" id="icon-receipt-solid"><title>Receipt (solid)</title>  <path d="M0,-0.0002 L0,14.9998 L2,15.9998 L4,14.9998 L5.99,15.9998 L7.99,14.9998 L10,15.9998 L12,14.9998 L12,-0.0002 L0,-0.0002 Z M2,5 L10,5 L10,4 L2,4 L2,5 Z M2,8 L10,8 L10,7 L2,7 L2,8 Z M2,11 L10,11 L10,10 L2,10 L2,11 Z"/> </symbol><symbol viewBox="0 0 12 16" id="icon-receipt"><title>Receipt</title>  <path d="M0,-0.0002 L0,14.9998 L2,15.9998 L4,14.9998 L5.99,15.9998 L7.99,14.9998 L10,15.9998 L12,14.9998 L12,-0.0002 L0,-0.0002 Z M1,14.3798 L1,0.9998 L11,0.9998 L11,14.3798 L10,14.8808 L7.99,13.8798 L5.99,14.8808 L4,13.8798 L2,14.8808 L1,14.3798 Z M2,5 L10,5 L10,4 L2,4 L2,5 Z M2,8 L10,8 L10,7 L2,7 L2,8 Z M2,11 L10,11 L10,10 L2,10 L2,11 Z"/> </symbol><symbol viewBox="0 0 16 16" id="icon-redo"><title>Redo</title>  <path d="M2,8 C2,4.13400675 5.13400675,1 9,1 C12.8659932,1 16,4.13400675 16,8 C16,11.8659932 12.8659932,15 9,15 L9,14 C12.3137085,14 15,11.3137085 15,8 C15,4.6862915 12.3137085,2 9,2 C5.6862915,2 3,4.6862915 3,8 L2,8 Z M8.8817842e-16,8 L4.9970583,8 L2.5,11 L8.8817842e-16,8 Z"/> </symbol><symbol viewBox="0 0 16 16" id="icon-refresh"><title>Refresh</title>  <path d="M14.5291478,10.5291478 C13.5151009,13.1451588 10.9741611,15 8,15 C4.47352809,15 1.55611852,12.3922941 1.07088886,9 L2.08295844,9 C2.55903653,11.8377133 5.02700371,14 8,14 C10.7075358,14 12.9962046,12.2066174 13.7429294,9.74292939 L12,8 L16,8 L16,12 L14.5291478,10.5291478 Z M1.47085216,5.47085216 C2.4848991,2.8548412 5.02583886,1 8,1 C11.5264719,1 14.4438815,3.60770586 14.9291111,7 L13.9170416,7 C13.4409635,4.16228666 10.9729963,2 8,2 C5.29246421,2 3.00379536,3.79338258 2.25707061,6.25707061 L4,8 L2.22044605e-16,8 L2.22044605e-16,4 L1.47085216,5.47085216 Z"/> </symbol><symbol viewBox="0 0 16 16" id="icon-rocket-solid"><title>Rocket solid</title>  <path d="M10.9553542,10.2797526 C14.025294,7.90311731 16.002,4.18324239 16.002,0 C11.82023,0 8.10150134,1.97531467 5.72475746,5.04340453 L0.367319244,6.51792551 L5.55111512e-17,6.61902232 L0,7 L0,9.5 L0,10 L0.5,10 L3.35460074,10 C3.33200846,10.0955969 3.31047055,10.1916012 3.28999996,10.288 L5.71399996,12.712 C5.80972649,12.6916722 5.90506408,12.6702918 6,12.6478717 L6,15.5 L6,16 L6.5,16 L9,16 L9.38097768,16 L9.48207449,15.6326808 L10.9553542,10.2797526 Z M9.67237072,11.1559607 C8.83772609,11.655707 7.94236305,12.0645539 7,12.368839 L7,15 L8.59997559,15 L9.67237072,11.1559607 Z M4.85137075,6.32073293 C4.3495543,7.15732032 3.93910652,8.0550213 3.63380691,9 L1,9 L1,7.38000011 L4.85137075,6.32073293 Z M13.492,5.783 L10.219,2.51 C11.657,1.712 13.263,1.196 14.956,1.046 C14.806,2.739 14.29,4.345 13.492,5.783 Z"/> </symbol><symbol viewBox="0 0 16 16" id="icon-rocket"><title>Rocket</title>  <path d="M3.35460074,10 C3.33200846,10.0955969 3.31047055,10.1916012 3.28999996,10.288 L5.71399996,12.712 C5.80972649,12.6916722 5.90506408,12.6702918 6,12.6478717 L6,15.5 L6,16 L6.5,16 L9,16 L9.38097768,16 L9.48207449,15.6326808 L10.9553542,10.2797526 C14.025294,7.90311731 16.002,4.18324239 16.002,0 C11.82023,0 8.10150134,1.97531467 5.72475746,5.04340453 L0.367319244,6.51792551 L5.55111512e-17,6.61902232 L0,7 L0,9.5 L0,10 L0.5,10 L3.35460074,10 Z M3.63380691,9 C3.93910652,8.0550213 4.3495543,7.15732032 4.85137075,6.32073293 L1,7.38000011 L1,9 L3.63380691,9 Z M7,12.368839 C7.94236305,12.0645539 8.83772609,11.655707 9.67237072,11.1559607 L8.59997559,15 L7,15 L7,12.368839 Z M4.39099996,9.975 C5.14399996,7.08 6.95399996,4.648 9.34099996,3.046 L12.956,6.661 C11.354,9.047 8.92199996,10.858 6.02699996,11.611 L4.39099996,9.975 Z M13.492,5.783 L10.219,2.51 C11.657,1.712 13.263,1.196 14.956,1.046 C14.806,2.739 14.29,4.345 13.492,5.783 Z"/> </symbol><symbol viewBox="0 0 12 16" id="icon-sand-clock-solid"><title>Sand Clock (solid)</title>  <path d="M7.6407,9.3382 C8.4377,9.6872 9.0727,10.2802 9.4917,11.0002 L2.5917,11.0002 C3.0107,10.2802 3.6457,9.6872 4.4427,9.3382 L5.0417,9.0762 L5.0417,8.4222 L5.0417,7.5782 L5.0417,6.9242 L4.4427,6.6622 C2.9837,6.0232 2.0417,4.5862 2.0417,3.0002 L2.0417,1.0002 L10.0417,1.0002 L10.0417,3.0002 C10.0417,4.5862 9.0997,6.0232 7.6407,6.6622 L7.0417,6.9242 L7.0417,7.5782 L7.0417,8.4222 L7.0417,9.0762 L7.6407,9.3382 Z M11.0417,1.0002 L11.0417,1.0002 C11.5939847,1.0002 12.0417,0.547013965 12.0417,0.0002 L12.0417,0.0002 L11.0417,0.0002 L1.0417,0.0002 L-0.0003,0.0002 L-0.0003,0.0002 C-0.0003,0.55248475 0.44764902,1.0002 0.996926562,1.0002 L1.0417,1.0002 L1.0417,3.0002 C1.0417,5.0492 2.2777,6.8052 4.0417,7.5782 L4.0417,8.4222 C2.2777,9.1942 1.0417,10.9512 1.0417,13.0002 L1.0417,15.0002 L1.0417,15.0002 C0.48941525,15.0002 0.0417,15.453386 0.0417,16.0002 L0.0417,16.0002 L1.0417,16.0002 L11.0417,16.0002 L12.0417,16.0002 L12.0417,16.0002 C12.0417,15.4479153 11.588514,15.0002 11.0417,15.0002 L11.0417,15.0002 L11.0417,13.0002 C11.0417,10.9512 9.8057,9.1942 8.0417,8.4222 L8.0417,7.5782 C9.8057,6.8052 11.0417,5.0492 11.0417,3.0002 L11.0417,1.0002 Z"/> </symbol><symbol viewBox="0 0 12 16" id="icon-sand-clock"><title>Sand Clock</title>  <path d="M9.50263208,10.999 C9.08353182,10.2770942 8.43962707,9.68790706 7.6407,9.338 L7.0417,9.076 L7.0417,8.422 L7.0417,7.578 L7.0417,6.924 L7.6407,6.662 C9.0997,6.023 10.0417,4.586 10.0417,3 L10.0417,1 L2.0417,1 L2.0417,3 C2.0417,4.586 2.9837,6.023 4.4427,6.662 L5.0417,6.924 L5.0417,7.578 L5.0417,8.422 L5.0417,9.076 L4.4427,9.338 C3.64377293,9.68790706 2.99986818,10.2770942 2.58076792,10.999 L9.50263208,10.999 Z M9.91421942,12 C9.99778027,12.3220306 10.0417,12.6575418 10.0417,13 L10.0417,15 L2.0417,15 L2.0417,13 C2.0417,12.6575418 2.08561973,12.3220306 2.16918058,12 L9.91421942,12 Z M12.0417,0 L11.0417,0 L1.0417,0 L-0.0003,0 C-0.0003,0.55228475 0.44764902,1 0.996926562,1 L1.0417,1 L1.0417,3 C1.0417,5.049 2.2777,6.806 4.0417,7.578 L4.0417,8.422 C2.2777,9.194 1.0417,10.951 1.0417,13 L1.0417,15 C0.48941525,15 0.0417,15.453186 0.0417,16 L1.0417,16 L11.0417,16 L12.0417,16 C12.0417,15.4477153 11.588514,15 11.0417,15 L11.0417,13 C11.0417,10.951 9.8057,9.194 8.0417,8.422 L8.0417,7.578 C9.8057,6.806 11.0417,5.049 11.0417,3 L11.0417,1 C11.5939847,1 12.0417,0.546813965 12.0417,0 Z"/> </symbol><symbol viewBox="0 0 16 16" id="icon-search"><title>Search</title>  <path d="M1.0909,6 C1.0909,3.293 3.2929,1.091 5.9999,1.091 C8.7069,1.091 10.9089,3.293 10.9089,6 C10.9089,8.707 8.7069,10.909 5.9999,10.909 C3.2929,10.909 1.0909,8.707 1.0909,6 L1.0909,6 Z M15.9999,15.293 L10.5789,9.872 C11.4639,8.827 11.9999,7.477 11.9999,6 C11.9999,2.686 9.3139,0 5.9999,0 C2.6859,0 -0.0001,2.686 -0.0001,6 C-0.0001,9.314 2.6859,12 5.9999,12 C7.4769,12 8.8269,11.464 9.8719,10.579 L15.2929,16 L15.9999,15.293 Z"/> </symbol><symbol viewBox="0 0 16 16" id="icon-send-solid"><title>Send (solid)</title>  <path d="M16,0 L0,9 L5,11 L6,16 L10,12.5 L16,14 L16,0 Z M5.98,10.805 L5.969,10.745 L13.778,3.326 L9.739,11.404 L9.735,11.403 L9.341,11.748 L6.642,14.11 L5.98,10.805 Z"/> </symbol><symbol viewBox="0 0 16 16" id="icon-send"><title>Send</title>  <path d="M16,0 L0,9 L5,11 L6,16 L10,12.5 L16,14 L16,0 Z M2.311,8.848 L12.613,3.052 L5.268,10.031 L2.311,8.848 Z M10.732,11.652 L15,3.118 L15,12.72 L10.732,11.652 Z M5.98,10.805 L5.969,10.745 L13.778,3.326 L9.739,11.404 L9.735,11.403 L9.341,11.748 L6.642,14.11 L5.98,10.805 Z"/> </symbol><symbol viewBox="0 0 16 16" id="icon-share-solid"><title>Share (solid)</title>  <path d="M10,2 L10,5 C3.78,5 2.396,10.397 2.088,12.833 C2.075,12.935 2.153,12.996 2.233,12.996 C2.289,12.996 2.345,12.967 2.374,12.902 C3.96,9.305 8.089,8.985 9.511,8.985 C9.819,8.985 10,9 10,9 L10,12 L16,7 L10,2 Z M15,9 L15,15 L1,15 L1,8 L2,8 L2,7 L1,7 L8.8817842e-16,7 L8.8817842e-16,8 L8.8817842e-16,15 L8.8817842e-16,16 L1,16 L15,16 L16,16 L16,15 L16,9 L15,9 Z"/> </symbol><symbol viewBox="0 0 16 16" id="icon-share"><title>Share</title>  <path d="M10,2 L10,5 C3.78,5 2.396,10.397 2.088,12.833 C2.075,12.935 2.153,12.996 2.233,12.996 C2.289,12.996 2.345,12.967 2.374,12.902 C3.96,9.305 8.089,8.985 9.511,8.985 C9.819,8.985 10,9 10,9 L10,12 L16,7 L10,2 Z M11,4.135 L14.438,7 L11,9.865 L11,9 L10.996,8.083 L10.083,8.003 C10.083,8.003 9.871,7.985 9.511,7.985 C8.574,7.985 6.181,8.126 4.128,9.418 C5.085,7.588 6.829,6 10,6 L11,6 L11,5 L11,4.135 Z M15,9 L15,15 L1,15 L1,8 L2,8 L2,7 L1,7 L0,7 L0,8 L0,15 L0,16 L1,16 L15,16 L16,16 L16,15 L16,9 L15,9 Z"/> </symbol><symbol viewBox="0 0 12 16" id="icon-sign-in-solid"><title>Sign In (solid)</title>  <path d="M2,7 L0.0003,7 L0.0003,9 L2,9 L2,16 L12,16 L12,0 L2,0 L2,7 Z M2,7 L5.0003,7 L5.0003,5 L9.0003,8 L5.0003,11 L5.0003,9 L2,9 L2,7 Z"/> </symbol><symbol viewBox="0 0 12 16" id="icon-sign-in"><title>Sign In</title>  <path d="M1.9997,-0.0002 L1.9997,5.9998 L2.9997,5.9998 L2.9997,0.9998 L10.9997,0.9998 L10.9997,14.9998 L2.9997,14.9998 L2.9997,9.9998 L1.9997,9.9998 L1.9997,15.9998 L11.9997,15.9998 L11.9997,-0.0002 L1.9997,-0.0002 Z M5.0003,7 L0.0003,7 L0.0003,9 L5.0003,9 L5.0003,11 L9.0003,8 L5.0003,5 L5.0003,7 Z"/> </symbol><symbol viewBox="0 0 14 16" id="icon-sign-out-solid"><title>Sign Out (solid)</title>  <path d="M9,7 L9.9998,7 L9.9998,5 L14.0008,8 L9.9998,11 L9.9998,9 L9,9 L9,16 L0,16 L0,0 L9,0 L9,7 Z M9,7 L3.9998,7 L3.9998,9 L9,9 L9,7 Z"/> </symbol><symbol viewBox="0 0 14 16" id="icon-sign-out"><title>Sign Out</title>  <path d="M0,-0.0002 L0,15.9998 L9,15.9998 L9,9.9998 L8,9.9998 L8,14.9998 L1,14.9998 L1,0.9998 L8,0.9998 L8,5.9998 L9,5.9998 L9,-0.0002 L0,-0.0002 Z M9.9998,7 L3.9998,7 L3.9998,9 L9.9998,9 L9.9998,11 L14.0008,8 L9.9998,5 L9.9998,7 Z"/> </symbol><symbol viewBox="0 0 16 16" id="icon-speech-bubble-solid"><title>Speech Bubble (solid)</title>  <path d="M16,0 L0,0 L0,11 L3,11 L3,14.397 C3,14.548 3.123,14.647 3.251,14.647 C3.313,14.647 3.375,14.625 3.426,14.574 L7,11 L16,11 L16,0 Z"/> </symbol><symbol viewBox="0 0 16 16" id="icon-speech-bubble"><title>Speech Bubble</title>  <path d="M16,-1.77635684e-15 L0,-1.77635684e-15 L0,11 L3,11 L3,14.397 C3,14.548 3.123,14.647 3.251,14.647 C3.313,14.647 3.375,14.625 3.426,14.574 L7,11 L16,11 L16,-1.77635684e-15 Z M15,1 L15,10 L7,10 L6.586,10 L6.293,10.293 L4,12.586 L4,11 L4,10 L3,10 L1,10 L1,1 L15,1 L15,1 Z"/> </symbol><symbol viewBox="0 0 16 16" id="icon-tag-solid"><title>Tag (solid)</title>  <path d="M0,-0.0002 L0,6.9998 L9,15.9998 L16,8.9998 L7,-0.0002 L0,-0.0002 Z M4,5 C3.449,5 3,4.551 3,4 C3,3.449 3.449,3 4,3 C4.551,3 5,3.449 5,4 C5,4.551 4.551,5 4,5 Z M4,2 C2.895,2 2,2.895 2,4 C2,5.105 2.895,6 4,6 C5.105,6 6,5.105 6,4 C6,2.895 5.105,2 4,2 Z"/> </symbol><symbol viewBox="0 0 16 16" id="icon-tag"><title>Tag</title>  <path d="M0,-0.0002 L0,6.9998 L9,15.9998 L16,8.9998 L7,-0.0002 L0,-0.0002 Z M1,6.5858 L1,0.9998 L6.586,0.9998 L14.585,8.9998 L9,14.5858 L1,6.5858 Z M4,5 C3.449,5 3,4.551 3,4 C3,3.449 3.449,3 4,3 C4.551,3 5,3.449 5,4 C5,4.551 4.551,5 4,5 Z M4,2 C2.895,2 2,2.895 2,4 C2,5.105 2.895,6 4,6 C5.105,6 6,5.105 6,4 C6,2.895 5.105,2 4,2 Z"/> </symbol><symbol viewBox="0 0 15 16" id="icon-trash-solid"><title>Trash (solid)</title>  <path d="M10.9998,1.999 L15,1.999 L15,3 L0,3 L0,1.999 L3.9998,1.999 L3.9998,1.004 C3.9998,0.449 4.4498,0 5.0038,0 L9.9968,0 C10.5508,0 10.9998,0.449 10.9998,1.004 L10.9998,1.999 Z M9.9998,1.999 L5.001802,1.999 L5.0038,1 L9.9968,1 L9.9998,1.004 L9.9998,1.999 Z M2,3 L13,3 L13,16 L2,16 L2,3 Z M10,13 L11,13 L11,5 L10,5 L10,13 Z M4,13 L5.001,13 L5.001,5 L4,5 L4,13 Z M7,13 L8,13 L8,5 L7,5 L7,13 Z"/> </symbol><symbol viewBox="0 0 15 16" id="icon-trash"><title>Trash</title>  <path d="M10.9998,1.999 L15,1.999 L15,3 L0,3 L0,1.999 L3.9998,1.999 L3.9998,1.004 C3.9998,0.449 4.4498,0 5.0038,0 L9.9968,0 C10.5508,0 10.9998,0.449 10.9998,1.004 L10.9998,1.999 Z M9.9998,1.999 L5.001802,1.999 L5.0038,1 L9.9968,1 L9.9998,1.004 L9.9998,1.999 Z M7,13 L8,13 L8,5 L7,5 L7,13 Z M4,13 L5.001,13 L5.001,5 L4,5 L4,13 Z M10,13 L11,13 L11,5 L10,5 L10,13 Z M11.9997,3.0004 L11.9997,15.0004 L2.9997,15.0004 L2.9997,3.0004 L1.9997,3.0004 L1.9997,16.0004 L12.9997,16.0004 L12.9997,3.0004 L11.9997,3.0004 Z"/> </symbol><symbol viewBox="0 0 12 16" id="icon-triangle-down"><title>Triangle Down</title>  <polygon points="0 5 12 5 6 11"/> </symbol><symbol viewBox="0 0 14 16" id="icon-triangle-left-right"><title>Triangle Left Right</title>  <path d="M8,2 L8,14 L14,8 L8,2 Z M6,2 L6,14 L0,8 L6,2 Z"/> </symbol><symbol viewBox="0 0 6 16" id="icon-triangle-left"><title>Triangle Left</title>  <polygon points="6 2 6 14 0 8"/> </symbol><symbol viewBox="0 0 6 16" id="icon-triangle-right"><title>icon-triangle-right</title>  <polygon transform="translate(3.000000, 8.000000) scale(-1, 1) translate(-3.000000, -8.000000) " points="6 2 6 14 0 8"/> </symbol><symbol viewBox="0 0 12 16" id="icon-triangle-up-down"><title>Triangle Up Down</title>  <path d="M0,7 L12,7 L6,1 L0,7 Z M0,9 L12,9 L6,15 L0,9 Z"/> </symbol><symbol viewBox="0 0 12 16" id="icon-triangle-up"><title>Triangle Up</title>  <polygon transform="translate(6.000000, 8.000000) scale(1, -1) translate(-6.000000, -8.000000) " points="0 5 12 5 6 11"/> </symbol><symbol viewBox="0 0 12 16" id="icon-upload-solid"><title>Upload (solid)</title>  <path d="M5.0002,7 L0,7 L0,16 L12,16 L12,7 L7.0002,7 L7.0002,4.001 L9.0002,4.001 L6.0002,0 L2.9992,4.001 L5.0002,4.001 L5.0002,7 Z M5.0002,7 L7.0002,7 L7.0002,12.001 L5.0002,12.001 L5.0002,7 Z"/> </symbol><symbol viewBox="0 0 12 16" id="icon-upload"><title>Upload</title>  <path d="M8.0001,7 L8.0001,8 L11.0001,8 L11.0001,15 L1.0001,15 L1.0001,8 L3.9991,8 L3.9991,7 L0.0001,7 L0.0001,16 L12.0001,16 L12.0001,7 L8.0001,7 Z M6.0003,-0.0002 L2.9993,4.0008 L5.0003,4.0008 L5.0003,12.0008 L7.0003,12.0008 L7.0003,4.0008 L9.0003,4.0008 L6.0003,-0.0002 Z"/> </symbol><symbol viewBox="0 0 16 16" id="icon-user-accept-solid"><title>User Accept (solid)</title>  <path d="M11.5,7 C9.015,7 7,9.015 7,11.5 C7,13.985 9.015,16 11.5,16 C13.985,16 16,13.985 16,11.5 C16,9.015 13.985,7 11.5,7 Z M11.1279,14 L8.9999,11.985 L9.6909,11.263 L11.0239,12.527 L13.2049,9.715 L13.9899,10.334 L11.1279,14 Z M6,0 C3.791,0 2,1.791 2,4 L2,6 C2,8 2.809,9.307 4,10 L4,11 C2.241,11.224 0.938,11.744 0,12.289 L0,13 L0,13.464 L0,15 L0,16 L1,16 L7,16 L7.024,16 L7.024,15 L7,15 L1,15 L1,12.885 C1.786,12.503 2.808,12.16 4.126,11.992 L5,11.881 L5,11 L5,10 L5,9.425 L4.503,9.136 C3.52,8.563 3,7.479 3,6 L3,4 C3,2.346 4.346,1 6,1 C7.654,1 9,2.346 9,4 L9,6 L10,6 L10,4 C10,1.791 8.209,0 6,0 Z"/> </symbol><symbol viewBox="0 0 16 16" id="icon-user-accept"><title>User Accept</title>  <path d="M11.5,15 C9.57,15 8,13.43 8,11.5 C8,9.57 9.57,8 11.5,8 C13.43,8 15,9.57 15,11.5 C15,13.43 13.43,15 11.5,15 M11.5,7 C9.015,7 7,9.015 7,11.5 C7,13.985 9.015,16 11.5,16 C13.985,16 16,13.985 16,11.5 C16,9.015 13.985,7 11.5,7 Z M13.2051,9.7148 L11.0241,12.5268 L9.6911,11.2628 L9.0001,11.9858 L11.1281,13.9998 L13.9901,10.3338 L13.2051,9.7148 Z M1,15 L1,12.885 C1.786,12.503 2.808,12.16 4.126,11.992 L5,11.881 L5,11 L5,10 L5,9.425 L4.503,9.136 C3.52,8.563 3,7.479 3,6 L3,4 C3,2.346 4.346,1 6,1 C7.654,1 9,2.346 9,4 L9,6 L10,6 L10,4 C10,1.791 8.209,0 6,0 C3.791,0 2,1.791 2,4 L2,6 C2,8 2.809,9.307 4,10 L4,11 C2.241,11.224 0.938,11.744 0,12.289 L0,13 L0,13.464 L0,15 L0,16 L1,16 L7,16 L7.024,16 L7.024,15 L7,15 L1,15 Z"/> </symbol><symbol viewBox="0 0 16 16" id="icon-user-add-solid"><title>User Add (solid)</title>  <path d="M11.5,7 C9.015,7 7,9.015 7,11.5 C7,13.985 9.015,16 11.5,16 C13.985,16 16,13.985 16,11.5 C16,9.015 13.985,7 11.5,7 Z M14,11 L12,11 L12,9 L11,9 L11,11 L9,11 L9,12 L11,12 L11,14 L12,14 L12,12 L14,12 L14,11 Z M6,0 C3.791,0 2,1.791 2,4 L2,6 C2,8 2.809,9.307 4,10 L4,11 C2.241,11.224 0.938,11.744 0,12.289 L0,13 L0,13.464 L0,15 L0,16 L1,16 L7,16 L7.024,16 L7.024,15 L7,15 L1,15 L1,12.885 C1.786,12.503 2.808,12.16 4.126,11.992 L5,11.881 L5,11 L5,10 L5,9.425 L4.503,9.136 C3.52,8.563 3,7.479 3,6 L3,4 C3,2.346 4.346,1 6,1 C7.654,1 9,2.346 9,4 L9,6 L10,6 L10,4 C10,1.791 8.209,0 6,0 Z"/> </symbol><symbol viewBox="0 0 16 16" id="icon-user-add"><title>User Add</title>  <path d="M11.5,7 C9.015,7 7,9.015 7,11.5 C7,13.985 9.015,16 11.5,16 C13.985,16 16,13.985 16,11.5 C16,9.015 13.985,7 11.5,7 M11.5,8 C13.43,8 15,9.57 15,11.5 C15,13.43 13.43,15 11.5,15 C9.57,15 8,13.43 8,11.5 C8,9.57 9.57,8 11.5,8 Z M14,11 L12,11 L12,9 L11,9 L11,11 L9,11 L9,12 L11,12 L11,14 L12,14 L12,12 L14,12 L14,11 Z M6,0 C3.791,0 2,1.791 2,4 L2,6 C2,8 2.809,9.307 4,10 L4,11 C2.241,11.224 0.938,11.744 0,12.289 L0,13 L0,13.464 L0,15 L0,16 L1,16 L7,16 L7.024,16 L7.024,15 L7,15 L1,15 L1,12.885 C1.786,12.503 2.808,12.16 4.126,11.992 L5,11.881 L5,11 L5,10 L5,9.425 L4.503,9.136 C3.52,8.563 3,7.479 3,6 L3,4 C3,2.346 4.346,1 6,1 C7.654,1 9,2.346 9,4 L9,6 L10,6 L10,4 C10,1.791 8.209,0 6,0 Z"/> </symbol><symbol viewBox="0 0 16 16" id="icon-user-assign-solid"><title>User Assign (solid)</title>  <path d="M11.5,7 C9.015,7 7,9.015 7,11.5 C7,13.985 9.015,16 11.5,16 C13.985,16 16,13.985 16,11.5 C16,9.015 13.985,7 11.5,7 Z M11.1213,9.3787 L9.7073,10.7927 L9.0003,11.4997 L9.7073,12.2067 L11.1213,13.6217 L11.8283,12.9147 L10.9143,11.9997 L14.0003,11.9997 L14.0003,10.9997 L10.9143,10.9997 L11.8283,10.0857 L11.1213,9.3787 Z M6,0 C3.791,0 2,1.791 2,4 L2,6 C2,8 2.809,9.307 4,10 L4,11 C2.241,11.224 0.938,11.744 0,12.289 L0,13 L0,13.464 L0,15 L0,16 L1,16 L7,16 L7.024,16 L7.024,15 L7,15 L1,15 L1,12.885 C1.786,12.503 2.808,12.16 4.126,11.992 L5,11.881 L5,11 L5,10 L5,9.425 L4.503,9.136 C3.52,8.563 3,7.479 3,6 L3,4 C3,2.346 4.346,1 6,1 C7.654,1 9,2.346 9,4 L9,6 L10,6 L10,4 C10,1.791 8.209,0 6,0 Z"/> </symbol><symbol viewBox="0 0 16 16" id="icon-user-assign"><title>User Assign</title>  <path d="M11.5,7 C9.015,7 7,9.015 7,11.5 C7,13.985 9.015,16 11.5,16 C13.985,16 16,13.985 16,11.5 C16,9.015 13.985,7 11.5,7 M11.5,8 C13.43,8 15,9.57 15,11.5 C15,13.43 13.43,15 11.5,15 C9.57,15 8,13.43 8,11.5 C8,9.57 9.57,8 11.5,8 Z M11.1213,9.3787 L9.7073,10.7927 L9.0003,11.4997 L9.7073,12.2067 L11.1213,13.6217 L11.8283,12.9147 L10.9143,11.9997 L14.0003,11.9997 L14.0003,10.9997 L10.9143,10.9997 L11.8283,10.0857 L11.1213,9.3787 Z M6,0 C3.791,0 2,1.791 2,4 L2,6 C2,8 2.809,9.307 4,10 L4,11 C2.241,11.224 0.938,11.744 0,12.289 L0,13 L0,13.464 L0,15 L0,16 L1,16 L7,16 L7.024,16 L7.024,15 L7,15 L1,15 L1,12.885 C1.786,12.503 2.808,12.16 4.126,11.992 L5,11.881 L5,11 L5,10 L5,9.425 L4.503,9.136 C3.52,8.563 3,7.479 3,6 L3,4 C3,2.346 4.346,1 6,1 C7.654,1 9,2.346 9,4 L9,6 L10,6 L10,4 C10,1.791 8.209,0 6,0 Z"/> </symbol><symbol viewBox="0 0 16 16" id="icon-user-group-solid"><title>User Group (solid)</title>  <path d="M7.06,12.172 C7.636,11.626 8,10.857 8,10 L8,8 C8,6.343 6.657,5 5,5 C3.343,5 2,6.343 2,8 L2,10 C2,10.857 2.364,11.626 2.94,12.172 C1.476,12.488 0,13.392 0,16 L5,16 L10,16 C10,13.392 8.524,12.488 7.06,12.172 Z M13.06,7.172 C13.636,6.626 14,5.857 14,5 L14,3 C14,1.343 12.657,0 11,0 C9.343,0 8,1.343 8,3 L8,5 C8,6.657 9.343,8 11,8 C13.097,8 14.517,8.362 14.897,10 L11,10 L9,10 L9,11 L11,11 L16,11 C16,8.392 14.524,7.488 13.06,7.172 Z M9,5 L9,3 C9,1.897 9.897,1 11,1 C12.103,1 13,1.897 13,3 L13,5 C13,6.103 12.103,7 11,7 C9.897,7 9,6.103 9,5 Z"/> </symbol><symbol viewBox="0 0 16 16" id="icon-user-group"><title>User Group</title>  <path d="M5,15 L1.103,15 C1.483,13.362 2.903,13 5,13 C7.097,13 8.517,13.362 8.897,15 L5,15 Z M3,10 L3,8 C3,6.897 3.897,6 5,6 C6.103,6 7,6.897 7,8 L7,10 C7,11.103 6.103,12 5,12 C3.897,12 3,11.103 3,10 L3,10 Z M7.06,12.172 C7.636,11.626 8,10.857 8,10 L8,8 C8,6.343 6.657,5 5,5 C3.343,5 2,6.343 2,8 L2,10 C2,10.857 2.364,11.626 2.94,12.172 C1.476,12.488 0,13.392 0,16 L5,16 L10,16 C10,13.392 8.524,12.488 7.06,12.172 Z M13.06,7.172 C13.636,6.626 14,5.857 14,5 L14,3 C14,1.343 12.657,0 11,0 C9.343,0 8,1.343 8,3 L8,5 C8,6.657 9.343,8 11,8 C13.097,8 14.517,8.362 14.897,10 L11,10 L9,10 L9,11 L11,11 L16,11 C16,8.392 14.524,7.488 13.06,7.172 Z M9,5 L9,3 C9,1.897 9.897,1 11,1 C12.103,1 13,1.897 13,3 L13,5 C13,6.103 12.103,7 11,7 C9.897,7 9,6.103 9,5 Z"/> </symbol><symbol viewBox="0 0 16 16" id="icon-user-promote-solid"><title>User Promote (solid)</title>  <path d="M11.5,7 C9.015,7 7,9.015 7,11.5 C7,13.985 9.015,16 11.5,16 C13.985,16 16,13.985 16,11.5 C16,9.015 13.985,7 11.5,7 Z M13.6213,11.1213 L12.2073,9.7073 L11.5003,9.0003 L10.7933,9.7073 L9.3783,11.1213 L10.0853,11.8283 L11.0003,10.9143 L11.0003,14.0003 L12.0003,14.0003 L12.0003,10.9143 L12.9143,11.8283 L13.6213,11.1213 Z M6,0 C3.791,0 2,1.791 2,4 L2,6 C2,8 2.809,9.307 4,10 L4,11 C2.241,11.224 0.938,11.744 0,12.289 L0,13 L0,13.464 L0,15 L0,16 L1,16 L7,16 L7.024,16 L7.024,15 L7,15 L1,15 L1,12.885 C1.786,12.503 2.808,12.16 4.126,11.992 L5,11.881 L5,11 L5,10 L5,9.425 L4.503,9.136 C3.52,8.563 3,7.479 3,6 L3,4 C3,2.346 4.346,1 6,1 C7.654,1 9,2.346 9,4 L9,6 L10,6 L10,4 C10,1.791 8.209,0 6,0 Z"/> </symbol><symbol viewBox="0 0 16 16" id="icon-user-promote"><title>User Promote</title>  <path d="M11.5,7 C9.015,7 7,9.015 7,11.5 C7,13.985 9.015,16 11.5,16 C13.985,16 16,13.985 16,11.5 C16,9.015 13.985,7 11.5,7 M11.5,8 C13.43,8 15,9.57 15,11.5 C15,13.43 13.43,15 11.5,15 C9.57,15 8,13.43 8,11.5 C8,9.57 9.57,8 11.5,8 Z M13.6213,11.1213 L12.2073,9.7073 L11.5003,9.0003 L10.7933,9.7073 L9.3783,11.1213 L10.0853,11.8283 L11.0003,10.9143 L11.0003,14.0003 L12.0003,14.0003 L12.0003,10.9143 L12.9143,11.8283 L13.6213,11.1213 Z M6,0 C3.791,0 2,1.791 2,4 L2,6 C2,8 2.809,9.307 4,10 L4,11 C2.241,11.224 0.938,11.744 0,12.289 L0,13 L0,13.464 L0,15 L0,16 L1,16 L7,16 L7.024,16 L7.024,15 L7,15 L1,15 L1,12.885 C1.786,12.503 2.808,12.16 4.126,11.992 L5,11.881 L5,11 L5,10 L5,9.425 L4.503,9.136 C3.52,8.563 3,7.479 3,6 L3,4 C3,2.346 4.346,1 6,1 C7.654,1 9,2.346 9,4 L9,6 L10,6 L10,4 C10,1.791 8.209,0 6,0 Z"/> </symbol><symbol viewBox="0 0 16 16" id="icon-user-remove-solid"><title>User Remove (solid)</title>  <path d="M11.5,7 C9.015,7 7,9.015 7,11.5 C7,13.985 9.015,16 11.5,16 C13.985,16 16,13.985 16,11.5 C16,9.015 13.985,7 11.5,7 Z M13.6213,12.9142 L12.2073,11.5002 L13.6213,10.0862 L12.9143,9.3782 L11.5003,10.7932 L10.0853,9.3782 L9.3783,10.0862 L10.7933,11.5002 L9.3783,12.9142 L10.0853,13.6212 L11.5003,12.2072 L12.9143,13.6212 L13.6213,12.9142 Z M6,0 C3.791,0 2,1.791 2,4 L2,6 C2,8 2.809,9.307 4,10 L4,11 C2.241,11.224 0.938,11.744 0,12.289 L0,13 L0,13.464 L0,15 L0,16 L1,16 L7,16 L7.024,16 L7.024,15 L7,15 L1,15 L1,12.885 C1.786,12.503 2.808,12.16 4.126,11.992 L5,11.881 L5,11 L5,10 L5,9.425 L4.503,9.136 C3.52,8.563 3,7.479 3,6 L3,4 C3,2.346 4.346,1 6,1 C7.654,1 9,2.346 9,4 L9,6 L10,6 L10,4 C10,1.791 8.209,0 6,0 Z"/> </symbol><symbol viewBox="0 0 16 16" id="icon-user-remove"><title>User Remove</title>  <path d="M11.5,7 C9.015,7 7,9.015 7,11.5 C7,13.985 9.015,16 11.5,16 C13.985,16 16,13.985 16,11.5 C16,9.015 13.985,7 11.5,7 M11.5,8 C13.43,8 15,9.57 15,11.5 C15,13.43 13.43,15 11.5,15 C9.57,15 8,13.43 8,11.5 C8,9.57 9.57,8 11.5,8 Z M13.6213,12.9142 L12.2073,11.5002 L13.6213,10.0862 L12.9143,9.3782 L11.5003,10.7932 L10.0853,9.3782 L9.3783,10.0862 L10.7933,11.5002 L9.3783,12.9142 L10.0853,13.6212 L11.5003,12.2072 L12.9143,13.6212 L13.6213,12.9142 Z M6,0 C3.791,0 2,1.791 2,4 L2,6 C2,8 2.809,9.307 4,10 L4,11 C2.241,11.224 0.938,11.744 0,12.289 L0,13 L0,13.464 L0,15 L0,16 L1,16 L7,16 L7.024,16 L7.024,15 L7,15 L1,15 L1,12.885 C1.786,12.503 2.808,12.16 4.126,11.992 L5,11.881 L5,11 L5,10 L5,9.425 L4.503,9.136 C3.52,8.563 3,7.479 3,6 L3,4 C3,2.346 4.346,1 6,1 C7.654,1 9,2.346 9,4 L9,6 L10,6 L10,4 C10,1.791 8.209,0 6,0 Z"/> </symbol><symbol viewBox="0 0 16 16" id="icon-user-solid"><title>User (solid)</title>  <path d="M8,0 C5.791,0 4,1.791 4,4 L4,6 C4,8 4.809,9.307 6,10 L6,11 C1.575,11.563 0,14 0,14 L0,16 L7.976,16 L8.024,16 L16,16 L16,14 C16,14 14.425,11.563 10,11 L10,10 C11.191,9.307 12,8 12,6 L12,4 C12,1.791 10.209,0 8,0 Z"/> </symbol><symbol viewBox="0 0 16 16" id="icon-user"><title>User</title>  <path d="M8,0 C5.791,0 4,1.791 4,4 L4,6 C4,8 4.809,9.307 6,10 L6,11 C1.575,11.563 0,14 0,14 L0,16 L7.976,16 L8.024,16 L16,16 L16,14 C16,14 14.425,11.563 10,11 L10,10 C11.191,9.307 12,8 12,6 L12,4 C12,1.791 10.209,0 8,0 M8,1 C9.654,1 11,2.346 11,4 L11,6 C11,7.479 10.48,8.563 9.497,9.136 L9,9.425 L9,10 L9,11 L9,11.881 L9.874,11.992 C13.04,12.395 14.539,13.808 15,14.341 L15,15 L7.976,15 L1,15 L1,14.342 C1.468,13.802 2.968,12.394 6.126,11.992 L7,11.881 L7,11 L7,10 L7,9.425 L6.503,9.136 C5.52,8.563 5,7.479 5,6 L5,4 C5,2.346 6.346,1 8,1"/> </symbol><symbol viewBox="0 0 16 16" id="icon-valid-solid"><title>Valid (solid)</title>  <path d="M8,0 C3.582,0 0,3.582 0,8 C0,12.418 3.582,16 8,16 C12.418,16 16,12.418 16,8 C16,3.582 12.418,0 8,0 Z M7.0898,13.0039 L2.7928,8.7069 L4.2068,7.2929 L6.9098,9.9959 L11.7138,3.8819 L13.2858,5.1179 L7.0898,13.0039 Z"/> </symbol><symbol viewBox="0 0 16 16" id="icon-valid"><title>icon-valid</title>  <path d="M8,0 C3.582,0 0,3.582 0,8 C0,12.418 3.582,16 8,16 C12.418,16 16,12.418 16,8 C16,3.582 12.418,0 8,0 M8,1 C11.86,1 15,4.14 15,8 C15,11.86 11.86,15 8,15 C4.14,15 1,11.86 1,8 C1,4.14 4.14,1 8,1 Z M7.0898,13.0039 L2.7928,8.7069 L4.2068,7.2929 L6.9098,9.9959 L11.7138,3.8819 L13.2858,5.1179 L7.0898,13.0039 Z"/> </symbol><symbol viewBox="0 0 16 16" id="icon-zoom-in-solid"><title>Zoom In solid</title>  <path d="M7,5 L7,3 L5,3 L5,5 L3,5 L3,7 L5,7 L5,9 L7,9 L7,7 L9,7 L9,5 L7,5 Z M16,15.293 L10.579,9.872 C11.464,8.827 12,7.477 12,6 C12,2.686 9.314,0 6,0 C2.686,0 0,2.686 0,6 C0,9.314 2.686,12 6,12 C7.477,12 8.827,11.464 9.872,10.579 L15.293,16 L16,15.293 Z"/> </symbol><symbol viewBox="0 0 16 16" id="icon-zoom-in"><title>Zoom In</title>  <path d="M7,5 L7,3 L5,3 L5,5 L3,5 L3,7 L5,7 L5,9 L7,9 L7,7 L9,7 L9,5 L7,5 Z M16,15.293 L10.579,9.872 C11.464,8.827 12,7.477 12,6 C12,2.686 9.314,0 6,0 C2.686,0 0,2.686 0,6 C0,9.314 2.686,12 6,12 C7.477,12 8.827,11.464 9.872,10.579 L15.293,16 L16,15.293 Z M1.091,6 C1.091,3.293 3.293,1.091 6,1.091 C8.707,1.091 10.909,3.293 10.909,6 C10.909,8.707 8.707,10.909 6,10.909 C3.293,10.909 1.091,8.707 1.091,6 Z"/> </symbol><symbol viewBox="0 0 16 16" id="icon-zoom-out-solid"><title>Zoom Out solid</title>  <path d="M16,15.293 L10.579,9.872 C11.464,8.827 12,7.477 12,6 C12,2.686 9.314,0 6,0 C2.686,0 0,2.686 0,6 C0,9.314 2.686,12 6,12 C7.477,12 8.827,11.464 9.872,10.579 L15.293,16 L16,15.293 Z M3,5 L9,5 L9,7 L3,7 L3,5 Z"/> </symbol><symbol viewBox="0 0 16 16" id="icon-zoom-out"><title>Zoom Out</title>  <path d="M16,15.293 L10.579,9.872 C11.464,8.827 12,7.477 12,6 C12,2.686 9.314,0 6,0 C2.686,0 0,2.686 0,6 C0,9.314 2.686,12 6,12 C7.477,12 8.827,11.464 9.872,10.579 L15.293,16 L16,15.293 Z M1.091,6 C1.091,3.293 3.293,1.091 6,1.091 C8.707,1.091 10.909,3.293 10.909,6 C10.909,8.707 8.707,10.909 6,10.909 C3.293,10.909 1.091,8.707 1.091,6 Z M3,5 L9,5 L9,7 L3,7 L3,5 Z"/> </symbol></svg>