<?xml version="1.0" encoding="UTF-8" standalone="no"?>
<svg viewBox="0 0 16 16" version="1.1" xmlns="http://www.w3.org/2000/svg" xmlns:xlink="http://www.w3.org/1999/xlink">
    <title>Clipboard (solid)</title>
    <path d="M10,4 L6,4 L6,3 L6.008,3 L7.008,3 L7.008,2 L7.013,1 L8.996,1 L9,1.004 L9,2 L9,3 L10,3 L10,4 L10,4 Z M5,3 L5,2 L6.008,2 L6.008,1.004 C6.008,0.45 6.458,0 7.013,0 L8.996,0 C9.55,0 10,0.45 10,1.004 L10,2 L11,2 L11,3 L14,3 L14,16 L2,16 L2,3 L5,3 Z M4,9 L12,9 L12,8 L4,8 L4,9 Z M4,12 L12,12 L12,11 L4,11 L4,12 Z"></path>
</svg>
