<?xml version="1.0" encoding="UTF-8"?>
<svg viewBox="0 0 16 16" version="1.1" xmlns="http://www.w3.org/2000/svg" xmlns:xlink="http://www.w3.org/1999/xlink">
    <title>Rocket solid</title>
    <path d="M10.9553542,10.2797526 C14.025294,7.90311731 16.002,4.18324239 16.002,0 C11.82023,0 8.10150134,1.97531467 5.72475746,5.04340453 L0.367319244,6.51792551 L5.55111512e-17,6.61902232 L0,7 L0,9.5 L0,10 L0.5,10 L3.35460074,10 C3.33200846,10.0955969 3.31047055,10.1916012 3.28999996,10.288 L5.71399996,12.712 C5.80972649,12.6916722 5.90506408,12.6702918 6,12.6478717 L6,15.5 L6,16 L6.5,16 L9,16 L9.38097768,16 L9.48207449,15.6326808 L10.9553542,10.2797526 Z M9.67237072,11.1559607 C8.83772609,11.655707 7.94236305,12.0645539 7,12.368839 L7,15 L8.59997559,15 L9.67237072,11.1559607 Z M4.85137075,6.32073293 C4.3495543,7.15732032 3.93910652,8.0550213 3.63380691,9 L1,9 L1,7.38000011 L4.85137075,6.32073293 Z M13.492,5.783 L10.219,2.51 C11.657,1.712 13.263,1.196 14.956,1.046 C14.806,2.739 14.29,4.345 13.492,5.783 Z"></path>
</svg>
