<?xml version="1.0" encoding="UTF-8" standalone="no"?>
<svg viewBox="0 0 15 16" version="1.1" xmlns="http://www.w3.org/2000/svg" xmlns:xlink="http://www.w3.org/1999/xlink">
    <title>Dot Graph</title>
    <path d="M0,-0.0002 L0,14.9998 L0,15.9998 L1,15.9998 L15,15.9998 L15,14.9998 L1,14.9998 L1,-0.0002 L0,-0.0002 Z M2,13 L3,13 L3,14 L2,14 L2,13 Z M4,12 L5,12 L5,13 L4,13 L4,12 Z M4,10 L5,10 L5,11 L4,11 L4,10 Z M6,11 L7,11 L7,12 L6,12 L6,11 Z M6,8 L7,8 L7,9 L6,9 L6,8 Z M8,8 L9,8 L9,9 L8,9 L8,8 Z M7,6 L8,6 L8,7 L7,7 L7,6 Z M9,5 L10,5 L10,6 L9,6 L9,5 Z M11,3 L12,3 L12,4 L11,4 L11,3 Z M13,2 L14,2 L14,3 L13,3 L13,2 Z"></path>
</svg>
