<?xml version="1.0" encoding="UTF-8" standalone="no"?>
<svg viewBox="0 0 12 16" version="1.1" xmlns="http://www.w3.org/2000/svg" xmlns:xlink="http://www.w3.org/1999/xlink">
    <title>Bold</title>
    <path d="M0,0 L4.86798965,0 C7.12626956,0 8.75826359,0.321018222 9.76402071,0.963064295 C10.7697778,1.60511037 11.2726488,2.61923611 11.2726488,4.00547196 C11.2726488,4.93935715 11.0258869,5.71636717 10.5323555,6.33652531 C10.0388241,6.95668345 9.3284487,7.34701242 8.40120794,7.50752394 L8.40120794,7.61696306 C9.55278114,7.82854643 10.3996234,8.24623491 10.9417601,8.87004104 C11.4838969,9.49384717 11.7549612,10.338344 11.7549612,11.4035568 C11.7549612,12.8408645 11.2408737,13.9662522 10.2126833,14.7797538 C9.18449299,15.5932553 7.75439513,16 5.92234685,16 L0,16 L0,0 Z M2.68075928,6.61012312 L5.26056946,6.61012312 C6.38223167,6.61012312 7.2010328,6.43684624 7.71699741,6.09028728 C8.23296203,5.74372832 8.49094047,5.15458692 8.49094047,4.32284542 C8.49094047,3.57135967 8.21239853,3.02781746 7.6553063,2.69220246 C7.09821407,2.35658747 6.21398362,2.18878249 5.00258844,2.18878249 L2.68075928,2.18878249 L2.68075928,6.61012312 Z M2.68075928,8.73324213 L2.68075928,13.8002736 L5.52976704,13.8002736 C6.65142925,13.8002736 7.49827151,13.5905174 8.07031924,13.1709986 C8.64236697,12.7514799 8.92838654,12.0893798 8.92838654,11.1846785 C8.92838654,10.352937 8.63675874,9.73643611 8.05349439,9.33515732 C7.47023004,8.93387852 6.58413019,8.73324213 5.39516825,8.73324213 L2.68075928,8.73324213 Z"></path>
</svg>
