<?xml version="1.0" encoding="UTF-8"?>
<svg viewBox="0 0 15 16" version="1.1" xmlns="http://www.w3.org/2000/svg" xmlns:xlink="http://www.w3.org/1999/xlink">
    <title>Phone</title>
    <path d="M2.70667403,1.29317937 C2.31669978,0.903240375 1.68797519,0.899692105 1.28960651,1.29802479 L0,2.58751473 C0,9.76888745 5.82163889,15.5900002 13.0036607,15.5900002 L14.2932673,14.3005102 C14.6859178,13.9078952 14.6902623,13.2756845 14.2981131,12.8835708 L11.7092084,10.2949 C11.3192341,9.90496105 10.6905096,9.90141278 10.2921409,10.2997455 L9.00253436,11.5892354 L4.00112638,6.58827948 L5.29073289,5.29878953 C5.68338342,4.90617449 5.6877279,4.27396381 5.29557874,3.88185009 L2.70667403,1.29317937 Z M4.5872914,4.5878971 L3.2939273,5.88114431 L3.29189859,5.88317283 C2.90244374,6.27259248 2.90722096,6.90874326 3.29189859,7.29338612 L3.2939273,7.29541465 L8.29533527,12.2963706 L8.29736398,12.2983991 C8.68681883,12.6878187 9.32302711,12.683042 9.70770474,12.2983991 L9.70973345,12.2963706 L11.0030976,11.0031234 L13.5898258,13.5896178 L12.5965461,14.5828076 C6.30077377,14.3717673 1.21834298,9.28979587 1.00728357,2.99459254 L2.00056319,2.0014027 L4.5872914,4.5878971 Z"></path>
</svg>
