<?xml version="1.0" encoding="UTF-8" standalone="no"?>
<svg viewBox="0 0 16 16" version="1.1" xmlns="http://www.w3.org/2000/svg" xmlns:xlink="http://www.w3.org/1999/xlink">
    <title>Bell</title>
    <path d="M15,13 L1,13 L1,11.98 C2.66,11.98 4,10.64 4,8.98 L4,5 C4,3.64 4.93,2.45 6.26,2.11 L6.56,2.03 L6.76,1.8 L7.1,1.41 C7.32,1.15 7.66,1 8,1 C8.35,1 8.68,1.15 8.91,1.41 L9.26,1.81 L9.46,2.03 L9.75,2.11 C11.08,2.46 12,3.65 12,5 L12,8.98 C12,10.64 13.35,11.98 15,11.98 L15,13 Z M5.18,14 L0,14 L0,11.98 C0,11.43 0.45,10.98 1,10.98 C2.11,10.98 3,10.09 3,8.98 L3,5 C3,3.14 4.28,1.58 6.01,1.14 L6.34,0.76 C6.76,0.28 7.37,0 8,0 C8.64,0 9.24,0.27 9.66,0.75 L10.01,1.14 C11.73,1.59 13,3.14 13,5 L13,8.98 C13,9.54 13.22,10.04 13.58,10.4 C13.94,10.76 14.44,10.98 15,10.98 C15.55,10.98 16,11.43 16,11.98 L16,14 L10.82,14 C10.42,15.17 9.31,16 8,16 C6.69,16 5.58,15.17 5.18,14 Z M6.27,14 L9.73,14 C9.38,14.6 8.74,15 8,15 C7.26,15 6.62,14.6 6.27,14 Z"></path>
</svg>
