<?xml version="1.0" encoding="UTF-8"?>
<svg viewBox="0 0 16 16" version="1.1" xmlns="http://www.w3.org/2000/svg" xmlns:xlink="http://www.w3.org/1999/xlink">
    <title>Briefcase solid</title>
    <path d="M4.00004081,4 L1.00087166,4 C0.444630861,4 0,4.44573523 0,4.9955775 L0,14.0044225 C0,14.555163 0.448105505,15 1.00087166,15 L14.9991283,15 C15.5553691,15 16,14.5542648 16,14.0044225 L16,4.9955775 C16,4.44483697 15.5518945,4 14.9991283,4 L11.9999573,4 C11.9999858,3.99688039 12,3.99375741 12,3.9906311 L12,2.0093689 C12,1.44335318 11.5536144,1 11.0029699,1 L4.99703014,1 C4.45303631,1 4,1.45190985 4,2.0093689 L4,3.9906311 C4,3.99375783 4.00001362,3.99688081 4.00004081,4 Z M5.99077797,8 L10.009222,8 C10.5564136,8 11,8.44266033 11,8.99895656 L11,10.0010434 C11,10.5527519 10.5490248,11 10.009222,11 L5.99077797,11 C5.44358641,11 5,10.5573397 5,10.0010434 L5,8.99895656 C5,8.44724809 5.45097518,8 5.99077797,8 Z M6,10.0010434 C6,10.0045963 10.009222,10 10.009222,10 C9.99860066,10 10,8.99895656 10,8.99895656 C10,8.99540369 5.99077797,9 5.99077797,9 C6.00139934,9 6,10.0010434 6,10.0010434 Z M5,3.9906311 C5,4.00284038 4.99717781,4 4.99703014,4 L11.0029699,4 C10.9952443,4 11,3.99520756 11,3.9906311 L11,2.0093689 C11,1.99715962 11.0028222,2 11.0029699,2 L4.99703014,2 C5.00475567,2 5,2.00479244 5,2.0093689 L5,3.9906311 Z M1,9 L5,9 L5,10 L1,10 L1,9 Z M11,9 L15,9 L15,10 L11,10 L11,9 Z"></path>
</svg>
