<?xml version="1.0" encoding="UTF-8"?>
<svg viewBox="0 0 16 16" version="1.1" xmlns="http://www.w3.org/2000/svg" xmlns:xlink="http://www.w3.org/1999/xlink">
    <title>Filter</title>
    <path d="M2.00684547,1 C1.45078007,1 1.25482476,1.35675466 1.58334909,1.81668873 L6,8 L6,13.9970707 C6,14.5509732 6.35497332,14.7338588 6.79984599,14.4003155 L9.76176071,12.1796199 C9.89333664,12.0809709 10,11.8678796 10,11.7002747 L10,8 L14.4166509,1.81668873 C14.7388257,1.365644 14.5500512,1 13.9931545,1 L2.00684547,1 Z M7,8 L7,7.667 L6.8,7.4 L3,2 L13,2 L9.2,7.4 L9,7.667 L9,8 L9,11.5 L7,13.0600004 L7,8 Z"></path>
</svg>
