<?xml version="1.0" encoding="UTF-8" standalone="no"?>
<svg viewBox="0 0 8 16" version="1.1" xmlns="http://www.w3.org/2000/svg" xmlns:xlink="http://www.w3.org/1999/xlink">
    <title>Clippie</title>
    <path d="M8,3 L8,12 C8,14.21 6.21,16 4,16 C1.79,16 0,14.21 0,12 L0,3 C0,1.34 1.34,0 3,0 C4.66,0 6,1.34 6,3 L6,12 C6,13.1 5.1,14 4,14 C2.9,14 2,13.1 2,12 L2,4 L3,4 L3,12 C3,12.55 3.45,13 4,13 C4.55,13 5,12.55 5,12 L5,3 C5,1.9 4.1,1 3,1 C1.9,1 1,1.9 1,3 L1,12 C1,13.65 2.35,15 4,15 C5.65,15 7,13.65 7,12 L7,3 L8,3 Z"></path>
</svg>
