<?xml version="1.0" encoding="UTF-8"?>
<svg viewBox="0 0 16 16" version="1.1" xmlns="http://www.w3.org/2000/svg" xmlns:xlink="http://www.w3.org/1999/xlink">
    <title>New Message solid</title>
    <path d="M0,0 L16,0 L16,16 L0,16 L0,0 Z M9,2 L2,2 L2,14 L14,14 L14,7 L15,7 L15,15 L14,15 L1,15 L1,1 L9,1 L9,2 Z M11.8764256,1.29445855 C12.2679158,0.902968381 12.8987793,0.899100928 13.2990129,1.29933448 L14.6999768,2.70029842 C15.0941599,3.0944815 15.0914367,3.73630168 14.7048527,4.12288568 L6.92842703,11.8993114 L4.11251583,11.9118273 L4.0999999,9.07088426 L11.8764256,1.29445855 Z M10.4639609,2.70692323 L13.2923881,5.53535036 L12.5852813,6.24245714 L9.75685415,3.41403001 L10.4639609,2.70692323 Z"></path>
</svg>
