<?xml version="1.0" encoding="UTF-8" standalone="no"?>
<svg viewBox="0 0 16 16" version="1.1" xmlns="http://www.w3.org/2000/svg" xmlns:xlink="http://www.w3.org/1999/xlink">
    <title>Share</title>
    <path d="M10,2 L10,5 C3.78,5 2.396,10.397 2.088,12.833 C2.075,12.935 2.153,12.996 2.233,12.996 C2.289,12.996 2.345,12.967 2.374,12.902 C3.96,9.305 8.089,8.985 9.511,8.985 C9.819,8.985 10,9 10,9 L10,12 L16,7 L10,2 Z M11,4.135 L14.438,7 L11,9.865 L11,9 L10.996,8.083 L10.083,8.003 C10.083,8.003 9.871,7.985 9.511,7.985 C8.574,7.985 6.181,8.126 4.128,9.418 C5.085,7.588 6.829,6 10,6 L11,6 L11,5 L11,4.135 Z M15,9 L15,15 L1,15 L1,8 L2,8 L2,7 L1,7 L0,7 L0,8 L0,15 L0,16 L1,16 L15,16 L16,16 L16,15 L16,9 L15,9 Z"></path>
</svg>
