<?xml version="1.0" encoding="UTF-8" standalone="no"?>
<svg viewBox="0 0 16 16" version="1.1" xmlns="http://www.w3.org/2000/svg" xmlns:xlink="http://www.w3.org/1999/xlink">
    <title>Cloud (solid)</title>
    <path d="M6,3 C3.791,3 2,4.791 2,7 C2,7.061 2.015,7.118 2.018,7.178 C0.846,7.586 0,8.689 0,10 C0,11.657 1.343,13 3,13 L13,13 C14.657,13 16,11.657 16,10 C16,8.513 14.915,7.287 13.495,7.05 C13.495,7.033 13.5,7.017 13.5,7 C13.5,5.619 12.381,4.5 11,4.5 C10.419,4.5 9.891,4.706 9.466,5.039 C8.779,3.827 7.493,3 6,3 Z"></path>
</svg>
