<?xml version="1.0" encoding="UTF-8" standalone="no"?>
<svg viewBox="0 0 16 16" version="1.1" xmlns="http://www.w3.org/2000/svg" xmlns:xlink="http://www.w3.org/1999/xlink">
    <title>Attention</title>
    <path d="M8,0 C3.582,0 0,3.582 0,8 C0,12.418 3.582,16 8,16 C12.418,16 16,12.418 16,8 C16,3.582 12.418,0 8,0 M8,1 C11.86,1 15,4.14 15,8 C15,11.86 11.86,15 8,15 C4.14,15 1,11.86 1,8 C1,4.14 4.14,1 8,1 Z M9,12 C9,12.552 8.552,13 8,13 C7.448,13 7,12.552 7,12 C7,11.448 7.448,11 8,11 C8.552,11 9,11.448 9,12 Z M8.5,10 L7.5,10 L7,3 L9,3 L8.5,10 Z"></path>
</svg>
