<?xml version="1.0" encoding="UTF-8" standalone="no"?>
<svg viewBox="0 0 16 16" version="1.1" xmlns="http://www.w3.org/2000/svg" xmlns:xlink="http://www.w3.org/1999/xlink">
    <title>User Accept</title>
    <path d="M11.5,15 C9.57,15 8,13.43 8,11.5 C8,9.57 9.57,8 11.5,8 C13.43,8 15,9.57 15,11.5 C15,13.43 13.43,15 11.5,15 M11.5,7 C9.015,7 7,9.015 7,11.5 C7,13.985 9.015,16 11.5,16 C13.985,16 16,13.985 16,11.5 C16,9.015 13.985,7 11.5,7 Z M13.2051,9.7148 L11.0241,12.5268 L9.6911,11.2628 L9.0001,11.9858 L11.1281,13.9998 L13.9901,10.3338 L13.2051,9.7148 Z M1,15 L1,12.885 C1.786,12.503 2.808,12.16 4.126,11.992 L5,11.881 L5,11 L5,10 L5,9.425 L4.503,9.136 C3.52,8.563 3,7.479 3,6 L3,4 C3,2.346 4.346,1 6,1 C7.654,1 9,2.346 9,4 L9,6 L10,6 L10,4 C10,1.791 8.209,0 6,0 C3.791,0 2,1.791 2,4 L2,6 C2,8 2.809,9.307 4,10 L4,11 C2.241,11.224 0.938,11.744 0,12.289 L0,13 L0,13.464 L0,15 L0,16 L1,16 L7,16 L7.024,16 L7.024,15 L7,15 L1,15 Z"></path>
</svg>
