<?xml version="1.0" encoding="UTF-8" standalone="no"?>
<svg viewBox="0 0 15 16" version="1.1" xmlns="http://www.w3.org/2000/svg" xmlns:xlink="http://www.w3.org/1999/xlink">
    <title>Trash (solid)</title>
    <path d="M10.9998,1.999 L15,1.999 L15,3 L0,3 L0,1.999 L3.9998,1.999 L3.9998,1.004 C3.9998,0.449 4.4498,0 5.0038,0 L9.9968,0 C10.5508,0 10.9998,0.449 10.9998,1.004 L10.9998,1.999 Z M9.9998,1.999 L5.001802,1.999 L5.0038,1 L9.9968,1 L9.9998,1.004 L9.9998,1.999 Z M2,3 L13,3 L13,16 L2,16 L2,3 Z M10,13 L11,13 L11,5 L10,5 L10,13 Z M4,13 L5.001,13 L5.001,5 L4,5 L4,13 Z M7,13 L8,13 L8,5 L7,5 L7,13 Z"></path>
</svg>
