<?xml version="1.0" encoding="UTF-8" standalone="no"?>
<svg viewBox="0 0 14 16" version="1.1" xmlns="http://www.w3.org/2000/svg" xmlns:xlink="http://www.w3.org/1999/xlink">
    <title>Lock (solid)</title>
    <path d="M12,7 L12,5 L11.998,5 C11.998,4.995 12,4.99 12,4.984 C12,2.232 9.761,0 7,0 C4.239,0 2,2.232 2,4.984 C2,4.99 2.002,4.995 2.002,5 L2,5 L2,7 L0,7 L0,16 L14,16 L14,7 L12,7 Z M3,5 L3.002,5 C3.002,4.995 3,4.99 3,4.984 C3,2.787 4.794,1 7,1 C9.206,1 11,2.787 11,4.984 C11,4.99 10.998,4.995 10.998,5 L11,5 L11,7 L3,7 L3,5 Z"></path>
</svg>
