<?xml version="1.0" encoding="UTF-8" standalone="no"?>
<svg viewBox="0 0 16 16" version="1.1" xmlns="http://www.w3.org/2000/svg" xmlns:xlink="http://www.w3.org/1999/xlink">
    <title>Cog</title>
    <path d="M9,0 L7,0 C6.448,0 6,0.448 6,1 L6,2.349 C5.719,2.465 5.699,2.474 5.418,2.59 L4.464,1.636 C4.269,1.441 4.013,1.343 3.757,1.343 C3.501,1.343 3.245,1.441 3.05,1.636 L1.636,3.05 C1.245,3.441 1.245,4.074 1.636,4.464 L2.59,5.418 C2.474,5.699 2.465,5.72 2.349,6 L1,6 C0.448,6 0,6.448 0,7 L0,9 C0,9.552 0.448,10 1,10 L2.349,10 C2.465,10.281 2.474,10.301 2.59,10.582 L1.636,11.536 C1.246,11.926 1.245,12.559 1.636,12.95 L3.05,14.364 C3.245,14.559 3.501,14.657 3.757,14.657 C4.013,14.657 4.269,14.559 4.464,14.364 L5.418,13.41 C5.699,13.526 5.72,13.535 6,13.651 L6,15 C6,15.552 6.448,16 7,16 L9,16 C9.552,16 10,15.552 10,15 L10,13.651 C10.281,13.535 10.301,13.526 10.582,13.41 L11.536,14.364 C11.731,14.559 11.987,14.657 12.243,14.657 C12.499,14.657 12.755,14.559 12.95,14.364 L14.364,12.95 C14.755,12.559 14.754,11.926 14.364,11.536 L13.41,10.582 C13.526,10.301 13.535,10.28 13.651,10 L15,10 C15.552,10 16,9.552 16,9 L16,7 C16,6.448 15.552,6 15,6 L13.651,6 C13.535,5.719 13.526,5.699 13.41,5.418 L14.364,4.464 C14.755,4.074 14.755,3.441 14.364,3.05 L12.95,1.636 C12.755,1.441 12.499,1.343 12.243,1.343 C11.987,1.343 11.731,1.441 11.536,1.636 L10.582,2.59 C10.301,2.474 10.281,2.465 10,2.349 L10,1 C10,0.448 9.552,0 9,0 Z M9,1 L9,2.349 L9,3.017 L9.617,3.273 L9.908,3.393 L10.199,3.514 L10.816,3.769 L11.289,3.297 L12.243,2.343 L13.657,3.757 L12.703,4.711 L12.231,5.184 L12.486,5.801 L12.603,6.081 L12.727,6.383 L12.983,7 L13.651,7 L15,7 L15,9 L13.651,9 L12.982,9 L12.727,9.617 L12.605,9.911 L12.486,10.199 L12.23,10.816 L12.703,11.289 L13.657,12.243 L12.243,13.657 L11.289,12.703 L10.816,12.231 L10.199,12.486 L9.908,12.607 L9.617,12.727 L9,12.983 L9,13.651 L9,15 L7,15 L7,13.651 L7,12.983 L6.383,12.727 L5.954,12.549 L5.801,12.486 L5.184,12.23 L4.711,12.703 L3.757,13.657 L2.343,12.243 L3.297,11.289 L3.769,10.816 L3.514,10.199 L3.397,9.918 L3.273,9.617 L3.017,9 L2.349,9 L1,9 L1,7 L2.349,7 L3.018,7 L3.273,6.383 L3.394,6.092 L3.514,5.801 L3.77,5.184 L3.297,4.711 L2.343,3.757 L3.757,2.343 L4.711,3.297 L5.184,3.769 L5.801,3.514 L6.092,3.393 L6.383,3.273 L7,3.017 L7,2.349 L7,1 L9,1 Z M8,5 C6.343,5 5,6.343 5,8 C5,9.657 6.343,11 8,11 C9.657,11 11,9.657 11,8 C11,6.343 9.657,5 8,5 Z M8,6 C9.103,6 10,6.897 10,8 C10,9.103 9.103,10 8,10 C6.897,10 6,9.103 6,8 C6,6.897 6.897,6 8,6 Z"></path>
</svg>
