<?xml version="1.0" encoding="UTF-8" standalone="no"?>
<svg viewBox="0 0 16 16" version="1.1" xmlns="http://www.w3.org/2000/svg" xmlns:xlink="http://www.w3.org/1999/xlink">
    <title>User</title>
    <path d="M8,0 C5.791,0 4,1.791 4,4 L4,6 C4,8 4.809,9.307 6,10 L6,11 C1.575,11.563 0,14 0,14 L0,16 L7.976,16 L8.024,16 L16,16 L16,14 C16,14 14.425,11.563 10,11 L10,10 C11.191,9.307 12,8 12,6 L12,4 C12,1.791 10.209,0 8,0 M8,1 C9.654,1 11,2.346 11,4 L11,6 C11,7.479 10.48,8.563 9.497,9.136 L9,9.425 L9,10 L9,11 L9,11.881 L9.874,11.992 C13.04,12.395 14.539,13.808 15,14.341 L15,15 L7.976,15 L1,15 L1,14.342 C1.468,13.802 2.968,12.394 6.126,11.992 L7,11.881 L7,11 L7,10 L7,9.425 L6.503,9.136 C5.52,8.563 5,7.479 5,6 L5,4 C5,2.346 6.346,1 8,1"></path>
</svg>
