<?xml version="1.0" encoding="UTF-8" standalone="no"?>
<svg viewBox="0 0 16 16" version="1.1" xmlns="http://www.w3.org/2000/svg" xmlns:xlink="http://www.w3.org/1999/xlink">
    <title>Info</title>
    <path d="M8,0 C3.582,0 0,3.582 0,8 C0,12.418 3.582,16 8,16 C12.418,16 16,12.418 16,8 C16,3.582 12.418,0 8,0 M8,1 C11.86,1 15,4.14 15,8 C15,11.86 11.86,15 8,15 C4.14,15 1,11.86 1,8 C1,4.14 4.14,1 8,1 Z M9,4 C9,4.552 8.552,5 8,5 C7.448,5 7,4.552 7,4 C7,3.448 7.448,3 8,3 C8.552,3 9,3.448 9,4 Z M9,11 L9,8 L9,7 C9,6.448 8.552,6 8,6 L7,6 L6,6 L6,7 L7,7 L7,11 L5,11 L5,12 L7,12 L9,12 L11,12 L11,11 L9,11 Z"></path>
</svg>
