<?xml version="1.0" standalone="no"?>
<!DOCTYPE svg PUBLIC "-//W3C//DTD SVG 1.1//EN" "http://www.w3.org/Graphics/SVG/1.1/DTD/svg11.dtd" >
<svg xmlns="http://www.w3.org/2000/svg">
<metadata>Generated by IcoMoon</metadata>
<defs>
<font id="super-tight-iconset" horiz-adv-x="1024">
<font-face units-per-em="1024" ascent="960" descent="-64" />
<missing-glyph horiz-adv-x="1024" />
<glyph unicode="&#x20;" horiz-adv-x="512" d="" />
<glyph unicode="&#xe900;" glyph-name="user" d="M512 852.329c84.329 0 150.588-66.259 150.588-150.588v-210.824c0-84.329-66.259-150.588-150.588-150.588s-150.588 66.259-150.588 150.588v210.824c0 84.329 66.259 150.588 150.588 150.588zM512 912.565c-117.459 0-210.824-93.365-210.824-210.824v-210.824c0-117.459 93.365-210.824 210.824-210.824s210.824 93.365 210.824 210.824v210.824c0 117.459-93.365 210.824-210.824 210.824v0zM512 189.741c120.471 0 234.918-36.141 331.294-105.412v-75.294h-662.588v75.294c96.376 69.271 210.824 105.412 331.294 105.412zM512 249.976c-147.576 0-283.106-51.2-391.529-135.529v-165.647h783.059v165.647c-108.424 84.329-243.953 135.529-391.529 135.529v0z" />
<glyph unicode="&#xe901;" glyph-name="user-add" d="M391.529 852.329c84.329 0 150.588-66.259 150.588-150.588v-210.824c0-84.329-66.259-150.588-150.588-150.588s-150.588 66.259-150.588 150.588v210.824c0 84.329 66.259 150.588 150.588 150.588zM391.529 912.565c-117.459 0-210.824-93.365-210.824-210.824v-210.824c0-117.459 93.365-210.824 210.824-210.824s210.824 93.365 210.824 210.824v210.824c0 117.459-93.365 210.824-210.824 210.824v0zM391.529 189.741c120.471 0 234.918-36.141 331.294-105.412v-75.294h-662.588v75.294c96.376 69.271 210.824 105.412 331.294 105.412zM391.529 249.976c-147.576 0-283.106-51.2-391.529-135.529v-165.647h783.059v165.647c-108.424 84.329-243.953 135.529-391.529 135.529v0zM662.588 611.388h301.176v-60.235h-301.176v60.235zM783.059 430.682v301.176h60.235v-301.176z" />
<glyph unicode="&#xe902;" glyph-name="user-accept" d="M391.529 852.329c84.329 0 150.588-66.259 150.588-150.588v-210.824c0-84.329-66.259-150.588-150.588-150.588s-150.588 66.259-150.588 150.588v210.824c0 84.329 66.259 150.588 150.588 150.588zM391.529 912.565c-117.459 0-210.824-93.365-210.824-210.824v-210.824c0-117.459 93.365-210.824 210.824-210.824s210.824 93.365 210.824 210.824v210.824c0 117.459-93.365 210.824-210.824 210.824v0zM391.529 189.741c120.471 0 234.918-36.141 331.294-105.412v-75.294h-662.588v75.294c96.376 69.271 210.824 105.412 331.294 105.412zM391.529 249.976c-147.576 0-283.106-51.2-391.529-135.529v-165.647h783.059v165.647c-108.424 84.329-243.953 135.529-391.529 135.529v0zM758.965 515.012l-84.329 87.341-42.165-45.176 126.494-126.494 45.176 42.165 168.659 171.671-42.165 42.165z" />
<glyph unicode="&#xe903;" glyph-name="user-remove" d="M391.529 852.329c84.329 0 150.588-66.259 150.588-150.588v-210.824c0-84.329-66.259-150.588-150.588-150.588s-150.588 66.259-150.588 150.588v210.824c0 84.329 66.259 150.588 150.588 150.588zM391.529 912.565c-117.459 0-210.824-93.365-210.824-210.824v-210.824c0-117.459 93.365-210.824 210.824-210.824s210.824 93.365 210.824 210.824v210.824c0 117.459-93.365 210.824-210.824 210.824v0zM391.529 189.741c120.471 0 234.918-36.141 331.294-105.412v-75.294h-662.588v75.294c96.376 69.271 210.824 105.412 331.294 105.412zM391.529 249.976c-147.576 0-283.106-51.2-391.529-135.529v-165.647h783.059v165.647c-108.424 84.329-243.953 135.529-391.529 135.529v0zM704.12 731.41l255.554-255.554-42.592-42.592-255.554 255.554 42.592 42.592zM662.588 475.859l256 252.988 42.165-42.165-256-252.988z" />
<glyph unicode="&#xe904;" glyph-name="user-promote" d="M391.529 852.329c84.329 0 150.588-66.259 150.588-150.588v-210.824c0-84.329-66.259-150.588-150.588-150.588s-150.588 66.259-150.588 150.588v210.824c0 84.329 66.259 150.588 150.588 150.588zM391.529 912.565c-117.459 0-210.824-93.365-210.824-210.824v-210.824c0-117.459 93.365-210.824 210.824-210.824s210.824 93.365 210.824 210.824v210.824c0 117.459-93.365 210.824-210.824 210.824v0zM391.529 189.741c120.471 0 234.918-36.141 331.294-105.412v-75.294h-662.588v75.294c96.376 69.271 210.824 105.412 331.294 105.412zM391.529 249.976c-147.576 0-283.106-51.2-391.529-135.529v-165.647h783.059v165.647c-108.424 84.329-243.953 135.529-391.529 135.529v0zM837.271 430.682v186.729l54.212-57.224 42.165 45.176-126.494 126.494-45.176-42.165-84.329-84.329 42.165-45.176 57.224 57.224v-186.729z" />
<glyph unicode="&#xe905;" glyph-name="user-assigned" d="M391.529 852.329c84.329 0 150.588-66.259 150.588-150.588v-210.824c0-84.329-66.259-150.588-150.588-150.588s-150.588 66.259-150.588 150.588v210.824c0 84.329 66.259 150.588 150.588 150.588zM391.529 912.565c-117.459 0-210.824-93.365-210.824-210.824v-210.824c0-117.459 93.365-210.824 210.824-210.824s210.824 93.365 210.824 210.824v210.824c0 117.459-93.365 210.824-210.824 210.824v0zM391.529 189.741c120.471 0 234.918-36.141 331.294-105.412v-75.294h-662.588v75.294c96.376 69.271 210.824 105.412 331.294 105.412zM391.529 249.976c-147.576 0-283.106-51.2-391.529-135.529v-165.647h783.059v165.647c-108.424 84.329-243.953 135.529-391.529 135.529v0zM963.765 611.388h-186.729l57.224 54.212-45.176 42.165-126.494-126.494 126.494-126.494 45.176 42.165-57.224 54.212h186.729z" />
<glyph unicode="&#xe906;" glyph-name="group" d="M271.059 280.094c117.459 0 210.824 93.365 210.824 210.824v210.824c0 117.459-93.365 210.824-210.824 210.824s-210.824-93.365-210.824-210.824v-210.824c0-117.459 93.365-210.824 210.824-210.824zM120.471 701.741c0 84.329 66.259 150.588 150.588 150.588s150.588-66.259 150.588-150.588v-210.824c0-84.329-66.259-150.588-150.588-150.588s-150.588 66.259-150.588 150.588v210.824zM752.941 280.094c117.459 0 210.824 93.365 210.824 210.824v210.824c0 117.459-93.365 210.824-210.824 210.824s-210.824-93.365-210.824-210.824v-210.824c0-117.459 93.365-210.824 210.824-210.824zM602.353 701.741c0 84.329 66.259 150.588 150.588 150.588s150.588-66.259 150.588-150.588v-210.824c0-84.329-66.259-150.588-150.588-150.588s-150.588 66.259-150.588 150.588v210.824zM752.941 249.976c-108.424 0-183.718-24.094-246.965-45.176-72.282 30.118-150.588 45.176-234.918 45.176-96.376 0-189.741-21.082-271.059-63.247v-237.929h1024v237.929c-81.318 42.165-174.682 63.247-271.059 63.247zM602.353 9.035h-542.118v138.541c66.259 27.106 138.541 42.165 210.824 42.165 120.471 0 234.918-36.141 331.294-105.412v-75.294zM963.765 9.035h-301.176v105.412c-24.094 18.071-48.188 36.141-75.294 51.2 39.153 9.035 87.341 27.106 165.647 27.106 72.282 0 144.565-15.059 210.824-42.165v-141.553z" />
<glyph unicode="&#xe907;" glyph-name="add" d="M903.529 430.682v60.235h-361.412v361.412h-60.235v-361.412h-361.412v-60.235h361.412v-361.412h60.235v361.412z" />
<glyph unicode="&#xe908;" glyph-name="checkmark" d="M403.576 277.082l-210.824 210.824-42.165-42.165 210.824-213.835 42.165-42.165 45.176 42.165 424.659 427.671-42.165 42.165z" />
<glyph unicode="&#xe909;" glyph-name="close" d="M888.471 792.094l-45.176 45.176-340.329-340.329-340.329 340.329-42.165-45.176 340.329-340.329-340.329-340.329 42.165-42.165 340.329 340.329 340.329-340.329 45.176 42.165-340.329 340.329z" />
<glyph unicode="&#xe90a;" glyph-name="search" d="M873.412 141.553l-271.059 271.059c36.141 45.176 60.235 105.412 60.235 168.659 0 150.588-120.471 271.059-271.059 271.059s-271.059-120.471-271.059-271.059c0-150.588 120.471-271.059 271.059-271.059 63.247 0 123.482 21.082 168.659 60.235l271.059-271.059 42.165 42.165zM391.529 370.447c-117.459 0-210.824 93.365-210.824 210.824s93.365 210.824 210.824 210.824 210.824-93.365 210.824-210.824-93.365-210.824-210.824-210.824z" />
<glyph unicode="&#xe90b;" glyph-name="filter" d="M900.518 912.565l-346.353-448.753-12.047-15.059v-346.353l-60.235-39.153v385.506l-12.047 15.059-346.353 448.753h777.035zM1024 972.8h-1024l421.647-545.129v-478.871l180.706 120.471v358.4l421.647 545.129z" />
<glyph unicode="&#xe90c;" glyph-name="flag" d="M271.059 912.565h60.235v-783.059h-60.235v783.059zM557.176 792.094c-63.247 0-96.376 18.071-126.494 33.129-27.106 15.059-51.2 27.106-99.388 27.106v60.235c63.247 0 96.376-18.071 126.494-33.129 27.106-15.059 51.2-27.106 99.388-27.106s72.282 12.047 99.388 27.106c30.118 15.059 63.247 33.129 126.494 33.129v-60.235c-48.188 0-72.282-12.047-99.388-27.106-30.118-15.059-63.247-33.129-126.494-33.129zM557.176 430.682c-63.247 0-96.376 18.071-126.494 33.129-27.106 15.059-51.2 27.106-99.388 27.106v60.235c63.247 0 96.376-18.071 126.494-33.129 27.106-15.059 51.2-27.106 99.388-27.106s72.282 12.047 99.388 27.106c30.118 15.059 63.247 33.129 126.494 33.129v-60.235c-48.188 0-72.282-12.047-99.388-27.106-30.118-15.059-63.247-33.129-126.494-33.129zM783.059 912.565h60.235v-421.647h-60.235v421.647zM361.412 240.941v-66.259c18.071-12.047 30.118-27.106 30.118-45.176 0-33.129-42.165-60.235-90.353-60.235s-90.353 27.106-90.353 60.235c0 18.071 12.047 33.129 30.118 45.176v66.259c-54.212-18.071-90.353-60.235-90.353-111.435 0-66.259 66.259-120.471 150.588-120.471s150.588 54.212 150.588 120.471c0 48.188-36.141 90.353-90.353 111.435z" />
<glyph unicode="&#xe90d;" glyph-name="sign-in" d="M521.035 289.129l171.671 171.671-171.671 171.671-42.165-45.176 99.388-96.376h-427.671v-60.235h427.671l-99.388-96.376zM361.412 852.329v-301.176h60.235v240.941h361.412v-662.588h-361.412v240.941h-60.235v-301.176h481.882v783.059z" />
<glyph unicode="&#xe90e;" glyph-name="sign-out" d="M701.741 289.129l171.671 171.671-171.671 171.671-42.165-45.176 99.388-96.376h-367.435v-60.235h367.435l-99.388-96.376zM542.118 370.447v-240.941h-301.176v662.588h301.176v-240.941h60.235v301.176h-421.647v-783.059h421.647v301.176z" />
<glyph unicode="&#xe90f;" glyph-name="speech-bubble" d="M843.294 792.094v-542.118h-439.718l-15.059-9.035-87.341-60.235v69.271h-120.471v542.118h662.588zM903.529 852.329h-783.059v-662.588h120.471v-120.471l180.706 120.471h481.882v662.588z" />
<glyph unicode="&#xe910;" glyph-name="clock" d="M512 852.329c216.847 0 391.529-174.682 391.529-391.529s-174.682-391.529-391.529-391.529-391.529 174.682-391.529 391.529 174.682 391.529 391.529 391.529zM512 912.565c-249.976 0-451.765-201.788-451.765-451.765s201.788-451.765 451.765-451.765 451.765 201.788 451.765 451.765-201.788 451.765-451.765 451.765v0zM481.882 792.094h60.235v-331.294h-60.235v331.294zM522.66 505.54l212.962-212.962-42.592-42.592-212.962 212.962 42.592 42.592z" />
<glyph unicode="&#xe911;" glyph-name="calendar" d="M843.294 792.094v120.471h-60.235v-120.471h-542.118v120.471h-60.235v-120.471h-180.706v-843.294h1024v843.294h-180.706zM963.765 9.035h-903.529v481.882h903.529v-481.882zM963.765 551.153h-903.529v180.706h120.471v-60.235h60.235v60.235h542.118v-60.235h60.235v60.235h120.471v-180.706z" />
<glyph unicode="&#xe912;" glyph-name="cloud" d="M764.988 189.741h-475.859c-108.424 0-198.776 90.353-198.776 198.776 0 90.353 57.224 165.647 141.553 189.741 9.035 69.271 69.271 120.471 141.553 120.471 24.094 0 48.188-6.024 69.271-18.071 36.141 45.176 93.365 75.294 153.6 75.294 99.388 0 183.718-75.294 195.765-171.671 96.376-15.059 171.671-96.376 171.671-195.765 0-108.424-90.353-198.776-198.776-198.776zM292.141 557.176v-27.106l-24.094-3.012c-69.271-15.059-117.459-72.282-117.459-138.541 0-75.294 63.247-138.541 138.541-138.541h478.871c75.294 0 135.529 63.247 135.529 138.541s-63.247 138.541-138.541 138.541h-30.118v30.118c0 75.294-63.247 138.541-138.541 138.541-51.2 0-96.376-27.106-120.471-72.282l-18.071-33.129-27.106 27.106c-15.059 15.059-36.141 24.094-57.224 24.094-45.176-3.012-81.318-39.153-81.318-84.329z" />
<glyph unicode="&#xe913;" glyph-name="download" d="M355.388 210.824l171.671-171.671 171.671 171.671-45.176 42.165-96.376-99.388v367.435h-60.235v-367.435l-96.376 99.388zM792.094 704.753c-15.059 96.376-96.376 171.671-195.765 171.671-60.235 0-117.459-27.106-153.6-75.294-21.082 12.047-45.176 18.071-69.271 18.071-72.282 0-129.506-51.2-141.553-120.471-84.329-24.094-141.553-102.4-141.553-189.741 0-108.424 90.353-198.776 198.776-198.776h162.635v60.235h-162.635c-75.294 0-138.541 63.247-138.541 138.541 0 66.259 48.188 123.482 114.447 135.529l24.094 3.012v30.118c0 45.176 36.141 81.318 81.318 81.318 21.082 0 42.165-9.035 57.224-24.094l27.106-27.106 18.071 33.129c24.094 45.176 69.271 72.282 120.471 72.282 75.294 0 138.541-63.247 138.541-138.541v-30.118h30.118c75.294 0 138.541-63.247 138.541-138.541s-60.235-135.529-135.529-135.529h-162.635v-60.235h162.635c108.424 0 198.776 90.353 198.776 198.776 0 99.388-75.294 183.718-171.671 195.765z" />
<glyph unicode="&#xe914;" glyph-name="upload" d="M481.882 792.094h60.235v-421.647h-60.235v421.647zM469.835 810.165l-129.506-129.506 45.176-42.165 126.494 129.506 126.494-129.506 45.176 42.165-171.671 171.671zM843.294 490.918h-240.941v-60.235h198.776l39.153-120.471h-656.565l39.153 120.471h198.776v60.235h-240.941l-60.235-180.706v-240.941h783.059v240.941l-60.235 180.706zM180.706 129.506v120.471h662.588v-120.471h-662.588z" />
<glyph unicode="&#xe915;" glyph-name="hamburger" d="M180.706 761.976h662.588v-120.471h-662.588v120.471zM180.706 521.035h662.588v-120.471h-662.588v120.471zM180.706 280.094h662.588v-120.471h-662.588v120.471z" />
<glyph unicode="&#xe916;" glyph-name="kebab" d="M602.353 761.976c0-49.901-40.452-90.353-90.353-90.353s-90.353 40.452-90.353 90.353c0 49.901 40.452 90.353 90.353 90.353s90.353-40.452 90.353-90.353zM602.353 460.8c0-49.901-40.452-90.353-90.353-90.353s-90.353 40.452-90.353 90.353c0 49.901 40.452 90.353 90.353 90.353s90.353-40.452 90.353-90.353zM602.353 159.624c0-49.901-40.452-90.353-90.353-90.353s-90.353 40.452-90.353 90.353c0 49.901 40.452 90.353 90.353 90.353s90.353-40.452 90.353-90.353z" />
<glyph unicode="&#xe917;" glyph-name="grilling-kebab" d="M301.176 460.8c0-49.901-40.452-90.353-90.353-90.353s-90.353 40.452-90.353 90.353c0 49.901 40.452 90.353 90.353 90.353s90.353-40.452 90.353-90.353zM602.353 460.8c0-49.901-40.452-90.353-90.353-90.353s-90.353 40.452-90.353 90.353c0 49.901 40.452 90.353 90.353 90.353s90.353-40.452 90.353-90.353zM903.529 460.8c0-49.901-40.452-90.353-90.353-90.353s-90.353 40.452-90.353 90.353c0 49.901 40.452 90.353 90.353 90.353s90.353-40.452 90.353-90.353z" />
<glyph unicode="&#xe918;" glyph-name="attention" d="M512 852.329c216.847 0 391.529-174.682 391.529-391.529s-174.682-391.529-391.529-391.529-391.529 174.682-391.529 391.529 174.682 391.529 391.529 391.529zM512 912.565c-249.976 0-451.765-201.788-451.765-451.765s201.788-451.765 451.765-451.765 451.765 201.788 451.765 451.765-201.788 451.765-451.765 451.765v0zM572.235 219.859c0-33.267-26.968-60.235-60.235-60.235s-60.235 26.968-60.235 60.235c0 33.267 26.968 60.235 60.235 60.235s60.235-26.968 60.235-60.235zM572.235 761.976h-120.471l30.118-421.647h60.235z" />
<glyph unicode="&#xe919;" glyph-name="trask" d="M777.035 641.506l-48.188-542.118h-433.694l-48.188 542.118h530.071zM843.294 701.741h-662.588l60.235-662.588h542.118l60.235 662.588zM150.588 792.094h722.824v-60.235h-722.824v60.235zM572.235 822.212c18.071 0 30.118-12.047 30.118-30.118h-180.706c0 18.071 12.047 30.118 30.118 30.118h120.471zM572.235 882.447h-120.471c-51.2 0-90.353-39.153-90.353-90.353v-60.235h301.176v60.235c0 51.2-39.153 90.353-90.353 90.353v0zM481.882 581.271h60.235v-421.647h-60.235v421.647zM662.588 159.624h-60.235l30.118 421.647h60.235zM421.647 159.624h-60.235l-30.118 421.647h60.235z" />
<glyph unicode="&#xe91a;" glyph-name="tag" d="M418.635 864.376l472.847-472.847-298.165-298.165-472.847 472.847v298.165h298.165zM442.729 924.612h-382.494v-382.494l533.082-533.082 382.494 382.494-533.082 533.082zM316.235 728.847c15.059 0 30.118-6.024 42.165-18.071 24.094-24.094 24.094-60.235 0-84.329-12.047-12.047-27.106-18.071-42.165-18.071s-30.118 6.024-42.165 18.071c-12.047 12.047-18.071 27.106-18.071 42.165s6.024 30.118 18.071 42.165c9.035 12.047 27.106 18.071 42.165 18.071zM316.235 789.082c-30.118 0-60.235-12.047-84.329-36.141-48.188-48.188-48.188-123.482 0-171.671 24.094-24.094 54.212-36.141 84.329-36.141s60.235 12.047 84.329 36.141c48.188 48.188 48.188 123.482 0 171.671-24.094 24.094-54.212 36.141-84.329 36.141v0z" />
<glyph unicode="&#xe91b;" glyph-name="share" d="M451.765 243.953h-60.235v240.941c0 117.459 93.365 210.824 210.824 210.824h180.706v-60.235h-180.706c-84.329 0-150.588-66.259-150.588-150.588v-240.941zM819.2 707.765l-84.329 84.329-42.165-42.165 84.329-84.329-84.329-87.341 42.165-42.165 129.506 129.506zM512 484.894v-60.235h301.176v-240.941h-542.118v240.941h60.235v60.235h-120.471v-361.412h662.588v361.412z" />
<glyph unicode="&#xe91c;" glyph-name="edit" d="M795.106 734.871l-9.035 9.035c-45.176 45.176-117.459 45.176-162.635 0l-406.588-409.6-21.082-192.753 192.753 21.082 409.6 409.6c42.165 45.176 42.165 117.459-3.012 162.635zM358.4 222.871l-96.376-12.047 12.047 96.376 325.271 325.271 84.329-84.329-325.271-325.271zM725.835 590.306l-84.329 84.329 27.106 27.106c21.082 21.082 54.212 21.082 75.294 0l9.035-9.035c21.082-21.082 21.082-54.212 0-75.294l-27.106-27.106z" />
<glyph unicode="&#xe91d;" glyph-name="send" d="M60.235 370.447l301.176-120.471 30.118-240.941 150.588 180.706 301.176-120.471v843.294l-783.059-542.118zM662.588 713.788l-304.188-397.553-171.671 69.271 475.859 328.282zM433.694 153.6l-12.047 102.4-3.012 36.141 280.094 367.435-171.671-397.553-27.106-33.129-66.259-75.294zM578.259 240.941l204.8 466.824v-548.141l-204.8 81.318z" />
<glyph unicode="&#xe91e;" glyph-name="mail" d="M0 792.094v-662.588h1024v662.588h-1024zM512 409.6l-403.576 322.259h807.153l-403.576-322.259zM512 331.294l132.518 105.412 274.071-246.965h-813.176l274.071 246.965 132.518-105.412zM963.765 228.894l-271.059 243.953 271.059 216.847v-460.8zM331.294 475.859l-271.059-243.953v460.8l271.059-216.847z" />
<glyph unicode="&#xe91f;" glyph-name="valid" d="M512 852.329c216.847 0 391.529-174.682 391.529-391.529s-174.682-391.529-391.529-391.529-391.529 174.682-391.529 391.529 174.682 391.529 391.529 391.529zM512 912.565c-249.976 0-451.765-201.788-451.765-451.765s201.788-451.765 451.765-451.765 451.765 201.788 451.765 451.765-201.788 451.765-451.765 451.765v0zM427.671 355.388l-129.506 126.494-42.165-42.165 129.506-126.494 42.165-45.176 42.165 45.176 298.165 295.153-42.165 45.176z" />
<glyph unicode="&#xe920;" glyph-name="activity" d="M180.706 882.447c51.2 0 90.353-39.153 90.353-90.353s-39.153-90.353-90.353-90.353-90.353 39.153-90.353 90.353 39.153 90.353 90.353 90.353zM180.706 942.682c-84.329 0-150.588-66.259-150.588-150.588s66.259-150.588 150.588-150.588 150.588 66.259 150.588 150.588-66.259 150.588-150.588 150.588v0zM180.706 219.859c51.2 0 90.353-39.153 90.353-90.353s-39.153-90.353-90.353-90.353-90.353 39.153-90.353 90.353 39.153 90.353 90.353 90.353zM180.706 280.094c-84.329 0-150.588-66.259-150.588-150.588s66.259-150.588 150.588-150.588 150.588 66.259 150.588 150.588-66.259 150.588-150.588 150.588v0zM150.588 551.153h60.235v-180.706h-60.235v180.706zM421.647 822.212h572.235v-60.235h-572.235v60.235zM421.647 490.918h572.235v-60.235h-572.235v60.235zM421.647 159.624h572.235v-60.235h-572.235v60.235z" />
<glyph unicode="&#xe921;" glyph-name="discussion" d="M722.824 671.624v-542.118h-439.718l-15.059-9.035-87.341-60.235v69.271h-120.471v542.118h662.588zM783.059 731.859h-783.059v-662.588h120.471v-120.471l180.706 120.471h481.882v662.588zM240.941 792.094h60.235v120.471h662.588v-542.118h-120.471v-60.235h180.706v662.588h-783.059z" />
<glyph unicode="&#xe922;" glyph-name="document" d="M662.588 912.565h-481.882v-903.529h662.588v722.824l-180.706 180.706zM662.588 828.235l96.376-96.376h-96.376v96.376zM240.941 69.271v783.059h361.412v-180.706h180.706v-602.353h-542.118zM331.294 581.271h361.412v-60.235h-361.412v60.235zM331.294 430.682h361.412v-60.235h-361.412v60.235zM331.294 280.094h361.412v-60.235h-361.412v60.235z" />
<glyph unicode="&#xe923;" glyph-name="folder" d="M421.647 731.859l-60.235 180.706h-361.412v-963.765h1024v783.059h-602.353zM963.765 9.035h-903.529v843.294h259.012l39.153-120.471h-177.694v-60.235h783.059v-662.588z" />
<glyph unicode="&#xe924;" glyph-name="task" d="M783.059 792.094v-60.235h60.235v-722.824h-662.588v722.824h60.235v60.235h-120.471v-843.294h783.059v843.294zM542.118 912.565c33.129 0 60.235-27.106 60.235-60.235v-60.235h60.235v-60.235h-301.176v60.235h60.235v60.235c0 33.129 27.106 60.235 60.235 60.235h60.235zM542.118 972.8h-60.235c-66.259 0-120.471-54.212-120.471-120.471-33.129 0-60.235-27.106-60.235-60.235v-120.471h421.647v120.471c0 33.129-27.106 60.235-60.235 60.235 0 66.259-54.212 120.471-120.471 120.471v0zM301.176 551.153h421.647v-60.235h-421.647v60.235zM301.176 370.447h421.647v-60.235h-421.647v60.235zM301.176 189.741h421.647v-60.235h-421.647v60.235z" />
<glyph unicode="&#xe925;" glyph-name="bell" d="M508.988 912.565c18.071 0 33.129-15.059 33.129-33.129 0-3.012 0-3.012 0-6.024l-6.024-51.2 48.188-15.059c117.459-27.106 198.776-135.529 198.776-256v-120.471c0-78.306 51.2-144.565 120.471-171.671v-129.506h-331.294v-60.235c0-33.129-27.106-60.235-60.235-60.235s-60.235 27.106-60.235 60.235v60.235h-331.294v129.506c69.271 24.094 120.471 90.353 120.471 171.671v120.471c0 120.471 78.306 222.871 192.753 259.012l48.188 15.059-6.024 51.2v3.012c0 18.071 15.059 33.129 33.129 33.129zM508.988 972.8c-51.2 0-93.365-42.165-93.365-93.365 0-3.012 0-6.024 0-12.047-135.529-42.165-234.918-165.647-234.918-316.235v0-120.471c0-66.259-54.212-120.471-120.471-120.471v-240.941h331.294c0-66.259 54.212-120.471 120.471-120.471s120.471 54.212 120.471 120.471h331.294v240.941c-66.259 0-120.471 54.212-120.471 120.471v120.471c0 150.588-102.4 280.094-240.941 319.247 0 3.012 0 6.024 0 9.035 0 51.2-42.165 93.365-93.365 93.365v0z" />
<glyph unicode="&#xe926;" glyph-name="cog" d="M602.353 912.565v-129.506l36.141-15.059c24.094-12.047 51.2-24.094 72.282-42.165l33.129-24.094 36.141 21.082 78.306 45.176 90.353-156.612-78.306-45.176-36.141-21.082 6.024-39.153c3.012-15.059 3.012-30.118 3.012-42.165s0-27.106-3.012-42.165l-6.024-39.153 36.141-21.082 78.306-45.176-90.353-156.612-78.306 45.176-36.141 21.082-33.129-24.094c-24.094-18.071-48.188-33.129-75.294-42.165l-33.129-21.082v-129.506h-180.706v129.506l-36.141 15.059c-24.094 12.047-51.2 24.094-72.282 42.165l-33.129 24.094-36.141-21.082-78.306-45.176-90.353 156.612 78.306 45.176 36.141 21.082-6.024 39.153c-3.012 18.071-3.012 33.129-3.012 45.176s0 27.106 3.012 42.165l6.024 39.153-36.141 21.082-78.306 45.176 90.353 156.612 78.306-45.176 36.141-21.082 33.129 24.094c24.094 18.071 48.188 33.129 75.294 42.165l33.129 18.071v129.506h180.706zM662.588 972.8h-301.176v-150.588c-30.118-12.047-60.235-30.118-87.341-51.2l-129.506 75.294-150.588-259.012 129.506-75.294c0-18.071-3.012-33.129-3.012-51.2s0-33.129 3.012-48.188l-129.506-75.294 150.588-259.012 129.506 75.294c27.106-24.094 54.212-42.165 87.341-54.212v-150.588h301.176v150.588c30.118 12.047 60.235 30.118 87.341 51.2l132.518-75.294 150.588 259.012-129.506 75.294c3.012 18.071 3.012 33.129 3.012 51.2s0 33.129-3.012 48.188l129.506 75.294-150.588 259.012-129.506-75.294c-30.118 24.094-57.224 42.165-90.353 54.212v150.588zM512 611.388c84.329 0 150.588-66.259 150.588-150.588s-66.259-150.588-150.588-150.588-150.588 66.259-150.588 150.588 66.259 150.588 150.588 150.588zM512 671.624c-117.459 0-210.824-93.365-210.824-210.824s93.365-210.824 210.824-210.824 210.824 93.365 210.824 210.824-93.365 210.824-210.824 210.824v0z" />
<glyph unicode="&#xe927;" glyph-name="info" d="M512 852.329c216.847 0 391.529-174.682 391.529-391.529s-174.682-391.529-391.529-391.529-391.529 174.682-391.529 391.529 174.682 391.529 391.529 391.529zM512 912.565c-249.976 0-451.765-201.788-451.765-451.765s201.788-451.765 451.765-451.765 451.765 201.788 451.765 451.765-201.788 451.765-451.765 451.765v0zM572.235 701.741c0-33.267-26.968-60.235-60.235-60.235s-60.235 26.968-60.235 60.235c0 33.267 26.968 60.235 60.235 60.235s60.235-26.968 60.235-60.235zM481.882 581.271h60.235v-421.647h-60.235v421.647z" />
<glyph unicode="&#xe928;" glyph-name="bar-chart" d="M120.471 69.271v843.294h-60.235v-903.529h903.529v60.235zM240.941 551.153h120.471v-421.647h-120.471v421.647zM481.882 671.624h120.471v-542.118h-120.471v542.118zM722.824 792.094h120.471v-662.588h-120.471v662.588z" />
<glyph unicode="&#xe929;" glyph-name="gantt-chart" d="M120.471 69.271v843.294h-60.235v-903.529h903.529v60.235zM240.941 792.094h421.647v-120.471h-421.647v120.471zM361.412 551.153h421.647v-120.471h-421.647v120.471zM481.882 310.212h421.647v-120.471h-421.647v120.471z" />
<glyph unicode="&#xe92a;" glyph-name="line-chart" d="M120.471 69.271v843.294h-60.235v-903.529h903.529v60.235zM873.412 430.682v180.706h-180.706v-60.235h78.306l-144.565-144.565-129.506 126.494-42.165 42.165-42.165-42.165-129.506-126.494-168.659 168.659-42.165-42.165 168.659-168.659 42.165-45.176 171.671 171.671 171.671-171.671 42.165 45.176 144.565 144.565v-78.306z" />
<glyph unicode="&#xe92b;" glyph-name="pie-chart" d="M421.647 816.188v-445.741h445.741c-30.118-186.729-192.753-331.294-385.506-331.294-216.847 0-391.529 174.682-391.529 391.529 0 195.765 144.565 358.4 331.294 385.506zM481.882 882.447c-249.976 0-451.765-201.788-451.765-451.765s201.788-451.765 451.765-451.765 451.765 201.788 451.765 451.765h-451.765v451.765zM602.353 876.424c168.659-24.094 301.176-156.612 325.271-325.271h-325.271v325.271zM542.118 942.682v-451.765h451.765c0 249.976-201.788 451.765-451.765 451.765v0z" />
<glyph unicode="&#xe92c;" glyph-name="down-pointer" d="M740.894 551.153l-213.835-213.835-213.835 213.835-42.165-42.165 256-256 256 256z" />
<glyph unicode="&#xe92d;" glyph-name="left-pointer" d="M602.353 674.635l-213.835-213.835 213.835-213.835-42.165-42.165-256 256 256 256z" />
<glyph unicode="&#xe92e;" glyph-name="right-pointer" d="M394.541 674.635l213.835-213.835-213.835-213.835 42.165-42.165 256 256-256 256z" />
<glyph unicode="&#xe92f;" glyph-name="up-pointer" d="M740.894 343.341l-213.835 213.835-213.835-213.835-42.165 42.165 256 256 256-256z" />
<glyph unicode="&#xe930;" glyph-name="lock" d="M843.294 521.035v120.471c0 183.718-147.576 331.294-331.294 331.294s-331.294-147.576-331.294-331.294v-120.471h-120.471v-572.235h903.529v572.235h-120.471zM240.941 641.506c0 150.588 120.471 271.059 271.059 271.059s271.059-120.471 271.059-271.059v-120.471h-542.118v120.471zM903.529 9.035h-783.059v451.765h783.059v-451.765z" />
<glyph unicode="&#xe931;" glyph-name="receipt" d="M180.706 852.329h60.235v-722.824h-60.235v722.824zM783.059 852.329h60.235v-722.824h-60.235v722.824zM240.941 852.329h542.118v-60.235h-542.118v60.235zM286.118 60.235l-105.412 69.271 36.141 48.188 69.271-39.153 75.294 60.235 75.294-60.235 75.294 60.235 75.294-60.235 75.294 60.235 75.294-60.235 69.271 39.153 36.141-48.188-105.412-69.271-75.294 60.235-75.294-60.235-75.294 60.235-75.294-60.235-75.294 60.235zM331.294 671.624h361.412v-60.235h-361.412v60.235zM331.294 521.035h361.412v-60.235h-361.412v60.235zM331.294 370.447h361.412v-60.235h-361.412v60.235z" />
<glyph unicode="&#xe932;" glyph-name="attachment" d="M701.741 641.506v-421.647c0-99.388-81.318-180.706-180.706-180.706s-180.706 81.318-180.706 180.706v527.059c0 75.294 60.235 135.529 135.529 135.529s135.529-60.235 135.529-135.529v-496.941c0-51.2-39.153-90.353-90.353-90.353s-90.353 39.153-90.353 90.353v451.765h-60.235v-451.765c0-84.329 66.259-150.588 150.588-150.588s150.588 66.259 150.588 150.588v512c-9.035 102.4-93.365 180.706-195.765 180.706s-186.729-78.306-195.765-180.706v0-542.118c0-132.518 108.424-240.941 240.941-240.941s240.941 108.424 240.941 240.941v421.647h-60.235z" />
<glyph unicode="&#xe933;" glyph-name="bold" d="M168.659 942.682h283.106c132.518 0 228.894-18.071 286.118-57.224 60.235-39.153 87.341-99.388 87.341-183.718 0-57.224-15.059-102.4-42.165-141.553-30.118-36.141-69.271-60.235-126.494-69.271v-6.024c66.259-12.047 117.459-39.153 147.576-75.294 33.129-36.141 48.188-87.341 48.188-153.6 0-87.341-30.118-153.6-90.353-201.788s-144.565-72.282-252.988-72.282h-340.329v960.753zM325.271 545.129h150.588c66.259 0 114.447 9.035 144.565 30.118s45.176 57.224 45.176 105.412c0 45.176-15.059 78.306-48.188 99.388s-84.329 30.118-156.612 30.118h-135.529v-265.035zM325.271 415.624v-304.188h165.647c66.259 0 114.447 12.047 147.576 39.153 33.129 24.094 51.2 66.259 51.2 120.471 0 51.2-18.071 87.341-51.2 111.435s-87.341 36.141-156.612 36.141h-156.612z" />
<glyph unicode="&#xe934;" glyph-name="expand" d="M451.765 822.212v-60.235h481.882v-722.824h-722.824v481.882h-60.235v-542.118h843.294v843.294zM644.518 286.118l42.165 42.165-551.153 554.165h256v60.235h-361.412v-361.412h60.235v259.012z" />
<glyph unicode="&#xe935;" glyph-name="indent" d="M27.106 912.565h963.765v-60.235h-963.765v60.235zM27.106 69.271h963.765v-60.235h-963.765v60.235zM27.106 189.741h963.765v-60.235h-963.765v60.235zM478.871 370.447h512v-120.471h-512v120.471zM478.871 792.094h512v-120.471h-512v120.471zM478.871 581.271h512v-120.471h-512v120.471zM246.965 349.365l126.494 129.506 45.176 42.165-45.176 42.165-126.494 129.506-42.165-45.176 96.376-96.376h-274.071v-60.235h274.071l-96.376-96.376z" />
<glyph unicode="&#xe936;" glyph-name="italic" d="M490.918 39.153h-117.459l117.459 554.165h117.459l-117.459-554.165zM515.012 728.847c0 24.094 6.024 42.165 18.071 54.212s30.118 21.082 54.212 21.082c18.071 0 33.129-3.012 42.165-12.047 12.047-9.035 15.059-21.082 15.059-39.153 0-24.094-6.024-42.165-21.082-57.224-12.047-15.059-30.118-21.082-51.2-21.082-18.071 0-33.129 3.012-45.176 12.047-6.024 9.035-12.047 24.094-12.047 42.165z" />
<glyph unicode="&#xe937;" glyph-name="ordered-list" d="M310.212 761.976h602.353v-60.235h-602.353v60.235zM310.212 490.918h602.353v-60.235h-602.353v60.235zM310.212 219.859h602.353v-60.235h-602.353v60.235zM216.847 629.459h-54.212v108.424c0 12.047 0 24.094 0 36.141-3.012-6.024-6.024-9.035-12.047-12.047l-24.094-21.082-27.106 36.141 69.271 57.224h48.188v-204.8zM237.929 358.4h-144.565v36.141l48.188 51.2c15.059 15.059 24.094 24.094 27.106 30.118s6.024 9.035 9.035 15.059 3.012 6.024 3.012 9.035c0 6.024-3.012 9.035-6.024 12.047s-9.035 6.024-15.059 6.024c-6.024 0-12.047-3.012-18.071-6.024s-12.047-9.035-21.082-15.059l-30.118 36.141c9.035 9.035 18.071 15.059 27.106 21.082s15.059 6.024 24.094 9.035c9.035 3.012 18.071 3.012 27.106 3.012 12.047 0 24.094-3.012 36.141-6.024s18.071-12.047 24.094-21.082c6.024-9.035 9.035-18.071 9.035-30.118 0-9.035 0-15.059-3.012-21.082s-6.024-12.047-9.035-21.082-9.035-12.047-15.059-21.082c-6.024-6.024-21.082-21.082-45.176-42.165v0h75.294v-45.176zM231.906 249.976c0-12.047-3.012-24.094-12.047-33.129s-18.071-15.059-33.129-21.082v0c36.141-3.012 51.2-21.082 51.2-48.188 0-18.071-9.035-33.129-24.094-45.176s-36.141-21.082-63.247-21.082c-12.047 0-21.082 0-30.118 3.012s-21.082 6.024-30.118 9.035v45.176c9.035-6.024 18.071-9.035 27.106-9.035 9.035-3.012 18.071-3.012 27.106-3.012 12.047 0 21.082 3.012 27.106 6.024s9.035 9.035 9.035 15.059c0 6.024 0 9.035-3.012 12.047s-9.035 6.024-15.059 6.024c-6.024 3.012-15.059 3.012-27.106 3.012h-15.059v42.165h12.047c27.106 0 42.165 6.024 42.165 21.082 0 6.024-3.012 9.035-6.024 12.047 0 6.024-6.024 6.024-15.059 6.024-12.047 0-27.106-3.012-42.165-12.047l-21.082 39.153c12.047 9.035 21.082 12.047 33.129 15.059s24.094 6.024 39.153 6.024c21.082 0 39.153-3.012 51.2-12.047 12.047-12.047 18.071-21.082 18.071-36.141z" />
<glyph unicode="&#xe938;" glyph-name="outdent" d="M30.118 912.565h963.765v-60.235h-963.765v60.235zM30.118 69.271h963.765v-60.235h-963.765v60.235zM30.118 189.741h963.765v-60.235h-963.765v60.235zM481.882 370.447h512v-120.471h-512v120.471zM481.882 792.094h512v-120.471h-512v120.471zM481.882 581.271h512v-120.471h-512v120.471zM201.788 349.365l-171.671 171.671 171.671 171.671 42.165-45.176-99.388-96.376h277.082v-60.235h-277.082l99.388-96.376z" />
<glyph unicode="&#xe939;" glyph-name="redo" d="M548.141 852.329c-216.847 0-391.529-174.682-391.529-391.529h-90.353l120.471-180.706 120.471 180.706h-90.353c0 183.718 147.576 331.294 331.294 331.294s331.294-147.576 331.294-331.294-147.576-331.294-331.294-331.294v-60.235c216.847 0 391.529 174.682 391.529 391.529s-174.682 391.529-391.529 391.529z" />
<glyph unicode="&#xe93a;" glyph-name="bullet-point" d="M246.965 731.859c0-33.267-26.968-60.235-60.235-60.235s-60.235 26.968-60.235 60.235c0 33.267 26.968 60.235 60.235 60.235s60.235-26.968 60.235-60.235zM246.965 460.8c0-33.267-26.968-60.235-60.235-60.235s-60.235 26.968-60.235 60.235c0 33.267 26.968 60.235 60.235 60.235s60.235-26.968 60.235-60.235zM246.965 189.741c0-33.267-26.968-60.235-60.235-60.235s-60.235 26.968-60.235 60.235c0 33.267 26.968 60.235 60.235 60.235s60.235-26.968 60.235-60.235zM307.2 761.976h602.353v-60.235h-602.353v60.235zM307.2 490.918h602.353v-60.235h-602.353v60.235zM307.2 219.859h602.353v-60.235h-602.353v60.235z" />
<glyph unicode="&#xe93b;" glyph-name="waiting" d="M846.306 897.506v-30.118h-674.635v30.118h674.635zM846.306 54.212v-30.118h-674.635v30.118h674.635zM906.541 957.741h-795.106v-150.588h66.259v-30.118c0-114.447 72.282-268.047 228.894-316.235-156.612-48.188-228.894-201.788-228.894-316.235v-30.118h-66.259v-150.588h795.106v150.588h-66.259v30.118c0 114.447-72.282 268.047-228.894 316.235 156.612 48.188 228.894 201.788 228.894 316.235v30.118h66.259v150.588zM508.988 505.976c-186.729 0-271.059 159.624-271.059 271.059v30.118h542.118v-30.118c0-111.435-84.329-271.059-271.059-271.059v0zM237.929 114.447v30.118c0 111.435 84.329 271.059 271.059 271.059s271.059-159.624 271.059-271.059v-30.118h-542.118z" />
<glyph unicode="&#xe93c;" glyph-name="refresh" d="M231.906 629.459c93.365 156.612 298.165 207.812 454.776 114.447 84.329-48.188 138.541-132.518 156.612-222.871l57.224 15.059c-21.082 105.412-84.329 201.788-183.718 262.024-186.729 108.424-424.659 48.188-536.094-135.529l-78.306 45.176 12.047-216.847 195.765 93.365-78.306 45.176zM909.553 430.682l-195.765-93.365 78.306-45.176c-93.365-156.612-298.165-207.812-454.776-114.447-84.329 48.188-138.541 132.518-156.612 222.871l-57.224-15.059c21.082-105.412 84.329-201.788 183.718-262.024 186.729-111.435 424.659-51.2 536.094 135.529l78.306-45.176-12.047 216.847z" />
<glyph unicode="&#xe93d;" glyph-name="multi-folder" d="M379.482 761.976l-54.212 150.588h-325.271v-804.141h921.6v653.553h-542.118zM867.388 159.624h-813.176v701.741h231.906l36.141-99.388h-159.624v-51.2h704.753v-551.153zM897.506 611.388v51.2h126.494v-653.553h-921.6v120.471h51.2v-72.282h819.2v554.165h-75.294z" />
</font>
</defs>
</svg>
